<svg id="Layer_1" data-name="Layer 1" xmlns="http://www.w3.org/2000/svg" viewBox="0 0 269.46 252.3"><defs><style>.cls-1,.cls-2{fill:#231f20;}.cls-1{stroke:#231f20;stroke-miterlimit:10;stroke-width:10px;}</style></defs><path class="cls-1" d="M343.28,270.1l-52.73,45.73q-2,1.71-4.05,3.23l-.13.11h.07a61.12,61.12,0,0,0,43.2-11.71c.53-.39,1.06-.79,1.58-1.21l.68-.75a61.15,61.15,0,0,0,15.6-39v-.09Zm.42-26.88a2,2,0,0,0-.09-.22,60.49,60.49,0,0,0-11-18.53c-.52-.6-1-1.18-1.58-1.75a60.6,60.6,0,0,0-15.88-12.17,61.53,61.53,0,0,0-22.1-6.82l-.26,0a61.05,61.05,0,0,0-42.62,11.42c-.67.49-1.33,1-2,1.51s-1.36,1.09-2,1.67L189.2,267.68l-2.44,2.11-7.21,6.26a61.28,61.28,0,0,0,80.3,92.59l1.46-1.27,30.6-26.53a61.23,61.23,0,0,1-22.54-6.93L254,347.25l-7.24,6.28a41.28,41.28,0,0,1-43.08,6.84,40.25,40.25,0,0,1-3.86-1.86,41.29,41.29,0,0,1-7.15-67.35l.32-.28,16.73-14.51,22.14-19.2,20.81-18,6.58-5.71c.54-.47,1.09-.92,1.65-1.36.3-.24.61-.47.91-.69a41.32,41.32,0,0,1,55.66,6.2c.4.46.79.93,1.16,1.41A41,41,0,0,1,327,257.72s0,0,0,.06l0,0,7.69-6.68,9-7.81Z" transform="translate(-153.46 -136.3)"/><path class="cls-1" d="M417.81,199a61.25,61.25,0,0,0-97.09-46.07h0q-2.15,1.58-4.19,3.34l-30.27,26.26c.23,0,.46,0,.69.09h0a60.9,60.9,0,0,1,21.54,6.84l.18.09,13.47-11.68,3.38-2.93.64-.55,3.47-3a40.85,40.85,0,0,1,17.64-9,41.28,41.28,0,0,1,37.63,70.31c-.38.36-.78.71-1.18,1.06l-24,20.78-.85.93c-.63.69-1.29,1.37-2,2-.91.9-1.85,1.78-2.83,2.62l-9.63,8.35-4.22,3.66-52.73,45.73q-2,1.71-4.05,3.23l26.83-23.27a42.92,42.92,0,0,0,4.26-4.27c-.33.24-.66.48-1,.7a41.25,41.25,0,0,1-35.68,5.49l-.22-.06a41.24,41.24,0,0,1-28.19-31.85l-4.34,3.77-6.63,5.75-4.39,3.81-1.27,1.1c.42,1.1.88,2.2,1.37,3.28a61.39,61.39,0,0,0,22.54,26.22q2,1.32,4.15,2.46A61,61,0,0,0,282.16,321c.4.06.79.11,1.19.15h.09a61.12,61.12,0,0,0,43.2-11.71c.53-.39,1.06-.79,1.58-1.21.68-.53,1.36-1.09,2-1.67l34.69-30.08,31.89-27.66a61.15,61.15,0,0,0,21.08-44.71V204C417.94,202.35,417.92,200.67,417.81,199Zm-128.06,6.72a61.05,61.05,0,0,0-42.62,11.42c-.67.49-1.33,1-2,1.51-.3.32-.6.65-.89,1a61.17,61.17,0,0,0-15.41,39.55v.08l20.53-17.81,8.51-7.38c.3-.24.61-.47.91-.69.12-.15.25-.29.38-.43a40,40,0,0,1,3.87-3.83l27-23.38Z" transform="translate(-153.46 -136.3)"/><path class="cls-2" d="M298.79,312a4.62,4.62,0,0,1,.64-.61l-.51.4a20.19,20.19,0,0,1,2.08-1.26,7.28,7.28,0,0,0,2.55-2.38,2.5,2.5,0,0,0-2.82-3.68,2.7,2.7,0,0,0-1.5,1.15,2.9,2.9,0,0,1-.19.29l.39-.5a4.5,4.5,0,0,1-.7.68l.51-.39a15.56,15.56,0,0,1-1.84,1.12,8.16,8.16,0,0,0-.88.56,7.72,7.72,0,0,0-1.27,1.08,2.66,2.66,0,0,0-.73,1.77,2.55,2.55,0,0,0,.73,1.77,2.51,2.51,0,0,0,3.54,0Z" transform="translate(-153.46 -136.3)"/><path class="cls-2" d="M303.54,307.46c3.6-1,5.46-4.14,8.23-6.35.38-.3-.45.3.25-.18l.45-.31c.37-.26.76-.5,1.15-.73.78-.46,1.59-.89,2.39-1.31a45.59,45.59,0,0,0,4.76-2.71,2.57,2.57,0,0,0,.9-3.42,2.52,2.52,0,0,0-3.42-.89c-2.9,2-6.27,3.18-9.08,5.29a33.66,33.66,0,0,0-3.82,3.54c-.26.27-.52.53-.79.78l-.45.41c-.11.09-.43.35-.16.14a10.68,10.68,0,0,1-1,.65c-.14.08-.29.15-.05,0a4,4,0,0,1-.69.23,2.5,2.5,0,0,0,1.33,4.82Z" transform="translate(-153.46 -136.3)"/><path class="cls-2" d="M319.06,296c3.22,0,3.22-5,0-5s-3.22,5,0,5Z" transform="translate(-153.46 -136.3)"/><path class="cls-2" d="M320.51,295.42c3.22,0,3.22-5,0-5s-3.22,5,0,5Z" transform="translate(-153.46 -136.3)"/><path class="cls-2" d="M295.09,309.18a14.33,14.33,0,0,1-2.27,1.41c-.2.09-.42.17-.61.28.12-.07.45-.18.14-.07l-.31.12a17.61,17.61,0,0,0-1.74.71,5.91,5.91,0,0,0-1.44,1.05l-.48.46-.24.23c-.05.05-.35.3-.05.06s0,0-.07,0a2.26,2.26,0,0,1-.26.16l-.28.14c-.27.15.46-.15.16-.07s-.4.13-.6.17-.45.08-.05,0-.08,0-.14,0a2.5,2.5,0,0,0,0,5,7.67,7.67,0,0,0,3.5-1,7.75,7.75,0,0,0,1.45-1.11l.53-.52c.06,0,.23-.16.25-.23-.05.15-.43.29,0,.06.09-.06.19-.1.29-.16.26-.17-.45.17-.15.06l.69-.26c.59-.22,1.18-.46,1.75-.73a13.83,13.83,0,0,0,2.49-1.52,2.75,2.75,0,0,0,1.15-1.49,2.55,2.55,0,0,0-.25-1.93c-.66-1-2.3-1.74-3.42-.89Z" transform="translate(-153.46 -136.3)"/></svg>