<?xml version="1.0" encoding="utf-8"?>
<!-- Generator: Adobe Illustrator 26.0.3, SVG Export Plug-In . SVG Version: 6.00 Build 0)  -->
<svg version="1.1" id="Layer_1" xmlns="http://www.w3.org/2000/svg" xmlns:xlink="http://www.w3.org/1999/xlink" x="0px" y="0px"
	 viewBox="0 0 269.5 252.3" style="enable-background:new 0 0 269.5 252.3;" xml:space="preserve">
<style type="text/css">
	.st0{fill:#231F20;}
</style>
<g>
	<path class="st0" d="M189.8,133.8l-52.7,45.7c-1.3,1.1-2.7,2.2-4,3.2l-0.1,0.1h0.1c15.4,1.7,30.8-2.5,43.2-11.7
		c0.5-0.4,1.1-0.8,1.6-1.2l0.7-0.8c9.6-10.8,15.2-24.6,15.6-39v-0.1L189.8,133.8z M190.2,106.9c0-0.1-0.1-0.1-0.1-0.2
		c-2.5-6.8-6.3-13.1-11-18.5c-0.5-0.6-1-1.2-1.6-1.8c-4.6-4.9-9.9-9-15.9-12.2c-6.9-3.6-14.4-6-22.1-6.8h-0.3
		c-15.1-1.6-30.3,2.4-42.6,11.4c-0.7,0.5-1.3,1-2,1.5s-1.4,1.1-2,1.7l-57,49.4l-2.4,2.1l-7.2,6.3c-25.6,22.2-28.3,60.9-6.1,86.4
		s60.9,28.3,86.4,6.1l1.5-1.3l30.6-26.5c-7.9-0.8-15.5-3.2-22.5-6.9l-15.4,13.3l-7.2,6.3c-11.9,10.3-28.6,13-43.1,6.8
		c-1.3-0.6-2.6-1.2-3.9-1.9c-20-11-27.3-36.1-16.3-56.1c2.3-4.3,5.4-8.1,9.1-11.3l0.3-0.3l16.7-14.5l22.1-19.2l20.8-18l6.6-5.7
		c0.5-0.5,1.1-0.9,1.6-1.4c0.3-0.2,0.6-0.5,0.9-0.7c17.3-12.7,41.6-10,55.7,6.2c0.4,0.5,0.8,0.9,1.2,1.4c4.3,5.4,7.2,11.9,8.4,18.7
		c0,0,0,0,0,0.1l0,0l7.7-6.7L190.2,106.9L190.2,106.9z"/>
	<path class="st0" d="M66.3,252.3c-18.6,0-37-7.7-50.1-22.8C4.6,216.1-1.1,199,0.1,181.3c1.3-17.7,9.3-33.8,22.7-45.4l9.7-8.4
		l56.9-49.3c0.8-0.7,1.5-1.3,2.3-1.9l0.4-0.3c0.5-0.4,1.1-0.8,1.6-1.2c13.2-9.7,29.5-14.1,45.8-12.4l0.5,0
		c8.4,0.9,16.4,3.4,23.9,7.4c6.4,3.4,12.2,7.8,17.1,13.1c0.6,0.6,1.1,1.2,1.5,1.7l0.3,0.3c5.1,5.9,9.1,12.6,11.9,19.9
		c0.1,0.2,0.1,0.3,0.2,0.5l0.4,1.1l-0.4,3.1l-26.4,22.9v-10.6c-1.1-5.8-3.6-11.4-7.3-16c-0.4-0.5-0.7-0.9-1-1.2
		c-12.3-14.2-33.8-16.6-48.9-5.5c-0.2,0.2-0.5,0.4-0.7,0.6c-0.5,0.4-1,0.8-1.5,1.2l-66.6,57.7c-3.3,2.8-5.9,6.2-8,9.9
		c-4.7,8.5-5.8,18.3-3.1,27.6c2.7,9.3,8.9,17,17.4,21.7c1.1,0.6,2.2,1.1,3.4,1.6c12.8,5.4,27.4,3.1,37.9-6l25.2-21.9l3,1.6
		c6.5,3.5,13.4,5.6,20.7,6.4l11.5,1.2l-40.8,35.3C97.1,247,81.7,252.3,66.3,252.3z M132.7,72.1c-11.8,0-23.4,3.7-33.1,10.8
		c-0.5,0.4-1,0.7-1.5,1.1l-0.5,0.3c-0.5,0.4-1.1,0.9-1.7,1.4L96,85.8l-66.6,57.7c-11.4,9.9-18.2,23.5-19.3,38.5
		c-1.1,15,3.8,29.5,13.6,40.9c20.3,23.4,55.9,26,79.4,5.6l24.3-21c-3.7-1-7.2-2.3-10.7-4L96.6,221c-13.4,11.6-31.9,14.6-48.3,7.7
		c-1.5-0.6-2.9-1.3-4.3-2.1c-22.4-12.3-30.5-40.5-18.2-62.9c2.6-4.8,6.1-9,10.2-12.6l0.3-0.3l66.3-57.4c0.6-0.5,1.2-1,1.8-1.5
		c0.3-0.3,0.7-0.5,1-0.8c19.3-14.2,46.7-11.1,62.4,7c0.5,0.5,0.9,1.1,1.3,1.6c3.1,3.8,5.5,8.2,7.2,12.8l8-6.9
		c-2.2-5.1-5.2-9.8-8.9-14.1l-0.3-0.3c-0.4-0.4-0.7-0.8-1-1.1l-0.1-0.2c-4.2-4.5-9.1-8.3-14.6-11.2c-6.3-3.3-13-5.4-20-6.2l-0.5,0
		C136.8,72.2,134.7,72.1,132.7,72.1z M139.8,188.2c-2.3,0-4.7-0.1-7.1-0.4h-13.3l10.7-9.1c1.3-0.9,2.5-1.9,3.8-3l52.7-45.7
		l12.5-10.9l0,11.3c-0.5,15.6-6.5,30.6-16.9,42.2l-1,1.1l-0.3,0.2c-0.6,0.5-1.2,0.9-1.8,1.3C167.7,183.7,153.9,188.2,139.8,188.2z
		 M187.2,142.7l-40.5,35.1c9.5-1.2,18.6-4.8,26.5-10.7c0.4-0.3,0.8-0.6,1.1-0.9l0.4-0.5C180.7,159.2,185,151.2,187.2,142.7z"/>
</g>
<g>
	<path class="st0" d="M264.3,62.7c-1.9-33.8-30.9-59.6-64.7-57.6c-11.7,0.7-22.9,4.7-32.4,11.6l0,0c-1.4,1.1-2.8,2.2-4.2,3.3
		l-30.3,26.3c0.2,0,0.5,0,0.7,0.1l0,0c7.5,0.9,14.8,3.2,21.5,6.8l0.2,0.1l13.5-11.7l3.4-2.9l0.6-0.6l3.5-3c5.1-4.4,11.1-7.5,17.6-9
		c22.2-5.2,44.4,8.6,49.6,30.8c3.4,14.4-1.2,29.4-12,39.5c-0.4,0.4-0.8,0.7-1.2,1.1l-24,20.8l-0.9,0.9c-0.6,0.7-1.3,1.4-2,2
		c-0.9,0.9-1.9,1.8-2.8,2.6l-9.6,8.4l-4.2,3.7L134,181.5c-1.3,1.1-2.7,2.2-4,3.2l26.8-23.3c1.5-1.3,2.9-2.7,4.3-4.3
		c-0.3,0.2-0.7,0.5-1,0.7c-10.4,7.2-23.6,9.2-35.7,5.5l-0.2-0.1c-14.6-4.6-25.4-16.8-28.2-31.9l-4.3,3.8L85,141l-4.4,3.8l-1.3,1.1
		c0.4,1.1,0.9,2.2,1.4,3.3c4.8,10.7,12.7,19.8,22.5,26.2c1.3,0.9,2.7,1.7,4.1,2.5c6.6,3.6,13.9,5.9,21.3,6.8
		c0.4,0.1,0.8,0.1,1.2,0.1h0.1c15.4,1.7,30.8-2.5,43.2-11.7c0.5-0.4,1.1-0.8,1.6-1.2c0.7-0.5,1.4-1.1,2-1.7l34.7-30.1l31.9-27.7
		c13-11.3,20.7-27.5,21.1-44.7v-0.1C264.5,66.1,264.5,64.4,264.3,62.7z M136.3,69.4c-15.1-1.6-30.3,2.4-42.6,11.4
		c-0.7,0.5-1.3,1-2,1.5c-0.3,0.3-0.6,0.6-0.9,1c-9.7,10.9-15.2,24.9-15.4,39.5v0.1l20.5-17.8l8.5-7.4c0.3-0.2,0.6-0.5,0.9-0.7
		c0.1-0.1,0.2-0.3,0.4-0.4c1.2-1.4,2.5-2.6,3.9-3.8l27-23.4L136.3,69.4z"/>
	<path class="st0" d="M136.8,190.2c-2.4,0-4.7-0.1-7.1-0.4l-0.3,0c-0.5,0-0.9-0.1-1.4-0.2c-8.1-1-15.8-3.5-23-7.4
		c-1.5-0.8-3.1-1.7-4.5-2.7c-10.7-6.9-19.1-16.7-24.3-28.3c-0.5-1.2-1-2.4-1.5-3.6l-1.2-3.3L99.3,122l1.6,8.6
		c2.4,13.2,11.9,23.9,24.7,28l0.3,0.1c10.7,3.3,22.1,1.6,31.4-4.8l0.1-0.1c0.3-0.2,0.5-0.4,0.8-0.5l6-4.4l33.2-28.8
		c0.8-0.7,1.7-1.5,2.6-2.4l0.2-0.2c0.5-0.4,1-1,1.6-1.6l1.3-1.3l24-20.8c0.3-0.3,0.7-0.6,1-0.9c9.4-8.9,13.5-22.2,10.5-34.7
		c-2.2-9.4-8-17.4-16.2-22.6c-8.2-5.1-18-6.7-27.4-4.5c-5.7,1.3-11.1,4.1-15.5,7.9L156,59.2l-3.3-1.7c-6.2-3.3-12.8-5.4-19.8-6.3
		l-0.4-0.1h-13l10.1-8.8l30.3-26.3c1.5-1.3,3-2.5,4.5-3.6c10.3-7.5,22.4-11.8,35.1-12.5c36.5-2.1,67.8,25.8,70,62.3
		c0.1,1.8,0.1,3.6,0.1,5.4l0,0.1c-0.5,18.6-8.8,36.2-22.8,48.4L180.1,174c-0.7,0.6-1.4,1.2-2.2,1.9c-0.5,0.4-1.1,0.9-1.7,1.3
		C164.7,185.7,150.9,190.2,136.8,190.2z M206.8,124.8c-1,1-2,1.9-3,2.8l-60.2,52.2c9.6-1.2,18.7-4.8,26.6-10.7
		c0.5-0.4,1-0.7,1.4-1.1c0.7-0.6,1.3-1,1.8-1.5l0.1-0.1l66.6-57.7c11.9-10.3,19-25.3,19.4-41l0-0.2c0.1-1.5,0-3-0.1-4.5l0,0
		c-0.9-15-7.5-28.8-18.7-38.8c-11.2-10-25.7-15-40.7-14.2c-10.8,0.6-21,4.3-29.8,10.6c-1.3,1-2.6,2-3.9,3.1l-22.5,19.5
		c3.7,1,7.2,2.3,10.6,4l18.4-16c5.6-4.9,12.5-8.4,19.8-10.1c12-2.8,24.4-0.8,34.9,5.8c10.5,6.5,17.8,16.7,20.6,28.8
		c3.8,16-1.4,33-13.4,44.3c-0.4,0.4-0.9,0.8-1.3,1.2l-23.8,20.6l-0.7,0.7C208.3,123.4,207.6,124.2,206.8,124.8z M85.3,147.3
		c4.5,9.8,11.6,18,20.6,23.9c1.2,0.8,2.5,1.6,3.8,2.2c5.8,3.1,12,5.2,18.5,6.1l10.8-9.4c-5.4,0.3-10.8-0.4-16.1-2l-0.3-0.1
		c-13.7-4.3-24.4-14.6-29.4-27.7L85.3,147.3z M70.4,133.9l0-11.1c0.3-15.8,6.2-30.9,16.6-42.7c0.3-0.4,0.7-0.8,1-1.2l0.3-0.3
		l0.7-0.6c0.6-0.4,1.1-0.8,1.7-1.3c13.3-9.7,29.7-14.1,46.1-12.4l0.4,0.1l10.9,1.6l-35.3,30.6c-1.2,1-2.3,2.2-3.4,3.4l-0.1,0.1
		c0,0.1-0.1,0.1-0.1,0.2l-0.4,0.5l-0.5,0.4c-0.2,0.2-0.4,0.3-0.7,0.5L70.4,133.9z M95,86.1c-0.1,0.2-0.3,0.3-0.4,0.5l-0.1,0.1
		c-6.1,6.9-10.4,15.1-12.6,24l19.3-16.8c0.2-0.2,0.4-0.3,0.6-0.5c0,0,0.1-0.1,0.1-0.1c1.3-1.5,2.8-2.9,4.3-4.3l16.9-14.6
		c-9.5,1.1-18.7,4.7-26.6,10.4C96.1,85.2,95.6,85.6,95,86.1L95,86.1z"/>
</g>
<g>
	<path class="st0" d="M145.3,175.7c0.2-0.2,0.4-0.4,0.6-0.6l-0.5,0.4c0.7-0.5,1.4-0.9,2.1-1.3c1-0.6,1.9-1.4,2.5-2.4
		c0.7-1.2,0.3-2.7-0.9-3.4c-0.6-0.3-1.3-0.4-1.9-0.3c-0.6,0.2-1.2,0.6-1.5,1.1c-0.1,0.1-0.1,0.2-0.2,0.3l0.4-0.5
		c-0.2,0.3-0.4,0.5-0.7,0.7l0.5-0.4c-0.6,0.4-1.2,0.8-1.8,1.1c-0.3,0.2-0.6,0.4-0.9,0.6c-0.5,0.3-0.9,0.7-1.3,1.1
		c-0.5,0.5-0.7,1.1-0.7,1.8c0,0.7,0.3,1.3,0.7,1.8C142.8,176.7,144.4,176.7,145.3,175.7L145.3,175.7z"/>
</g>
<g>
	<path class="st0" d="M150.1,171.2c3.6-1,5.5-4.1,8.2-6.4c0.4-0.3-0.5,0.3,0.2-0.2l0.5-0.3c0.4-0.3,0.8-0.5,1.1-0.7
		c0.8-0.5,1.6-0.9,2.4-1.3c1.6-0.8,3.2-1.7,4.8-2.7c1.2-0.7,1.6-2.2,0.9-3.4c-0.7-1.2-2.2-1.6-3.4-0.9c-2.9,2-6.3,3.2-9.1,5.3
		c-1.4,1.1-2.6,2.3-3.8,3.5c-0.3,0.3-0.5,0.5-0.8,0.8l-0.5,0.4c-0.1,0.1-0.4,0.4-0.2,0.1c-0.3,0.2-0.7,0.5-1,0.6
		c-0.1,0.1-0.3,0.1,0,0c-0.2,0.1-0.5,0.2-0.7,0.2c-1.3,0.4-2.1,1.7-1.7,3.1C147.4,170.7,148.7,171.5,150.1,171.2L150.1,171.2z"/>
</g>
<g>
	<path class="st0" d="M165.6,159.7c3.2,0,3.2-5,0-5S162.4,159.7,165.6,159.7z"/>
</g>
<g>
	<path class="st0" d="M167.1,159.1c3.2,0,3.2-5,0-5S163.8,159.1,167.1,159.1z"/>
</g>
<g>
	<path class="st0" d="M141.6,172.9c-0.7,0.5-1.5,1-2.3,1.4c-0.2,0.1-0.4,0.2-0.6,0.3c0.1-0.1,0.5-0.2,0.1-0.1l-0.3,0.1
		c-0.6,0.2-1.2,0.4-1.7,0.7c-0.5,0.3-1,0.6-1.4,1l-0.5,0.5l-0.2,0.2c0,0-0.4,0.3,0,0.1s0,0-0.1,0c-0.1,0.1-0.2,0.1-0.3,0.2l-0.3,0.1
		c-0.3,0.1,0.5-0.1,0.2-0.1s-0.4,0.1-0.6,0.2s-0.5,0.1,0,0s-0.1,0-0.1,0c-1.4,0-2.5,1.1-2.5,2.5s1.1,2.5,2.5,2.5
		c1.2,0,2.4-0.4,3.5-1c0.5-0.3,1-0.7,1.5-1.1l0.5-0.5c0.1,0,0.2-0.2,0.2-0.2c0,0.1-0.4,0.3,0,0.1c0.1-0.1,0.2-0.1,0.3-0.2
		c0.3-0.2-0.5,0.2-0.1,0.1l0.7-0.3c0.6-0.2,1.2-0.5,1.8-0.7c0.9-0.4,1.7-0.9,2.5-1.5c0.5-0.3,1-0.9,1.1-1.5c0.2-0.7,0.1-1.3-0.2-1.9
		C144.4,172.7,142.8,172,141.6,172.9L141.6,172.9z"/>
</g>
</svg>
