<svg id="Layer_1" data-name="Layer 1" xmlns="http://www.w3.org/2000/svg" viewBox="0 0 251.59 273.7"><defs><style>.cls-1{fill:#231f20;}</style></defs><path class="cls-1" d="M491.26,59l-64.52,5.71a10.21,10.21,0,0,0-6,17.71l64.51,59.06A10.22,10.22,0,0,0,502.38,134V69.18A10.21,10.21,0,0,0,491.26,59Z" transform="translate(-250.79 -58.97)"/><rect class="cls-1" x="409.4" y="80.6" width="43.11" height="110.92" rx="10.36" transform="translate(-45.85 -314.25) rotate(42.47)"/><path class="cls-1" d="M261.91,332.63l64.52-5.72a10.22,10.22,0,0,0,6-17.71l-64.52-59.06a10.22,10.22,0,0,0-17.12,7.54v64.77A10.22,10.22,0,0,0,261.91,332.63Z" transform="translate(-250.79 -58.97)"/><rect class="cls-1" x="300.37" y="200.88" width="43.11" height="110.04" rx="10.36" transform="translate(135.82 603.06) rotate(-137.53)"/></svg>