<?xml version="1.0" encoding="utf-8"?>
<!-- Generator: Adobe Illustrator 26.0.3, SVG Export Plug-In . SVG Version: 6.00 Build 0)  -->
<svg version="1.1" id="Layer_1" xmlns="http://www.w3.org/2000/svg" xmlns:xlink="http://www.w3.org/1999/xlink" x="0px" y="0px"
	 viewBox="0 0 487.2 444.4" style="enable-background:new 0 0 487.2 444.4;" xml:space="preserve">
<style type="text/css">
	.st0{fill:#231F20;}
</style>
<g>
	<path class="st0" d="M264.7,444.3c-46.3,0-92.3-14.9-129.9-42.2l-128.3,12c-2.1,0.2-4.2-0.8-5.5-2.5s-1.5-4-0.6-6l53-115.4
		c-7.1-22-10.7-45-10.7-68.1C42.9,162.8,66,107,108,65.1S205.7,0,265.1,0c59.3,0,115.1,23.1,157.1,65.1c42,42,65.1,97.8,65.1,157.1
		c0,59.4-23.1,115.2-65.1,157.1c-42,42-97.8,65.1-157.1,65.1C264.9,444.3,264.8,444.3,264.7,444.3z M136.5,390
		c1.3,0,2.5,0.4,3.6,1.2c35.8,26.5,80,41.2,124.6,41.2c0.1,0,0.2,0,0.3,0c56.2,0,108.9-21.9,148.6-61.5
		c39.7-39.7,61.6-92.5,61.6-148.6c0-56.2-21.9-108.9-61.6-148.6C374,33.9,321.2,12,265.1,12C149.2,12,54.9,106.3,54.9,222.2
		c0,22.7,3.6,45.1,10.8,66.6c0.5,1.4,0.4,3-0.2,4.4L15.8,401.3L136,390C136.2,390,136.4,390,136.5,390z"/>
</g>
<g>
	<path class="st0" d="M329,359.8H204.1v-26.5l5.2-0.7c11.1-1.4,16.5-2.6,18.6-5.4c2.6-3.4,3.1-12,3.1-25.6v-87.8
		c0-12.9-0.4-21-2.7-24.2c-1.7-2.4-6.1-3.3-15.5-4.5l-5.2-0.7V159l5.3-0.6c27.1-3.1,54.2-8.4,80.5-16l7.7-2.2v161.4
		c0,12,0.2,21.4,3,25.2c2.3,3.1,8.7,4.5,19.6,5.8l5.3,0.6V359.8z M216.1,347.8H317v-4c-10.2-1.5-17.9-3.6-22.6-9.9
		c-5-6.7-5.3-16.7-5.3-32.3V156.1c-22.8,6.2-46.1,10.7-69.5,13.6v4.3c7.6,1.2,14.4,3,18.5,8.8c4.2,5.9,4.9,14.4,4.9,31.1v87.8
		c0,17.7-0.8,26.6-5.6,32.9c-4.5,5.8-11.2,7.7-21.4,9.3V347.8z M262.8,126.8c-20.8,0-38.4-17.4-38.4-38c0-20.9,17.4-37.9,38.9-37.9
		c21.5,0,38.4,16.7,38.4,37.9C301.6,109.7,284.2,126.8,262.8,126.8z M263.2,62.9c-15.1,0-26.9,11.4-26.9,25.9
		c0,13.8,12.3,26,26.4,26c15.1,0,26.8-11.4,26.8-26C289.6,74,278.2,62.9,263.2,62.9z"/>
</g>
</svg>
