<svg id="Layer_1" data-name="Layer 1" xmlns="http://www.w3.org/2000/svg" viewBox="0 0 487.24 444.35"><defs><style>.cls-1,.cls-2{fill:none;stroke:#231f20;stroke-width:12px;}.cls-1{stroke-linejoin:round;}.cls-2{stroke-miterlimit:10;}</style></defs><path class="cls-1" d="M537.84,236.4c-119.39,0-216.18,96.79-216.18,216.18a215.81,215.81,0,0,0,11.09,68.49l-54,117.53,130.56-12.19a215.12,215.12,0,0,0,128.51,42.34C657.23,668.75,754,572,754,452.58S657.23,236.4,537.84,236.4Z" transform="translate(-272.77 -230.4)"/><path class="cls-2" d="M482.87,584.25V569c24.3-3.15,27-5,27-36.9V444.3c0-30.15-2.25-31.95-23.4-34.65V394.8a492.37,492.37,0,0,0,81.45-16.2V532.05c0,30.6,1.8,33.75,27.9,36.9v15.3Zm52.65-233.1c-17.1,0-32.4-14.4-32.4-31.95,0-18.45,15.3-31.95,32.85-31.95,18,0,32.4,13.5,32.4,31.95C568.37,336.75,554,351.15,535.52,351.15Z" transform="translate(-272.77 -230.4)"/></svg>