<svg id="Layer_2" data-name="Layer 2" xmlns="http://www.w3.org/2000/svg" viewBox="0 0 315.01 230.14"><defs><style>.cls-1{fill:#231f20;}.cls-2{fill:#fff;}</style></defs><path class="cls-1" d="M465.18,606.59a6.41,6.41,0,0,1,.47,2.43,6.48,6.48,0,0,1-.85,3.21,5.91,5.91,0,0,1-.66.94l-2.51-1.71a3.42,3.42,0,0,0,.88-3.42Z" transform="translate(-150.64 -528.56)"/><path class="cls-1" d="M465.18,616.82a6.5,6.5,0,0,1-.38,5.64,6.25,6.25,0,0,1-1.08,1.4l-2.58-1.77a3.41,3.41,0,0,0,1.37-3.82Z" transform="translate(-150.64 -528.56)"/><path class="cls-1" d="M465,595.11a6.49,6.49,0,0,1,.7,2.94,6.42,6.42,0,0,1-.85,3.2,6,6,0,0,1-1.08,1.4l-2.58-1.76a3.43,3.43,0,0,0,0-5.69l-93.61-63.05A3.45,3.45,0,0,0,364,532l-65.13,35.27-2.18-1.74-1.76,1-20,11.17a7.21,7.21,0,0,0,.15-.93l19.64-10.64,38.25-20.71c.61-.34,1.08-.59,1.4-.78l28.21-15.26a6.44,6.44,0,0,1,6.67.32l93.6,63.05A6.46,6.46,0,0,1,465,595.11Z" transform="translate(-150.64 -528.56)"/><path class="cls-1" d="M464.26,627.17a6.23,6.23,0,0,1,.48,2.43,6.48,6.48,0,0,1-.85,3.21,5.91,5.91,0,0,1-.66.94l-2.5-1.71a3.46,3.46,0,0,0,.87-3.42Z" transform="translate(-150.64 -528.56)"/><path class="cls-1" d="M464.26,637.4a6.23,6.23,0,0,1,.48,2.43,6.48,6.48,0,0,1-.85,3.21,6.33,6.33,0,0,1-2.52,2.45l-68,36.84-.12-1.53-.14-1.74,66.85-36.2a3.44,3.44,0,0,0,1.66-4Z" transform="translate(-150.64 -528.56)"/><path class="cls-1" d="M461.63,611.46l2.51,1.71a5.88,5.88,0,0,1-1,1,3.55,3.55,0,0,0-.31-.23l-2.41-1.63.45-.24A3.3,3.3,0,0,0,461.63,611.46Z" transform="translate(-150.64 -528.56)"/><path class="cls-1" d="M461.14,600.89l2.58,1.76a6.46,6.46,0,0,1-1.13.88l-2.8-1.89,1.06-.57A2.82,2.82,0,0,0,461.14,600.89Z" transform="translate(-150.64 -528.56)"/><path class="cls-1" d="M461.14,622.09l2.58,1.77a6.57,6.57,0,0,1-1.18.9,5.23,5.23,0,0,0-.64-.5l-2.1-1.41,1.05-.57A1.81,1.81,0,0,0,461.14,622.09Z" transform="translate(-150.64 -528.56)"/><path class="cls-1" d="M460.73,632l2.5,1.71a5.88,5.88,0,0,1-1,1,3.55,3.55,0,0,0-.31-.23l-2.41-1.62.45-.25a3,3,0,0,0,.78-.58Z" transform="translate(-150.64 -528.56)"/><path class="cls-1" d="M462.81,613.91a3.55,3.55,0,0,1,.31.23,6,6,0,0,1-.84.54l-2,1.11-2.81-1.89,3-1.62Z" transform="translate(-150.64 -528.56)"/><path class="cls-1" d="M462.51,608a3.42,3.42,0,0,1-.88,3.42l-2.4-1.64Z" transform="translate(-150.64 -528.56)"/><path class="cls-1" d="M462.59,603.53l-.31.18-2.66,1.44-2.81-1.89,3-1.62Z" transform="translate(-150.64 -528.56)"/><path class="cls-1" d="M462.51,618.27a3.41,3.41,0,0,1-1.37,3.82l-2.51-1.72Z" transform="translate(-150.64 -528.56)"/><path class="cls-1" d="M462.54,624.76l-.26.15-2.66,1.44-2.8-1.89,3-1.61,2.1,1.41A5.23,5.23,0,0,1,462.54,624.76Z" transform="translate(-150.64 -528.56)"/><path class="cls-1" d="M461.9,634.49a3.55,3.55,0,0,1,.31.23,6,6,0,0,1-.84.54l-2.05,1.11-2.81-1.89,3-1.61Z" transform="translate(-150.64 -528.56)"/><path class="cls-1" d="M461.6,628.62a3.46,3.46,0,0,1-.87,3.42h0l-2.4-1.64Z" transform="translate(-150.64 -528.56)"/><path class="cls-1" d="M461.6,638.85a3.44,3.44,0,0,1-1.66,4l-66.85,36.2-.23-2.94Z" transform="translate(-150.64 -528.56)"/><path class="cls-1" d="M459.23,609.82l2.4,1.64a3.3,3.3,0,0,1-.78.58l-.45.24-2.55-1.71Z" transform="translate(-150.64 -528.56)"/><path class="cls-1" d="M461.14,595.2a3.43,3.43,0,0,1,0,5.69L458.37,599l1.05-.57a.35.35,0,0,0,.18-.15l0-.23,0-.21-.15-.15-93.61-63.06-.24-.07-.21.05-64,34.66-2.55-2L364,532a3.45,3.45,0,0,1,3.56.18Z" transform="translate(-150.64 -528.56)"/><path class="cls-1" d="M458.37,599l2.77,1.89a2.82,2.82,0,0,1-.29.18l-1.06.57L457,599.75Z" transform="translate(-150.64 -528.56)"/><path class="cls-1" d="M458.63,620.37l2.51,1.72a1.81,1.81,0,0,1-.29.19l-1.05.57-2.56-1.73Z" transform="translate(-150.64 -528.56)"/><path class="cls-1" d="M458.32,630.4l2.4,1.64a3,3,0,0,1-.78.58l-.45.25-2.55-1.72Z" transform="translate(-150.64 -528.56)"/><polygon class="cls-1" points="309.76 83.72 306.78 85.34 304.23 83.62 307.21 82.01 309.76 83.72"/><polygon class="cls-1" points="309.59 87.23 306.61 88.84 303.8 86.95 306.78 85.34 309.59 87.23"/><polygon class="cls-1" points="309.16 94.29 306.18 95.9 303.63 94.18 306.6 92.56 309.16 94.29"/><polygon class="cls-1" points="309.15 73.08 306.17 74.7 303.36 72.8 306.34 71.19 309.15 73.08"/><polygon class="cls-1" points="308.98 76.59 306 78.2 303.19 76.31 306.17 74.7 308.98 76.59"/><polygon class="cls-1" points="308.98 97.79 306.01 99.4 303.21 97.51 306.18 95.9 308.98 97.79"/><polygon class="cls-1" points="308.85 104.31 305.87 105.92 303.32 104.2 306.3 102.59 308.85 104.31"/><polygon class="cls-1" points="308.68 107.81 305.7 109.42 302.89 107.53 305.87 105.92 308.68 107.81"/><polygon class="cls-1" points="306.78 85.34 303.8 86.95 301.26 85.24 304.23 83.62 306.78 85.34"/><polygon class="cls-1" points="306.61 88.84 304.95 89.74 302.17 87.84 303.8 86.95 306.61 88.84"/><polygon class="cls-1" points="306.18 95.9 303.21 97.51 300.65 95.79 303.63 94.18 306.18 95.9"/><polygon class="cls-1" points="306.17 74.7 303.19 76.31 300.38 74.42 303.36 72.8 306.17 74.7"/><polygon class="cls-1" points="306.01 99.4 304.95 99.97 302.17 98.07 303.21 97.51 306.01 99.4"/><polygon class="cls-1" points="306 78.2 304.96 78.77 302.17 76.87 303.19 76.31 306 78.2"/><polygon class="cls-1" points="305.87 105.92 302.89 107.53 300.35 105.82 303.32 104.2 305.87 105.92"/><polygon class="cls-1" points="305.7 109.42 241.94 143.95 241.68 140.68 302.89 107.53 305.7 109.42"/><polygon class="cls-1" points="304.96 78.77 303.54 79.54 300.73 77.64 302.17 76.87 304.96 78.77"/><polygon class="cls-1" points="304.95 89.74 303.55 90.5 300.74 88.61 302.17 87.84 304.95 89.74"/><polygon class="cls-1" points="304.95 99.97 303.55 100.73 300.74 98.85 302.17 98.07 304.95 99.97"/><polygon class="cls-1" points="303.8 86.95 302.17 87.84 299.64 86.11 301.26 85.24 303.8 86.95"/><polygon class="cls-1" points="303.55 90.5 300.57 92.12 297.76 90.22 300.74 88.61 303.55 90.5"/><polygon class="cls-1" points="303.55 100.73 300.57 102.35 297.76 100.46 300.74 98.85 303.55 100.73"/><polygon class="cls-1" points="303.54 79.54 300.56 81.15 297.75 79.26 300.73 77.64 303.54 79.54"/><polygon class="cls-1" points="303.21 97.51 302.17 98.07 299.64 96.34 300.65 95.79 303.21 97.51"/><polygon class="cls-1" points="303.19 76.31 302.17 76.87 299.38 74.96 300.38 74.42 303.19 76.31"/><polygon class="cls-1" points="302.89 107.53 241.68 140.68 241.45 137.75 300.35 105.82 302.89 107.53"/><polygon class="cls-1" points="302.17 76.87 300.73 77.64 297.92 75.75 299.38 74.96 302.17 76.87"/><polygon class="cls-1" points="302.17 87.84 300.74 88.61 298.19 86.9 299.64 86.11 302.17 87.84"/><polygon class="cls-1" points="302.17 98.07 300.74 98.85 298.19 97.13 299.64 96.34 302.17 98.07"/><polygon class="cls-1" points="300.74 88.61 297.76 90.22 295.21 88.51 298.19 86.9 300.74 88.61"/><polygon class="cls-1" points="300.74 98.85 297.76 100.46 295.21 98.74 298.19 97.13 300.74 98.85"/><polygon class="cls-1" points="300.73 77.64 297.75 79.26 294.94 77.36 297.92 75.75 300.73 77.64"/><polygon class="cls-1" points="300.57 92.12 297.59 93.73 294.78 91.84 297.76 90.22 300.57 92.12"/><polygon class="cls-1" points="300.57 102.35 297.59 103.96 294.79 102.07 297.76 100.46 300.57 102.35"/><polygon class="cls-1" points="300.56 81.15 297.58 82.76 294.77 80.87 297.75 79.26 300.56 81.15"/><polygon class="cls-1" points="297.76 90.22 294.78 91.84 292.24 90.12 295.21 88.51 297.76 90.22"/><polygon class="cls-1" points="297.76 100.46 294.79 102.07 292.24 100.35 295.21 98.74 297.76 100.46"/><polygon class="cls-1" points="297.75 79.26 294.77 80.87 291.96 78.98 294.94 77.36 297.75 79.26"/><polygon class="cls-1" points="297.59 93.73 296.6 94.26 293.81 92.36 294.78 91.84 297.59 93.73"/><polygon class="cls-1" points="297.59 103.96 241.19 134.5 240.93 131.23 294.79 102.07 297.59 103.96"/><polygon class="cls-1" points="297.58 82.76 296 83.62 293.21 81.72 294.77 80.87 297.58 82.76"/><polygon class="cls-1" points="296.6 94.26 295.13 95.06 292.32 93.17 293.81 92.36 296.6 94.26"/><polygon class="cls-1" points="296 83.62 294.52 84.42 291.71 82.53 293.21 81.72 296 83.62"/><polygon class="cls-1" points="295.13 95.06 292.15 96.68 289.34 94.78 292.32 93.17 295.13 95.06"/><polygon class="cls-1" points="294.79 102.07 240.93 131.23 240.7 128.3 292.24 100.35 294.79 102.07"/><polygon class="cls-1" points="294.78 91.84 293.81 92.36 291.29 90.64 292.24 90.12 294.78 91.84"/><polygon class="cls-1" points="294.77 80.87 293.21 81.72 290.42 79.81 291.96 78.98 294.77 80.87"/><polygon class="cls-1" points="294.52 84.42 291.54 86.04 288.73 84.14 291.71 82.53 294.52 84.42"/><polygon class="cls-1" points="293.81 92.36 292.32 93.17 289.78 91.46 291.29 90.64 293.81 92.36"/><polygon class="cls-1" points="293.21 81.72 291.71 82.53 288.9 80.64 290.42 79.81 293.21 81.72"/><polygon class="cls-1" points="292.32 93.17 289.34 94.78 286.8 93.07 289.78 91.46 292.32 93.17"/><polygon class="cls-1" points="292.15 96.68 289.17 98.29 286.36 96.4 289.34 94.78 292.15 96.68"/><polygon class="cls-1" points="291.71 82.53 288.73 84.14 285.92 82.25 288.9 80.64 291.71 82.53"/><polygon class="cls-1" points="291.54 86.04 288.56 87.65 285.75 85.76 288.73 84.14 291.54 86.04"/><polygon class="cls-1" points="289.34 94.78 286.36 96.4 283.82 94.69 286.8 93.07 289.34 94.78"/><polygon class="cls-1" points="289.17 98.29 240.41 124.69 240.16 121.42 286.36 96.4 289.17 98.29"/><polygon class="cls-1" points="288.73 84.14 285.75 85.76 282.94 83.86 285.92 82.25 288.73 84.14"/><polygon class="cls-1" points="288.56 87.65 287.65 88.14 284.86 86.24 285.75 85.76 288.56 87.65"/><polygon class="cls-1" points="287.65 88.14 286.1 88.98 283.29 87.09 284.86 86.24 287.65 88.14"/><polygon class="cls-1" points="286.36 96.4 240.16 121.42 239.92 118.49 283.82 94.69 286.36 96.4"/><polygon class="cls-1" points="286.1 88.98 283.12 90.6 280.31 88.7 283.29 87.09 286.1 88.98"/><polygon class="cls-1" points="285.75 85.76 284.86 86.24 282.07 84.33 282.94 83.86 285.75 85.76"/><polygon class="cls-1" points="284.86 86.24 283.29 87.09 280.48 85.2 282.07 84.33 284.86 86.24"/><polygon class="cls-1" points="283.29 87.09 280.31 88.7 277.5 86.81 280.48 85.2 283.29 87.09"/><polygon class="cls-1" points="283.12 90.6 280.14 92.21 277.33 90.31 280.31 88.7 283.12 90.6"/><polygon class="cls-1" points="280.31 88.7 277.33 90.31 274.52 88.42 277.5 86.81 280.31 88.7"/><polygon class="cls-1" points="280.14 92.21 239.58 114.17 239.54 113.66 241.1 112.79 239.37 111.41 239.32 110.9 277.33 90.31 280.14 92.21"/><polygon class="cls-1" points="277.33 90.31 239.32 110.9 239.16 108.81 237.33 109.78 236.42 109.06 274.52 88.42 277.33 90.31"/><polygon class="cls-1" points="242.71 153.77 242.74 154.21 209.55 171.72 242.71 153.77"/><polygon class="cls-1" points="242.59 152.24 242.71 153.77 209.55 171.72 209.37 171.82 209.25 171.89 209.21 171.91 209.19 171.92 209.18 171.92 209.09 171.97 208.64 172.21 176.97 188.92 176.75 186.07 207.24 169.56 207.69 169.32 207.76 169.28 208.29 169 239.6 152.48 239.57 152.06 242.45 150.5 242.59 152.24"/><polygon class="cls-1" points="242.22 147.56 242.45 150.5 239.57 152.06 239.34 149.13 242.22 147.56"/><polygon class="cls-1" points="242.19 147.22 242.22 147.56 239.34 149.13 239.31 148.79 242.19 147.22"/><polygon class="cls-1" points="241.94 143.95 242.19 147.22 239.31 148.79 239.05 145.52 241.94 143.95"/><polygon class="cls-1" points="241.68 140.68 241.94 143.95 239.05 145.52 238.79 142.24 241.68 140.68"/><polygon class="cls-1" points="241.45 137.75 241.68 140.68 238.79 142.24 238.56 139.32 241.45 137.75"/><polygon class="cls-1" points="241.42 137.41 241.45 137.75 238.56 139.32 238.53 138.97 241.42 137.41"/><polygon class="cls-1" points="241.19 134.5 241.42 137.41 238.53 138.97 238.3 136.06 241.19 134.5"/><polygon class="cls-1" points="240.93 131.23 241.19 134.5 238.3 136.06 238.05 132.8 240.93 131.23"/><polygon class="cls-1" points="241.1 112.79 239.54 113.66 239.37 111.41 241.1 112.79"/><polygon class="cls-1" points="240.7 128.3 240.93 131.23 238.05 132.8 237.81 129.87 240.7 128.3"/><polygon class="cls-1" points="240.67 127.96 240.7 128.3 237.81 129.87 237.79 129.53 240.67 127.96"/><polygon class="cls-1" points="240.41 124.69 240.67 127.96 237.79 129.53 237.53 126.25 240.41 124.69"/><polygon class="cls-1" points="240.16 121.42 240.41 124.69 237.53 126.25 237.27 122.98 240.16 121.42"/><polygon class="cls-1" points="239.92 118.49 240.16 121.42 237.27 122.98 237.04 120.06 239.92 118.49"/><polygon class="cls-1" points="239.9 118.15 239.92 118.49 237.04 120.06 237.01 119.71 239.9 118.15"/><polygon class="cls-1" points="239.58 114.17 239.9 118.15 237.01 119.71 236.7 115.73 239.58 114.17"/><polygon class="cls-1" points="239.57 152.06 239.6 152.48 208.29 169 238.65 152.55 239.42 152.14 239.57 152.06"/><polygon class="cls-1" points="239.54 113.66 239.58 114.17 236.7 115.73 236.66 115.27 239.54 113.66"/><polygon class="cls-1" points="239.34 149.13 239.57 152.06 239.42 152.14 238.65 152.55 208.29 169 207.76 169.28 207.69 169.32 207.24 169.56 179.6 184.14 179.4 181.63 232.96 152.59 236.45 150.74 236.45 150.69 239.34 149.13"/><polygon class="cls-1" points="239.37 111.41 239.54 113.66 236.66 115.27 236.53 113.6 181.39 142.69 206.63 128.6 238.97 111.09 239.37 111.41"/><polygon class="cls-1" points="239.32 110.9 239.37 111.41 238.97 111.09 239.32 110.9"/><polygon class="cls-1" points="239.31 148.79 239.34 149.13 236.45 150.69 236.42 150.35 239.31 148.79"/><polygon class="cls-1" points="239.16 108.81 239.32 110.9 238.97 111.09 237.33 109.78 239.16 108.81"/><polygon class="cls-1" points="239.05 145.52 239.31 148.79 236.42 150.35 236.17 147.08 239.05 145.52"/><polygon class="cls-1" points="238.79 142.24 239.05 145.52 236.17 147.08 235.91 143.8 238.79 142.24"/><polygon class="cls-1" points="238.97 111.09 206.63 128.6 235.74 112.35 234.43 111.31 237.33 109.78 238.97 111.09"/><polygon class="cls-1" points="238.56 139.32 238.79 142.24 235.91 143.8 235.68 140.88 238.56 139.32"/><polygon class="cls-1" points="238.53 138.97 238.56 139.32 235.68 140.88 235.65 140.54 238.53 138.97"/><polygon class="cls-1" points="238.3 136.06 238.53 138.97 235.65 140.54 235.42 137.63 238.3 136.06"/><polygon class="cls-1" points="238.05 132.8 238.3 136.06 235.42 137.63 235.16 134.36 238.05 132.8"/><polygon class="cls-1" points="237.81 129.87 238.05 132.8 235.16 134.36 234.93 131.43 237.81 129.87"/><polygon class="cls-1" points="237.79 129.53 237.81 129.87 234.93 131.43 234.9 131.09 237.79 129.53"/><polygon class="cls-1" points="237.53 126.25 237.79 129.53 234.9 131.09 234.64 127.82 237.53 126.25"/><polygon class="cls-1" points="237.27 122.98 237.53 126.25 234.64 127.82 234.39 124.54 237.27 122.98"/><polygon class="cls-1" points="237.33 109.78 234.43 111.31 233.56 110.61 236.42 109.06 237.33 109.78"/><polygon class="cls-1" points="237.04 120.06 237.27 122.98 234.39 124.54 234.16 121.62 237.04 120.06"/><polygon class="cls-1" points="237.01 119.71 237.04 120.06 234.16 121.62 234.13 121.27 237.01 119.71"/><polygon class="cls-1" points="236.7 115.73 237.01 119.71 234.13 121.27 233.9 118.38 182.75 145.37 207.38 131.62 207.43 131.59 207.55 131.52 207.72 131.43 236.7 115.73"/><polygon class="cls-1" points="236.66 115.27 236.7 115.73 207.72 131.43 236.66 115.27"/><polygon class="cls-1" points="236.53 113.6 236.66 115.27 207.72 131.43 207.55 131.52 207.43 131.59 207.38 131.62 176.77 148.19 176.54 145.26 176.93 145.05 177.03 145.13 181.23 142.78 181.39 142.69 236.53 113.6"/><polygon class="cls-1" points="236.42 109.06 233.56 110.61 178.72 66.87 181.58 65.31 236.42 109.06"/><polygon class="cls-1" points="235.74 112.35 206.63 128.6 176.66 144.83 174.37 143.01 177.27 141.48 177.33 141.53 179.85 140.12 179.95 140.07 234.43 111.31 235.74 112.35"/><polygon class="cls-1" points="234.43 111.31 179.95 140.07 205.37 125.87 205.56 125.76 233.56 110.61 234.43 111.31"/><polygon class="cls-1" points="233.56 110.61 205.56 125.76 230.37 111.91 175.85 68.42 178.71 66.87 178.72 66.87 233.56 110.61"/><polygon class="cls-1" points="232.96 152.59 179.4 181.63 179.37 181.24 206.72 166.44 232.96 152.59"/><path class="cls-1" d="M359.28,700.77,253.75,757.92a6.42,6.42,0,0,1-6.66-.32l-93.61-63.05a6.46,6.46,0,0,1-2-8.55l.09-.15,2.48,1.7a3.45,3.45,0,0,0,1.1,4.51l93.6,63.05a3.43,3.43,0,0,0,3.56.17l75.07-40.65.22,2.85Z" transform="translate(-150.64 -528.56)"/><polygon class="cls-1" points="207.38 131.62 182.75 145.37 182.71 145.39 179.68 146.99 179.69 147.08 176.81 148.69 176.77 148.19 207.38 131.62"/><polygon class="cls-1" points="207.24 169.56 176.75 186.07 176.52 183.19 179.4 181.63 179.6 184.14 207.24 169.56"/><polygon class="cls-1" points="206.72 166.44 179.37 181.24 179.11 177.97 182 176.41 182.23 179.36 206.72 166.44"/><polygon class="cls-1" points="206.63 128.6 181.39 142.69 181.23 142.78 176.93 145.05 176.66 144.83 206.63 128.6"/><polygon class="cls-1" points="181.74 173.14 182 176.41 179.11 177.97 178.86 174.7 181.74 173.14"/><polygon class="cls-1" points="181.51 170.25 181.74 173.14 178.86 174.7 178.63 171.82 181.51 170.25"/><polygon class="cls-1" points="181.58 65.31 178.72 66.87 178.71 66.87 176.16 64.83 179.04 63.28 181.58 65.31"/><polygon class="cls-1" points="181.48 169.87 181.51 170.25 178.63 171.82 178.6 171.43 181.48 169.87"/><polygon class="cls-1" points="181.25 166.96 181.48 169.87 178.6 171.43 178.37 168.52 181.25 166.96"/><polygon class="cls-1" points="181 163.69 181.25 166.96 178.37 168.52 178.11 165.25 181 163.69"/><polygon class="cls-1" points="181.23 142.78 177.03 145.13 176.93 145.05 181.23 142.78"/><polygon class="cls-1" points="180.77 160.8 181 163.69 178.11 165.25 177.89 162.36 180.77 160.8"/><polygon class="cls-1" points="180.74 160.42 180.77 160.8 177.89 162.36 177.86 161.98 180.74 160.42"/><polygon class="cls-1" points="180.48 157.15 180.74 160.42 177.86 161.98 177.6 158.71 180.48 157.15"/><polygon class="cls-1" points="180.22 153.87 180.48 157.15 177.6 158.71 177.34 155.43 180.22 153.87"/><polygon class="cls-1" points="180 150.99 180.22 153.87 177.34 155.43 177.11 152.55 180 150.99"/><polygon class="cls-1" points="179.96 150.6 180 150.99 177.11 152.55 177.08 152.16 179.96 150.6"/><polygon class="cls-1" points="179.69 147.08 179.96 150.6 177.08 152.16 176.81 148.69 179.69 147.08"/><polygon class="cls-1" points="179.85 140.12 177.33 141.53 177.27 141.48 179.85 140.12"/><polygon class="cls-1" points="179.37 181.24 179.4 181.63 176.52 183.19 176.49 182.81 179.37 181.24"/><polygon class="cls-1" points="179.11 177.97 179.37 181.24 176.49 182.81 176.23 179.53 179.11 177.97"/><polygon class="cls-1" points="178.86 174.7 179.11 177.97 176.23 179.53 175.97 176.26 178.86 174.7"/><polygon class="cls-1" points="179.04 63.28 176.16 64.83 173.62 62.8 176.48 61.24 176.49 61.24 179.04 63.28"/><polygon class="cls-1" points="178.63 171.82 178.86 174.7 175.97 176.26 175.74 173.38 178.63 171.82"/><polygon class="cls-1" points="178.71 66.87 175.85 68.42 173.3 66.38 176.16 64.83 178.71 66.87"/><polygon class="cls-1" points="178.6 171.43 178.63 171.82 175.74 173.38 175.71 172.99 178.6 171.43"/><polygon class="cls-1" points="178.37 168.52 178.6 171.43 175.71 172.99 175.48 170.08 178.37 168.52"/><polygon class="cls-1" points="178.11 165.25 178.37 168.52 175.48 170.08 175.23 166.81 178.11 165.25"/><polygon class="cls-1" points="177.89 162.36 178.11 165.25 175.23 166.81 175 163.93 177.89 162.36"/><polygon class="cls-1" points="177.86 161.98 177.89 162.36 175 163.93 174.97 163.54 177.86 161.98"/><polygon class="cls-1" points="177.6 158.71 177.86 161.98 174.97 163.54 174.71 160.27 177.6 158.71"/><polygon class="cls-1" points="177.34 155.43 177.6 158.71 174.71 160.27 174.45 157 177.34 155.43"/><polygon class="cls-1" points="177.11 152.55 177.34 155.43 174.45 157 174.23 154.12 177.11 152.55"/><polygon class="cls-1" points="177.27 141.48 174.37 143.01 174.11 142.8 176.98 141.25 177.27 141.48"/><polygon class="cls-1" points="177.08 152.16 177.11 152.55 174.23 154.12 174.19 153.73 177.08 152.16"/><polygon class="cls-1" points="176.81 148.69 177.08 152.16 174.19 153.73 173.88 149.75 176.34 148.42 176.73 148.73 176.81 148.69"/><polygon class="cls-1" points="176.98 141.25 174.11 142.8 119.27 99.05 122.13 97.5 176.98 141.25"/><polygon class="cls-1" points="176.93 145.05 176.54 145.26 176.77 148.19 176.34 148.42 173.79 146.39 176.66 144.83 176.93 145.05"/><polygon class="cls-1" points="176.77 148.19 176.81 148.69 176.73 148.73 176.34 148.42 176.77 148.19"/><path class="cls-1" d="M327.16,711.75l.23,2.88-75.07,40.65a3.43,3.43,0,0,1-3.56-.17l-93.6-63.05a3.45,3.45,0,0,1-1.1-4.51l2.61,1.78,0,.08.14.16,13.22,8.91,80.34,54.9Z" transform="translate(-150.64 -528.56)"/><polygon class="cls-1" points="176.66 144.83 173.79 146.39 173.6 146.24 173.6 146.23 173.39 143.53 174.37 143.01 176.66 144.83"/><polygon class="cls-1" points="176.48 61.24 173.62 62.8 171.64 61.22 174.5 59.66 174.51 59.66 176.48 61.24"/><polygon class="cls-1" points="176.34 148.42 173.88 149.75 173.62 146.48 173.79 146.39 176.34 148.42"/><path class="cls-1" d="M326.61,704.82l.26,3.27-73.12,39.6a6.42,6.42,0,0,1-6.66-.32l-88.4-59.54,3-1.61,87.09,58.66a3.43,3.43,0,0,0,3.56.17Z" transform="translate(-150.64 -528.56)"/><polygon class="cls-1" points="176.16 64.83 173.3 66.38 170.75 64.35 173.62 62.8 176.16 64.83"/><path class="cls-1" d="M326.38,701.94l.23,2.88-74.29,40.23a3.43,3.43,0,0,1-3.56-.17l-87.09-58.66,3-1.61,5.4,3.64,80.34,54.9Z" transform="translate(-150.64 -528.56)"/><path class="cls-1" d="M325.87,695.37l.25,3.27-71.45,38.7A6.44,6.44,0,0,1,248,737l-80.28-54.08,3-1.61,79,53.2a3.43,3.43,0,0,0,3.56.17Z" transform="translate(-150.64 -528.56)"/><path class="cls-1" d="M325.64,692.49l.23,2.88L253.24,734.7a3.43,3.43,0,0,1-3.56-.17l-79-53.2,3-1.6L251.3,732.8Z" transform="translate(-150.64 -528.56)"/><path class="cls-1" d="M325.09,685.56l.26,3.27-70.68,38.28a6.44,6.44,0,0,1-6.67-.32l-71.86-48.4,3-1.62,70.56,47.53a3.43,3.43,0,0,0,3.56.17Z" transform="translate(-150.64 -528.56)"/><polygon class="cls-1" points="174.5 59.66 171.64 61.22 171.07 60.77 173.94 59.21 174.5 59.66"/><path class="cls-1" d="M324.87,682.68l.22,2.88-71.85,38.91a3.43,3.43,0,0,1-3.56-.17l-70.56-47.53,2.89-1.56,69.29,47.36Z" transform="translate(-150.64 -528.56)"/><polygon class="cls-1" points="174.37 143.01 173.39 143.53 173.6 146.23 171.24 144.35 174.11 142.8 174.37 143.01"/><polygon class="cls-1" points="174.11 142.8 171.24 144.35 116.4 100.6 119.27 99.05 174.11 142.8"/><polygon class="cls-1" points="173.94 59.21 171.07 60.77 168.52 58.74 171.39 57.18 171.4 57.18 173.94 59.21"/><path class="cls-1" d="M324.26,675l.26,3.27-69.85,37.83a6.44,6.44,0,0,1-6.67-.32L185.17,673.5l3-1.62h0l61.53,41.45a3.45,3.45,0,0,0,3.56.17Z" transform="translate(-150.64 -528.56)"/><polygon class="cls-1" points="173.79 146.39 173.62 146.48 173.6 146.24 173.79 146.39"/><path class="cls-1" d="M324.24,674.8l0,.24-71,38.46a3.45,3.45,0,0,1-3.56-.17l-61.53-41.45,3-1.61,60.22,40.57.25.08.21-.06,70.07-38,2.36,1.88Z" transform="translate(-150.64 -528.56)"/><polygon class="cls-1" points="173.62 62.8 170.75 64.35 168.77 62.77 171.64 61.22 173.62 62.8"/><polygon class="cls-1" points="171.64 61.22 168.77 62.77 168.2 62.32 171.07 60.77 171.64 61.22"/><polygon class="cls-1" points="171.39 57.18 168.52 58.74 165.98 56.71 168.85 55.15 171.39 57.18"/><polygon class="cls-1" points="171.07 60.77 168.2 62.32 165.66 60.29 168.52 58.74 171.07 60.77"/><polygon class="cls-1" points="168.85 55.15 165.98 56.71 164 55.13 166.87 53.57 168.85 55.15"/><polygon class="cls-1" points="168.52 58.74 165.66 60.29 163.11 58.26 165.98 56.71 168.52 58.74"/><polygon class="cls-1" points="166.87 53.57 164 55.13 163.99 55.13 163.71 54.9 166.58 53.35 166.59 53.35 166.87 53.57"/><polygon class="cls-1" points="166.58 53.35 163.71 54.9 161.17 52.87 164.04 51.31 166.58 53.35"/><polygon class="cls-1" points="165.98 56.71 163.11 58.26 161.13 56.68 163.99 55.13 164 55.13 165.98 56.71"/><polygon class="cls-1" points="164.04 51.31 161.17 52.87 158.62 50.84 161.49 49.28 164.04 51.31"/><polygon class="cls-1" points="163.99 55.13 161.13 56.68 160.85 56.45 163.71 54.9 163.99 55.13"/><polygon class="cls-1" points="163.71 54.9 160.85 56.45 158.3 54.42 161.17 52.87 163.71 54.9"/><polygon class="cls-1" points="161.49 49.28 158.62 50.84 156.65 49.27 159.52 47.71 161.49 49.28"/><polygon class="cls-1" points="161.17 52.87 158.3 54.42 155.76 52.39 158.62 50.84 161.17 52.87"/><polygon class="cls-1" points="159.52 47.71 156.65 49.27 156.07 48.8 158.94 47.25 159.52 47.71"/><polygon class="cls-1" points="158.94 47.25 156.07 48.8 153.52 46.77 156.4 45.22 158.94 47.25"/><polygon class="cls-1" points="158.62 50.84 155.76 52.39 155.75 52.39 153.79 50.82 156.65 49.27 158.62 50.84"/><polygon class="cls-1" points="156.65 49.27 153.79 50.82 153.21 50.35 156.07 48.8 156.65 49.27"/><polygon class="cls-1" points="156.4 45.22 153.52 46.77 150.98 44.74 153.85 43.19 156.4 45.22"/><polygon class="cls-1" points="156.07 48.8 153.21 50.35 153.2 50.35 150.66 48.32 153.52 46.77 156.07 48.8"/><polygon class="cls-1" points="153.85 43.19 150.98 44.74 149.01 43.17 151.88 41.61 153.85 43.19"/><polygon class="cls-1" points="153.52 46.77 150.66 48.32 148.12 46.29 150.98 44.74 153.52 46.77"/><polygon class="cls-1" points="151.88 41.61 149.01 43.17 147.88 42.27 150.75 40.71 151.88 41.61"/><polygon class="cls-1" points="150.98 44.74 148.12 46.29 146.15 44.72 149.01 43.17 150.98 44.74"/><path class="cls-1" d="M301.39,569.27l-2.87,1.56-2.16-1.72L274.6,581.26a6.7,6.7,0,0,0-.24-.76l24.48-13.26Z" transform="translate(-150.64 -528.56)"/><path class="cls-1" d="M299.65,571.73l-2.86,1.55-.73-.58-21,11.74a8.49,8.49,0,0,0-.05-.88l20.64-11.18,2-1,.92-.5Z" transform="translate(-150.64 -528.56)"/><path class="cls-1" d="M298.84,567.24,274.36,580.5a3.57,3.57,0,0,0-.16-.46,12,12,0,0,0,.69-2.38l20-11.17,1.76-1Z" transform="translate(-150.64 -528.56)"/><path class="cls-1" d="M298.52,570.83l-.92.5-2,1L275,583.56a12.06,12.06,0,0,0-.41-2.3l21.76-12.15Z" transform="translate(-150.64 -528.56)"/><path class="cls-1" d="M275.06,584.44l-1.26.7a7.93,7.93,0,0,0-.14-.85l1.35-.73A8.49,8.49,0,0,1,275.06,584.44Z" transform="translate(-150.64 -528.56)"/><path class="cls-1" d="M274,577.3l1.06-.57a7.21,7.21,0,0,1-.15.93l-.88.49h0Q274,577.72,274,577.3Z" transform="translate(-150.64 -528.56)"/><path class="cls-1" d="M275,583.56l-1.35.73a14.76,14.76,0,0,0-.35-1.46,8.64,8.64,0,0,0,.26-1l1-.57A12.06,12.06,0,0,1,275,583.56Z" transform="translate(-150.64 -528.56)"/><path class="cls-1" d="M274,578.15l.88-.49a12,12,0,0,1-.69,2.38,4.35,4.35,0,0,0-.25-.59C274,579,274,578.59,274,578.15Z" transform="translate(-150.64 -528.56)"/><path class="cls-1" d="M274.6,581.26l-1,.57a5.93,5.93,0,0,0,.16-.73h0c.06-.11.11-.23.16-.34l.47-.25A6.7,6.7,0,0,1,274.6,581.26Z" transform="translate(-150.64 -528.56)"/><path class="cls-1" d="M274.36,580.5l-.47.25a7.28,7.28,0,0,0,.31-.71A3.57,3.57,0,0,1,274.36,580.5Z" transform="translate(-150.64 -528.56)"/><path class="cls-1" d="M274.16,560.29q0,.65-.06,1.29a12.4,12.4,0,0,0-.58-1.29,18.46,18.46,0,0,0-3.07-4.28c-4.07-12.17-25.25-21.45-50.76-21.45-25.28,0-46.3,9.11-50.65,21.11h0a18.14,18.14,0,0,0-3.79,5.46c0-.28,0-.57,0-.85a16.47,16.47,0,0,1,1.27-6.32,21.14,21.14,0,0,1,3.48-5.63,37.7,37.7,0,0,1,12-8.93c9.86-4.91,23.12-7.84,37.75-7.85a96.27,96.27,0,0,1,26.44,3.53c7.85,2.26,14.53,5.48,19.48,9.54a24.32,24.32,0,0,1,7.28,9.34A16.66,16.66,0,0,1,274.16,560.29Z" transform="translate(-150.64 -528.56)"/><path class="cls-1" d="M274,579.45a4.35,4.35,0,0,1,.25.59,7.28,7.28,0,0,1-.31.71l-.11.06A12.32,12.32,0,0,0,274,579.45Z" transform="translate(-150.64 -528.56)"/><path class="cls-1" d="M274,578.14h0l-.53.3a3.07,3.07,0,0,0-.17-.31,3.35,3.35,0,0,0-.21-.36h0l.87-.47Q274,577.72,274,578.14Z" transform="translate(-150.64 -528.56)"/><path class="cls-1" d="M273.48,578.45l.53-.3c0,.44,0,.87-.06,1.3C273.81,579.11,273.65,578.78,273.48,578.45Z" transform="translate(-150.64 -528.56)"/><path class="cls-1" d="M273.89,580.75c-.05.11-.1.23-.16.34a2.74,2.74,0,0,0,0-.28Z" transform="translate(-150.64 -528.56)"/><path class="cls-1" d="M274,579.45a12.32,12.32,0,0,1-.17,1.36l-1,.53c-.12-.31-.24-.61-.38-.91s-.35-.73-.54-1.09l1.59-.89C273.65,578.78,273.81,579.11,274,579.45Z" transform="translate(-150.64 -528.56)"/><path class="cls-1" d="M273.52,560.29a12.4,12.4,0,0,1,.58,1.29,15.74,15.74,0,0,1-.68,3.53,17,17,0,0,0-1-3,19.45,19.45,0,0,0-.94-1.81l-.29-.49h0a13.2,13.2,0,0,0-.69-3.78A18.46,18.46,0,0,1,273.52,560.29Z" transform="translate(-150.64 -528.56)"/><path class="cls-1" d="M273.8,585.14l-1.27.7-.25-.35c.1-.2.19-.4.28-.61l1.1-.59A7.93,7.93,0,0,1,273.8,585.14Z" transform="translate(-150.64 -528.56)"/><path class="cls-1" d="M272.81,581.34l1-.53a2.74,2.74,0,0,1,0,.28h0c-.15.31-.32.62-.5.93l-.14.07C273,581.84,272.91,581.59,272.81,581.34Z" transform="translate(-150.64 -528.56)"/><path class="cls-1" d="M273.73,581.1a5.93,5.93,0,0,1-.16.73l-.34.2C273.41,581.72,273.58,581.41,273.73,581.1Z" transform="translate(-150.64 -528.56)"/><path class="cls-1" d="M273.66,584.29l-1.1.59.18-.41a15.9,15.9,0,0,0,.57-1.64A14.76,14.76,0,0,1,273.66,584.29Z" transform="translate(-150.64 -528.56)"/><path class="cls-1" d="M273.23,582l.34-.2a8.64,8.64,0,0,1-.26,1,6.17,6.17,0,0,0-.19-.61h0A1.74,1.74,0,0,0,273.23,582Z" transform="translate(-150.64 -528.56)"/><path class="cls-1" d="M273.31,578.14a3.07,3.07,0,0,1,.17.31l-1.59.89c-.12-.23-.25-.47-.39-.7l.93-.5.67-.36A3.35,3.35,0,0,1,273.31,578.14Z" transform="translate(-150.64 -528.56)"/><path class="cls-1" d="M273.23,582a1.74,1.74,0,0,1-.11.18l0-.11Z" transform="translate(-150.64 -528.56)"/><path class="cls-1" d="M273.12,582.22a6.17,6.17,0,0,1,.19.61,15.9,15.9,0,0,1-.57,1.64l-.18.41-.52.28c-.17-.23-.35-.45-.53-.67A17.48,17.48,0,0,0,273.12,582.22Z" transform="translate(-150.64 -528.56)"/><path class="cls-1" d="M273.12,582.21h0a17.48,17.48,0,0,1-1.61,2.27c-.28-.34-.58-.68-.89-1l2.47-1.38Z" transform="translate(-150.64 -528.56)"/><path class="cls-1" d="M272.81,581.34c.1.25.19.5.28.76l-2.47,1.38c-.12-.13-.24-.26-.37-.38s-.06-.18-.1-.27l0-.07Z" transform="translate(-150.64 -528.56)"/><path class="cls-1" d="M273.42,565.11a17.92,17.92,0,0,1-.8,2.11c0,.1-.09.19-.14.29a19.76,19.76,0,0,0-2.15-2.62,13.22,13.22,0,0,0,.83-4.6c0-.16,0-.33,0-.49l.29.49a19.45,19.45,0,0,1,.94,1.81A17,17,0,0,1,273.42,565.11Z" transform="translate(-150.64 -528.56)"/><path class="cls-1" d="M272.81,581.34l-2.63,1.42a13.84,13.84,0,0,0,.71-2.87l1-.55c.19.36.37.72.54,1.09S272.69,581,272.81,581.34Z" transform="translate(-150.64 -528.56)"/><polygon class="cls-1" points="122.13 97.5 119.27 99.05 116.72 97.02 119.59 95.47 122.13 97.5"/><path class="cls-1" d="M272.56,584.88c-.09.21-.18.41-.28.61-.07-.11-.16-.22-.24-.33Z" transform="translate(-150.64 -528.56)"/><path class="cls-1" d="M272.28,585.49l.25.35-.59.34C272.06,586,272.17,585.72,272.28,585.49Z" transform="translate(-150.64 -528.56)"/><path class="cls-1" d="M272.28,585.49c-.11.23-.22.46-.34.69h0l-1,.55h0c0-.31,0-.61-.07-.92l1.17-.64C272.12,585.27,272.21,585.38,272.28,585.49Z" transform="translate(-150.64 -528.56)"/><path class="cls-1" d="M272.48,567.51a15.77,15.77,0,0,1-.8,1.52,2.48,2.48,0,0,1-.18.31l-.18-.31c-.14-.22-.27-.43-.43-.65a12.91,12.91,0,0,0-.61-3.36.5.5,0,0,0,.05-.13A19.76,19.76,0,0,1,272.48,567.51Z" transform="translate(-150.64 -528.56)"/><path class="cls-1" d="M271.51,584.49c.18.22.36.44.53.67l-1.17.64c0-.16,0-.32-.07-.48C271.05,585,271.29,584.77,271.51,584.49Z" transform="translate(-150.64 -528.56)"/><path class="cls-1" d="M271.5,578.64c.14.23.27.47.39.7l-1,.55a7.79,7.79,0,0,0,.09-1h0Z" transform="translate(-150.64 -528.56)"/><path class="cls-1" d="M271.32,569l.18.31c-.21.35-.43.69-.66,1a11.9,11.9,0,0,0,.07-1.34c0-.22,0-.43,0-.65C271.05,568.6,271.18,568.81,271.32,569Z" transform="translate(-150.64 -528.56)"/><path class="cls-1" d="M271.51,584.49c-.22.28-.46.55-.71.83a12.94,12.94,0,0,0-.39-1.72l.21-.12C270.93,583.81,271.23,584.15,271.51,584.49Z" transform="translate(-150.64 -528.56)"/><path class="cls-1" d="M271.15,559.8c0,.16,0,.33,0,.49a13.22,13.22,0,0,1-.83,4.6l-.13-.13a16.73,16.73,0,0,0-2.05-4.07c0-.13,0-.27,0-.4v-.21a11.05,11.05,0,0,0-.11-1.28h0l.17-.17,1.16-1.25a20.12,20.12,0,0,1,1.76,2.42Z" transform="translate(-150.64 -528.56)"/><path class="cls-1" d="M270.93,579l.05,0a7.79,7.79,0,0,1-.09,1l-1.57.88c.44-.52.85-1.06,1.23-1.61h0l.21-.11Z" transform="translate(-150.64 -528.56)"/><path class="cls-1" d="M270.94,586.72h0l-1.12.63-1.5.84c-.06-.1-.14-.21-.21-.31.59-.49,1.14-1,1.65-1.49l.7-.38C270.63,586.25,270.79,586.48,270.94,586.72Z" transform="translate(-150.64 -528.56)"/><path class="cls-1" d="M270.94,586.72c-.15-.24-.31-.47-.48-.7l.41-.22C270.9,586.11,270.93,586.41,270.94,586.72Z" transform="translate(-150.64 -528.56)"/><path class="cls-1" d="M270.89,568.38c0,.22,0,.43,0,.65a11.9,11.9,0,0,1-.07,1.34c-.4.57-.82,1.13-1.29,1.68a16.4,16.4,0,0,0-1.5-2.52l-.15-.19h0s0,0,0,0h0a16.42,16.42,0,0,0,1.68-2.69A19.2,19.2,0,0,1,270.89,568.38Z" transform="translate(-150.64 -528.56)"/><path class="cls-1" d="M269.32,580.77l1.57-.88a13.84,13.84,0,0,1-.71,2.87l0,0a12.93,12.93,0,0,0-.87-1.95Z" transform="translate(-150.64 -528.56)"/><path class="cls-1" d="M270.8,585.32c0,.16.05.32.07.48l-.41.22a.85.85,0,0,0-.14-.19Q270.58,585.57,270.8,585.32Z" transform="translate(-150.64 -528.56)"/><path class="cls-1" d="M270.8,585.32q-.23.25-.48.51a15,15,0,0,0-1-1.21,5.48,5.48,0,0,0,.29-.6l.76-.42A12.94,12.94,0,0,1,270.8,585.32Z" transform="translate(-150.64 -528.56)"/><path class="cls-1" d="M270.45,556a13.2,13.2,0,0,1,.69,3.78,20.12,20.12,0,0,0-1.76-2.42l.76-.81-.81-.86c.15-.13.29-.27.43-.41Q270.12,555.65,270.45,556Z" transform="translate(-150.64 -528.56)"/><path class="cls-1" d="M270.25,583.1c.13.12.25.25.37.38l-.21.12C270.36,583.43,270.31,583.26,270.25,583.1Z" transform="translate(-150.64 -528.56)"/><path class="cls-1" d="M269.46,579.75l1.09-.59c-.38.55-.79,1.09-1.23,1.61l-.06,0c-.12-.24-.26-.48-.4-.72Z" transform="translate(-150.64 -528.56)"/><path class="cls-1" d="M270.28,565a12.91,12.91,0,0,1,.61,3.36,19.2,19.2,0,0,0-1.31-1.77A11.14,11.14,0,0,0,270.28,565Z" transform="translate(-150.64 -528.56)"/><path class="cls-1" d="M270.46,586l-.7.38c.2-.19.38-.38.56-.57A.85.85,0,0,1,270.46,586Z" transform="translate(-150.64 -528.56)"/><path class="cls-1" d="M270.45,556q-.33-.36-.69-.72c-.14.14-.28.28-.43.41l-1.11-1.19a34.48,34.48,0,0,0-6.42-5.25h0a37.84,37.84,0,0,0-7.05-4.47c-8.77-4.4-21.25-7.23-35.05-7.22a90.9,90.9,0,0,0-24.8,3.29,52.44,52.44,0,0,0-15.3,6.89l0,0a37.26,37.26,0,0,0-8.92,6.75l-1,1-.27-.26c-.13.13-.25.25-.36.38,4.35-12,25.37-21.11,50.65-21.11C245.2,534.56,266.38,543.84,270.45,556Z" transform="translate(-150.64 -528.56)"/><path class="cls-1" d="M270.25,583.1c.06.16.11.33.16.5l-.76.42c.17-.35.32-.71.46-1.07Z" transform="translate(-150.64 -528.56)"/><path class="cls-1" d="M270.33,564.89a.5.5,0,0,1-.05.13,2,2,0,0,0-.08-.26Z" transform="translate(-150.64 -528.56)"/><path class="cls-1" d="M270.2,564.76a2,2,0,0,1,.08.26,11.14,11.14,0,0,1-.7,1.59q-.43-.55-.93-1.08c.42-.37.83-.74,1.21-1.12Z" transform="translate(-150.64 -528.56)"/><path class="cls-1" d="M270.15,582.83c0,.09.07.18.1.27l-.14-.15A.56.56,0,0,0,270.15,582.83Z" transform="translate(-150.64 -528.56)"/><polygon class="cls-1" points="119.59 95.47 116.72 97.02 114.17 94.99 117.04 93.44 119.59 95.47"/><path class="cls-1" d="M270.2,564.76l-.34-.35c-.38.38-.79.75-1.21,1.12-.11-.13-.22-.26-.34-.38l-.91-1h0a10.31,10.31,0,0,0,.75-3.49A16.73,16.73,0,0,1,270.2,564.76Z" transform="translate(-150.64 -528.56)"/><path class="cls-1" d="M270.18,582.76l0,.07a.07.07,0,0,0,0-.05Z" transform="translate(-150.64 -528.56)"/><path class="cls-1" d="M270.14,582.78a.07.07,0,0,1,0,.05.56.56,0,0,1,0,.12.94.94,0,0,0-.1-.1Z" transform="translate(-150.64 -528.56)"/><path class="cls-1" d="M269.33,555.7l.81.86-.76.81a12.39,12.39,0,0,0-.83-1C268.82,556.18,269.08,555.94,269.33,555.7Z" transform="translate(-150.64 -528.56)"/><path class="cls-1" d="M270.14,582.78l-.13.07-.1-.1-.39.37-1,.54-.16-.18-.77-.82q.84-.82,1.56-1.68l.12-.15A12.93,12.93,0,0,1,270.14,582.78Z" transform="translate(-150.64 -528.56)"/><path class="cls-1" d="M270.11,583c-.14.36-.29.72-.46,1.07l-.54.3a4.36,4.36,0,0,0-.41-.46c.28-.23.56-.48.82-.74l.49-.27A.94.94,0,0,1,270.11,583Z" transform="translate(-150.64 -528.56)"/><path class="cls-1" d="M270.32,585.83c-.18.19-.36.38-.56.57l-1.69.91-.08.05,0,0v0a.86.86,0,0,0,0-.16,1.41,1.41,0,0,0,0-.29,16.91,16.91,0,0,0,1.42-2.29A15,15,0,0,1,270.32,585.83Z" transform="translate(-150.64 -528.56)"/><path class="cls-1" d="M270,582.85l-.49.27.39-.37Z" transform="translate(-150.64 -528.56)"/><polygon class="cls-1" points="119.27 99.05 116.4 100.6 113.86 98.57 116.72 97.02 119.27 99.05"/><path class="cls-1" d="M268.07,587.31l1.69-.91c-.51.5-1.06,1-1.65,1.49l0,0a1.15,1.15,0,0,0-.14-.19c0-.1,0-.2,0-.3l0,0Z" transform="translate(-150.64 -528.56)"/><path class="cls-1" d="M269.11,584.32l.54-.3a5.48,5.48,0,0,1-.29.6A2.21,2.21,0,0,0,269.11,584.32Z" transform="translate(-150.64 -528.56)"/><path class="cls-1" d="M269.52,583.12c-.26.26-.54.51-.82.74a1.12,1.12,0,0,0-.18-.2Z" transform="translate(-150.64 -528.56)"/><path class="cls-1" d="M269.38,557.37l-1.16,1.25-.17.17a9.64,9.64,0,0,0-.39-1.63c.31-.25.6-.49.89-.75A12.39,12.39,0,0,1,269.38,557.37Z" transform="translate(-150.64 -528.56)"/><path class="cls-1" d="M268.22,554.51l1.11,1.19c-.25.24-.51.48-.78.71-.11-.13-.22-.26-.34-.38l-.76-.8L266,553.71l0,0c-.35-.51-.74-1-1.17-1.54a22.94,22.94,0,0,0-3-3A34.48,34.48,0,0,1,268.22,554.51Z" transform="translate(-150.64 -528.56)"/><path class="cls-1" d="M269.32,580.77l-.05.06a0,0,0,0,0,0,0Z" transform="translate(-150.64 -528.56)"/><path class="cls-1" d="M269.26,580.8a0,0,0,0,1,0,0l-.12.15q-.72.85-1.56,1.68l-.41-.44v0c0-.1.08-.19.11-.29Z" transform="translate(-150.64 -528.56)"/><path class="cls-1" d="M269.26,580.8l-2,1.1a9.11,9.11,0,0,0,.38-1.19h0l.3-.16.87-.46C269,580.32,269.14,580.56,269.26,580.8Z" transform="translate(-150.64 -528.56)"/><path class="cls-1" d="M269.11,584.32a2.21,2.21,0,0,1,.25.3,16.91,16.91,0,0,1-1.42,2.29,10.08,10.08,0,0,0-.23-1.8Z" transform="translate(-150.64 -528.56)"/><path class="cls-1" d="M268.65,565.53q.5.53.93,1.08a16.42,16.42,0,0,1-1.68,2.69,2.44,2.44,0,0,0,0-.27,10,10,0,0,0-.34-2.6Q268.13,566,268.65,565.53Z" transform="translate(-150.64 -528.56)"/><path class="cls-1" d="M269.11,584.32l-1.4.79-.09-.34c.37-.29.73-.59,1.08-.91A4.36,4.36,0,0,1,269.11,584.32Z" transform="translate(-150.64 -528.56)"/><path class="cls-1" d="M269.55,572.05c-.34.42-.7.83-1.09,1.23-.2.21-.4.42-.62.63l-.76-.81v0a10.44,10.44,0,0,0,.81-3.74l.15.19A16.4,16.4,0,0,1,269.55,572.05Z" transform="translate(-150.64 -528.56)"/><path class="cls-1" d="M268.52,583.66a1.12,1.12,0,0,1,.18.2c-.35.32-.71.62-1.08.91a5.44,5.44,0,0,0-.15-.54Z" transform="translate(-150.64 -528.56)"/><path class="cls-1" d="M268.31,565.15c.12.12.23.25.34.38q-.52.47-1.08.9a12.56,12.56,0,0,0-.5-1.5l.09-.19.24-.55Z" transform="translate(-150.64 -528.56)"/><path class="cls-1" d="M268.21,556c.12.12.23.25.34.38-.29.26-.58.5-.89.75a8.46,8.46,0,0,0-.33-.92c-.08-.21-.18-.42-.28-.63a13.54,13.54,0,0,0-1.06-1.86l0,0,1.43,1.52Z" transform="translate(-150.64 -528.56)"/><path class="cls-1" d="M268.36,583.48l.16.18-1,.57a9.9,9.9,0,0,0-.4-1.06c.18-.17.36-.34.52-.51Z" transform="translate(-150.64 -528.56)"/><path class="cls-1" d="M268.32,588.2l-.42.23c0-.13,0-.26,0-.4h0l.17-.13C268.18,588,268.26,588.1,268.32,588.2Z" transform="translate(-150.64 -528.56)"/><path class="cls-1" d="M268.11,587.89l-.17.13c0-.11,0-.22,0-.34a1.15,1.15,0,0,1,.14.19Z" transform="translate(-150.64 -528.56)"/><path class="cls-2" d="M268,578.76h0Z" transform="translate(-150.64 -528.56)"/><path class="cls-1" d="M268,587.36v0l-.16.08-.14-.18.16-.2.12-.17a1.41,1.41,0,0,1,0,.29A.86.86,0,0,1,268,587.36Z" transform="translate(-150.64 -528.56)"/><path class="cls-1" d="M268,587.38c0,.1,0,.2,0,.3a1.7,1.7,0,0,0-.15-.22Z" transform="translate(-150.64 -528.56)"/><path class="cls-1" d="M268,587.68c0,.12,0,.23,0,.34h0c-.61.49-1.27,1-2,1.48l0,0h0l-.24.13-.29.16.24-.24a22.25,22.25,0,0,0,1.67-1.86l.49-.27A1.7,1.7,0,0,1,268,587.68Z" transform="translate(-150.64 -528.56)"/><path class="cls-1" d="M267.94,586.91l-.12.17-.16.2c-.38-.5-.79-1-1.23-1.46h0l1.25-.7A10.08,10.08,0,0,1,267.94,586.91Z" transform="translate(-150.64 -528.56)"/><path class="cls-1" d="M267.94,588c0,.14,0,.27,0,.4l-.87.49h0l-1,.59C266.67,589,267.33,588.52,267.94,588Z" transform="translate(-150.64 -528.56)"/><path class="cls-1" d="M267.91,569a2.44,2.44,0,0,1,0,.27,21.59,21.59,0,0,0-1.6-1.91c.44-.31.86-.63,1.27-1A10,10,0,0,1,267.91,569Z" transform="translate(-150.64 -528.56)"/><path class="cls-1" d="M267.9,569.31s0,0,0,0h0a10.44,10.44,0,0,1-.81,3.74v0l-.89-.94q-.15-.25-.33-.51l.42-.42A23.56,23.56,0,0,0,267.9,569.31Z" transform="translate(-150.64 -528.56)"/><path class="cls-1" d="M267.9,569.3h0a23.56,23.56,0,0,1-1.62,1.92l-.42.42a.05.05,0,0,0,0,0,40,40,0,0,1-6.06,4.2,60.37,60.37,0,0,1-11.36,4.93,100,100,0,0,1-57.74,0,53.9,53.9,0,0,1-16-8l0,0c-.54-.49-1-1-1.51-1.48a22.75,22.75,0,0,1-1.77-2.11,24.19,24.19,0,0,1,1.57-1.86l.37.27,0,0,0,0a20.75,20.75,0,0,0,1.8,1.68c.4.35.81.68,1.25,1l.09.07c3.68,3.4,9.29,6.48,16.21,8.71a89.09,89.09,0,0,0,27,4,93.43,93.43,0,0,0,20.95-2.3,60.78,60.78,0,0,0,16.3-6.1,30.59,30.59,0,0,0,7.15-5.45h0l.11-.12c.3-.25.6-.53.88-.81l0,0c.41-.27.81-.55,1.2-.83A21.59,21.59,0,0,1,267.9,569.3Z" transform="translate(-150.64 -528.56)"/><path class="cls-1" d="M267.08,573.1l.76.81c-.16.18-.34.35-.52.52-.1-.24-.2-.49-.31-.74a1.86,1.86,0,0,0-.1-.2C267,573.36,267,573.23,267.08,573.1Z" transform="translate(-150.64 -528.56)"/><path class="cls-1" d="M267.66,587.28l.14.18-.49.27Z" transform="translate(-150.64 -528.56)"/><path class="cls-1" d="M267.62,584.77l.09.34-1.25.7h0l-.08-.09h0C266.8,585.41,267.22,585.09,267.62,584.77Z" transform="translate(-150.64 -528.56)"/><polygon class="cls-2" points="117.05 52.14 117.04 52.15 117.04 52.14 117.05 52.14"/><path class="cls-1" d="M266.41,581.4l1.27-.69a9.11,9.11,0,0,1-.38,1.19l-.28.15Z" transform="translate(-150.64 -528.56)"/><polygon class="cls-1" points="117.04 93.44 114.17 94.99 112.22 93.43 115.09 91.88 117.04 93.44"/><path class="cls-1" d="M267.66,587.28l-.35.45-2.18,1.18-14.21,7.69h0c-2.31.73-4.75,1.39-7.29,1.95l3-1.69a52.81,52.81,0,0,0,11.58-5.26l.1-.06a37.61,37.61,0,0,0,5.66-3.94c.4-.34.78-.68,1.15-1.05l0,0,.19-.12.19-.11.87-.49C266.87,586.3,267.28,586.78,267.66,587.28Z" transform="translate(-150.64 -528.56)"/><path class="cls-1" d="M267.47,584.23a5.44,5.44,0,0,1,.15.54c-.4.32-.82.64-1.25,1h0l-.17-.19q-.46.5-1,1l-.14.08-1.51.84a18.16,18.16,0,0,0,1.77-2Z" transform="translate(-150.64 -528.56)"/><path class="cls-1" d="M267.18,582.22l.41.44c-.16.17-.34.34-.52.51,0-.09-.07-.17-.11-.26l0-.1C267,582.61,267.1,582.42,267.18,582.22Z" transform="translate(-150.64 -528.56)"/><path class="cls-1" d="M267.47,584.23l-2.13,1.15a12.81,12.81,0,0,0,1-1.56v0c.23-.2.46-.41.68-.63A9.9,9.9,0,0,1,267.47,584.23Z" transform="translate(-150.64 -528.56)"/><polygon class="cls-1" points="116.72 97.02 113.86 98.57 111.31 96.54 114.17 94.99 116.72 97.02"/><path class="cls-1" d="M267.07,564.93a12.56,12.56,0,0,1,.5,1.5c-.41.33-.83.65-1.27,1l-.17-.19c-.33.35-.67.7-1,1l0,0-.36.23A15.86,15.86,0,0,0,267.07,564.93Z" transform="translate(-150.64 -528.56)"/><path class="cls-1" d="M267,573.69c.11.25.21.5.31.74-.64.61-1.32,1.2-2,1.77a14.92,14.92,0,0,0,1.62-2.71A1.86,1.86,0,0,1,267,573.69Z" transform="translate(-150.64 -528.56)"/><path class="cls-1" d="M265.13,588.91l2.18-1.18a22.25,22.25,0,0,1-1.67,1.86l-.24.24-7.17,4,0,0h0l-.23.1-1.43.61-.1,0-1.46.58-.27.1c-1.21.46-2.46.9-3.75,1.3Z" transform="translate(-150.64 -528.56)"/><path class="cls-1" d="M267.3,581.9c0,.1-.07.19-.11.29v0l-.16-.17Z" transform="translate(-150.64 -528.56)"/><path class="cls-1" d="M267,582.05l.16.17c-.08.2-.17.39-.27.59-.08-.18-.17-.36-.27-.55Z" transform="translate(-150.64 -528.56)"/><path class="cls-1" d="M266.19,572.16l.89.94c-.05.13-.11.26-.17.39A11.63,11.63,0,0,0,266.19,572.16Z" transform="translate(-150.64 -528.56)"/><path class="cls-1" d="M267,582.91c0,.09.08.17.11.26-.22.22-.45.43-.68.63a9.42,9.42,0,0,0,.52-1Z" transform="translate(-150.64 -528.56)"/><path class="cls-1" d="M266.41,581.4l.61.65-.38.21q-.19-.37-.42-.75l.18-.11Z" transform="translate(-150.64 -528.56)"/><path class="cls-1" d="M266.64,582.26c.1.19.19.37.27.55a9.42,9.42,0,0,1-.52,1v0a37.19,37.19,0,0,1-4.84,3.62l-5.66,3.07h0l0,0-.06,0a68,68,0,0,1-11.19,4l2.4-1.34a53.66,53.66,0,0,0,9.89-4.31,32,32,0,0,0,6.59-4.88h0Z" transform="translate(-150.64 -528.56)"/><path class="cls-1" d="M266.22,581.51q.22.38.42.75l-3.19,1.79c.18-.19.37-.37.54-.56l1.49-1.58h0l.3-.16Z" transform="translate(-150.64 -528.56)"/><path class="cls-1" d="M266.19,572.16a11.63,11.63,0,0,1,.72,1.33,14.92,14.92,0,0,1-1.62,2.71,40.36,40.36,0,0,1-5.37,3.64,58.17,58.17,0,0,1-8.66,4l-.1,0a104.46,104.46,0,0,1-31.52,4.57v-.21a93.3,93.3,0,0,0,20.8-2.3,60.44,60.44,0,0,0,16.3-6.1,30.59,30.59,0,0,0,7.15-5.45l2.19-2.33Z" transform="translate(-150.64 -528.56)"/><path class="cls-1" d="M266.35,585.73l.08.09-.87.49C265.84,586.12,266.09,585.92,266.35,585.73Z" transform="translate(-150.64 -528.56)"/><path class="cls-1" d="M266.18,585.54l.17.19c-.26.19-.51.39-.79.58l-.19.11-.15.08Q265.72,586,266.18,585.54Z" transform="translate(-150.64 -528.56)"/><path class="cls-1" d="M266.13,567.2l.17.19c-.39.28-.79.56-1.2.83C265.46,567.9,265.8,567.55,266.13,567.2Z" transform="translate(-150.64 -528.56)"/><path class="cls-1" d="M265.86,571.65q.18.26.33.51l-.11-.12-2.19,2.33a30.59,30.59,0,0,1-7.15,5.45,60.44,60.44,0,0,1-16.3,6.1,93.3,93.3,0,0,1-20.8,2.3h-.15a88.78,88.78,0,0,1-27-4c-7.71-2.49-13.8-6-17.39-9.88l-2.15-2.29a4.22,4.22,0,0,1,.31-.47c.44.38.89.74,1.36,1.1l0,0c8.77,7.93,25.65,13.29,45.05,13.29C240,586,257.49,580.17,265.86,571.65Z" transform="translate(-150.64 -528.56)"/><path class="cls-1" d="M265.83,571.61a.05.05,0,0,1,0,0C257.49,580.17,240,586,219.69,586c-19.4,0-36.28-5.36-45.05-13.29a53.9,53.9,0,0,0,16,8,100,100,0,0,0,57.74,0,60.37,60.37,0,0,0,11.36-4.93A40,40,0,0,0,265.83,571.61Z" transform="translate(-150.64 -528.56)"/><polygon class="cls-1" points="115.09 91.88 112.22 93.43 111.63 92.96 114.49 91.41 115.09 91.88"/><path class="cls-1" d="M266.38,583.82a12.81,12.81,0,0,1-1,1.56l-3.8,2.06A37.19,37.19,0,0,0,266.38,583.82Z" transform="translate(-150.64 -528.56)"/><path class="cls-1" d="M265.48,581.91,264,583.49c-.17.19-.36.37-.54.56h0L247,593.25c-1.66.55-3.4,1-5.2,1.5l12.55-6.8.11-.06a43,43,0,0,0,5.32-2.87l.18-.1.09-.06,3.51-1.9Z" transform="translate(-150.64 -528.56)"/><path class="cls-1" d="M265.22,586.5l.15-.08-.19.12Z" transform="translate(-150.64 -528.56)"/><path class="cls-1" d="M261.54,587.44l3.8-2.06a18.16,18.16,0,0,1-1.77,2L259,590a67.43,67.43,0,0,1-7.63,3l4.38-2.37.06,0,0,0h0c.44-.19.87-.4,1.29-.61A49.18,49.18,0,0,0,261.54,587.44Z" transform="translate(-150.64 -528.56)"/><path class="cls-1" d="M265.22,586.5l0,0,0,0-.18.13c-.56.36-1.15.72-1.75,1.07a3.73,3.73,0,0,0,.35-.34l1.51-.84Z" transform="translate(-150.64 -528.56)"/><path class="cls-1" d="M265.15,586.56c-.37.37-.75.71-1.15,1.05a37.61,37.61,0,0,1-5.66,3.94,32.78,32.78,0,0,0,3.31-2.38c.56-.46,1.08-.93,1.57-1.41s1.19-.71,1.75-1.07Z" transform="translate(-150.64 -528.56)"/><polygon class="cls-1" points="114.49 91.41 111.63 92.96 111.62 92.96 109.08 90.93 111.94 89.37 114.49 91.41"/><path class="cls-1" d="M264.72,568.47l.36-.23c-.28.28-.58.56-.88.81C264.38,568.86,264.55,568.66,264.72,568.47Z" transform="translate(-150.64 -528.56)"/><polygon class="cls-1" points="114.17 94.99 111.31 96.54 109.36 94.99 112.22 93.43 114.17 94.99"/><path class="cls-1" d="M259,590l4.57-2.56a3.73,3.73,0,0,1-.35.34Q261.24,588.93,259,590Z" transform="translate(-150.64 -528.56)"/><path class="cls-1" d="M247,593.25l16.48-9.19a32,32,0,0,1-6.59,4.88A53.66,53.66,0,0,1,247,593.25Z" transform="translate(-150.64 -528.56)"/><polygon class="cls-1" points="112.22 93.43 109.36 94.99 108.76 94.51 111.62 92.96 111.63 92.96 112.22 93.43"/><path class="cls-1" d="M262.58,617.93l-2.86,1.56-2.54-2,.56-.31c.79-.4,1.55-.82,2.29-1.25h0Z" transform="translate(-150.64 -528.56)"/><path class="cls-1" d="M263.22,587.76c-.49.48-1,1-1.57,1.41a32.78,32.78,0,0,1-3.31,2.38l-.1.06a56.9,56.9,0,0,1-10,4.37L259,590Q261.24,588.93,263.22,587.76Z" transform="translate(-150.64 -528.56)"/><polygon class="cls-1" points="111.62 92.96 108.76 94.51 106.22 92.48 109.08 90.93 111.62 92.96"/><path class="cls-1" d="M255.88,590.51l5.66-3.07a49.18,49.18,0,0,1-4.37,2.46C256.75,590.11,256.32,590.32,255.88,590.51Z" transform="translate(-150.64 -528.56)"/><path class="cls-1" d="M258.09,614.35,260,615.9c-.74.43-1.5.85-2.29,1.25l-.41.21-.17.08-1.94-1.54Z" transform="translate(-150.64 -528.56)"/><path class="cls-1" d="M257.6,586.17l2.14-1.15a43,43,0,0,1-5.32,2.87l1.64-.89Z" transform="translate(-150.64 -528.56)"/><polygon class="cls-1" points="109.08 90.93 106.22 92.48 103.67 90.45 106.53 88.9 106.54 88.9 109.08 90.93"/><path class="cls-1" d="M259,590l-10.76,6c-1.72.59-3.49,1.11-5.35,1.58l.49-.28.12-.07.13-.07h0l.92-.5,6.81-3.69A67.43,67.43,0,0,0,259,590Z" transform="translate(-150.64 -528.56)"/><path class="cls-1" d="M258.16,593.87l-8.7,4.86h0l-1,.33c-1.46.47-3,.91-4.5,1.3l6.95-3.76h0c1.29-.4,2.54-.84,3.75-1.3l.27-.1,1.46-.58.1,0,1.43-.61Z" transform="translate(-150.64 -528.56)"/><polygon class="cls-1" points="107.45 85.79 104.58 87.34 104.27 87.09 107.13 85.54 107.45 85.79"/><path class="cls-1" d="M257.77,614.1l-2.86,1.55-.37-.29c1-.47,2-1,3-1.48Z" transform="translate(-150.64 -528.56)"/><path class="cls-1" d="M257.74,617.15l-.56.31h0v0l.17-.08Z" transform="translate(-150.64 -528.56)"/><path class="cls-1" d="M256.38,613l1.12.89c-.94.52-1.93,1-3,1.48l-1.41-1.13C254.25,613.83,255.33,613.42,256.38,613Z" transform="translate(-150.64 -528.56)"/><path class="cls-1" d="M257.16,617.44v0L254.31,619l-.21-.17C255.15,618.4,256.18,617.93,257.16,617.44Z" transform="translate(-150.64 -528.56)"/><path class="cls-1" d="M255.22,615.9l1.94,1.54c-1,.49-2,1-3.06,1.4l-1.74-1.39Z" transform="translate(-150.64 -528.56)"/><path class="cls-1" d="M255.23,612.07l1.15.92c-1,.43-2.13.84-3.25,1.24l-.77-.61Z" transform="translate(-150.64 -528.56)"/><path class="cls-1" d="M255.75,590.58,251.37,593c-2.37.77-4.88,1.45-7.51,2l.68-.39h0A68,68,0,0,0,255.75,590.58Z" transform="translate(-150.64 -528.56)"/><path class="cls-1" d="M255.23,612.07l-2.87,1.55-.45-.36c1.05-.46,2.07-.93,3-1.43Z" transform="translate(-150.64 -528.56)"/><polygon class="cls-1" points="104.58 87.34 101.72 88.89 101.4 88.64 104.27 87.09 104.58 87.34"/><path class="cls-1" d="M252.88,610.19l2.06,1.64c-1,.5-2,1-3,1.43l-2.09-1.67,1.28-.71.07,0Q252,610.54,252.88,610.19Z" transform="translate(-150.64 -528.56)"/><path class="cls-1" d="M254.91,615.65,252,617.2l-.62-.5c1.08-.43,2.12-.87,3.12-1.34Z" transform="translate(-150.64 -528.56)"/><path class="cls-1" d="M253.13,614.23l1.41,1.13c-1,.47-2,.91-3.12,1.34l-1.71-1.36Q251.46,614.8,253.13,614.23Z" transform="translate(-150.64 -528.56)"/><path class="cls-1" d="M252.36,613.62l.77.61q-1.66.57-3.42,1.11l-.21-.17Z" transform="translate(-150.64 -528.56)"/><path class="cls-1" d="M252.88,610.19q-.84.34-1.71.66l1.51-.82Z" transform="translate(-150.64 -528.56)"/><path class="cls-1" d="M252.68,610l-1.51.82-.07,0c-.49.18-1,.36-1.5.53L247.88,610l2.86-1.55Z" transform="translate(-150.64 -528.56)"/><path class="cls-1" d="M252.36,613.62l-2.86,1.55-.81-.65c1.12-.4,2.19-.82,3.22-1.26Z" transform="translate(-150.64 -528.56)"/><path class="cls-1" d="M249.82,611.59l2.09,1.67c-1,.44-2.1.86-3.22,1.26L247,613.14l2.86-1.55Z" transform="translate(-150.64 -528.56)"/><path class="cls-1" d="M251.37,593l-6.81,3.69-.92.5h0l-.13.07-.12.07-.54.29h0c-1.88.47-3.84.9-5.85,1.25l6.89-3.84h0C246.49,594.4,249,593.72,251.37,593Z" transform="translate(-150.64 -528.56)"/><path class="cls-1" d="M251.1,610.88l-1.28.71h0l-.21-.18C250.11,611.24,250.61,611.06,251.1,610.88Z" transform="translate(-150.64 -528.56)"/><path class="cls-1" d="M250.91,596.61,244,600.37c-1.92.51-3.91,1-6,1.32l5.59-3.12h0C246.16,598,248.6,597.34,250.91,596.61Z" transform="translate(-150.64 -528.56)"/><path class="cls-1" d="M250.74,608.49,247.88,610l-.61-.49L250,608.1l.07,0,.14-.05Z" transform="translate(-150.64 -528.56)"/><path class="cls-1" d="M250.16,608l-.14.05.11-.07Z" transform="translate(-150.64 -528.56)"/><path class="cls-1" d="M250.13,608l-.11.07-.07,0c-1,.38-2.08.73-3.16,1.07l-2.07-1.65.05,0c1.22-.28,2.41-.59,3.57-.92Z" transform="translate(-150.64 -528.56)"/><path class="cls-1" d="M250,608.1l-2.68,1.45-.48-.38C247.87,608.83,248.93,608.48,250,608.1Z" transform="translate(-150.64 -528.56)"/><path class="cls-1" d="M251.16,583.86c-.85.32-1.72.62-2.61.91a99.92,99.92,0,0,1-57.73,0c-.64-.21-1.27-.42-1.89-.65a111.27,111.27,0,0,0,62.23-.26Z" transform="translate(-150.64 -528.56)"/><path class="cls-1" d="M249.81,611.59,247,613.14l-.79-.64c1.17-.34,2.32-.7,3.44-1.09Z" transform="translate(-150.64 -528.56)"/><path class="cls-1" d="M248.24,596a56.9,56.9,0,0,0,10-4.37,52.81,52.81,0,0,1-11.58,5.26Z" transform="translate(-150.64 -528.56)"/><path class="cls-1" d="M247.88,610l1.72,1.37c-1.12.39-2.27.75-3.44,1.09l-1.15-.91Z" transform="translate(-150.64 -528.56)"/><path class="cls-1" d="M249.45,598.74l-1.55.87h0q-2.59.86-5.4,1.55l1.48-.8c1.54-.39,3-.83,4.5-1.3Z" transform="translate(-150.64 -528.56)"/><path class="cls-1" d="M247.59,606l.75.61c-1.16.33-2.35.64-3.57.92Z" transform="translate(-150.64 -528.56)"/><path class="cls-1" d="M248.24,596l-1.58.89c-.76.24-1.54.48-2.33.71-1,.28-2,.54-3,.78l1.44-.78h.08C244.75,597.09,246.52,596.57,248.24,596Z" transform="translate(-150.64 -528.56)"/><path class="cls-1" d="M247.88,599.62,243,602.33l.08.06L240.24,604l-1.17-.93,3.37-1.84h0Q245.29,600.48,247.88,599.62Z" transform="translate(-150.64 -528.56)"/><polygon class="cls-1" points="97.24 81.48 94.37 83.03 93.76 82.54 96.63 80.99 97.24 81.48"/><path class="cls-1" d="M247.59,606l-2.82,1.53-.05,0h0l-.77-.62.34-.1c1.07-.31,2.11-.63,3.12-1Z" transform="translate(-150.64 -528.56)"/><path class="cls-1" d="M245,603.94l2.36,1.88c-1,.35-2.05.67-3.12,1l-.34.1-1.76-1.41Z" transform="translate(-150.64 -528.56)"/><path class="cls-1" d="M247.27,609.55l-2.87,1.55-1.15-.92c1.21-.31,2.39-.65,3.54-1Z" transform="translate(-150.64 -528.56)"/><path class="cls-1" d="M247,593.25l-2.4,1.34h0c-1.46.4-2.95.76-4.49,1.08l1.25-.69.42-.23h0C243.56,594.3,245.3,593.8,247,593.25Z" transform="translate(-150.64 -528.56)"/><path class="cls-1" d="M244.72,607.52l2.07,1.65c-1.15.36-2.33.7-3.54,1l-1.39-1.11,2.85-1.55Z" transform="translate(-150.64 -528.56)"/><path class="cls-1" d="M246.66,596.87l-3,1.69h0q-2,.45-4.11.81l1.88-1c1-.24,2-.5,3-.78C245.12,597.35,245.9,597.11,246.66,596.87Z" transform="translate(-150.64 -528.56)"/><path class="cls-1" d="M246.18,588.8,240,592.17h0a99.85,99.85,0,0,1-20.46,2.05A94.88,94.88,0,0,1,190.62,590,59.67,59.67,0,0,1,178,584.3l-.07,0a30.81,30.81,0,0,1-4.85-4c9.88,7,27,11.71,46.49,11.71h.12A108.28,108.28,0,0,0,246.18,588.8Z" transform="translate(-150.64 -528.56)"/><path class="cls-1" d="M245,603.94l-2.86,1.55-1.13-.89c1.25-.27,2.48-.58,3.68-.91Z" transform="translate(-150.64 -528.56)"/><path class="cls-1" d="M243.1,602.39l1.63,1.3c-1.2.33-2.43.64-3.68.91l-.81-.65Z" transform="translate(-150.64 -528.56)"/><path class="cls-1" d="M244.71,607.52l-2.85,1.55-.93-.74Q242.87,608,244.71,607.52Z" transform="translate(-150.64 -528.56)"/><path class="cls-1" d="M243.94,606.9l.77.62q-1.85.43-3.78.81l-.63-.5C241.54,607.54,242.76,607.23,243.94,606.9Z" transform="translate(-150.64 -528.56)"/><path class="cls-1" d="M244.54,594.6l-.68.39h0c-1.32.3-2.67.57-4,.82l.06,0,.18-.09C241.59,595.36,243.08,595,244.54,594.6Z" transform="translate(-150.64 -528.56)"/><path class="cls-1" d="M244,600.37l-1.48.8h0c-1.44.37-2.92.69-4.44,1l-.34-.27.35-.2C240.05,601.32,242,600.88,244,600.37Z" transform="translate(-150.64 -528.56)"/><path class="cls-1" d="M242.18,605.49l1.76,1.41c-1.18.33-2.4.64-3.64.93l-1-.79Z" transform="translate(-150.64 -528.56)"/><path class="cls-1" d="M243.85,595,237,598.83h0c-1.26.23-2.54.43-3.85.6l3.25-1.76.66-.36,1.45-.79,1-.55.33-.17h0C241.18,595.56,242.53,595.29,243.85,595Z" transform="translate(-150.64 -528.56)"/><path class="cls-1" d="M243.6,598.57,238,601.69c-1.3.25-2.63.46-4,.65l5.45-3h0Q241.59,599,243.6,598.57Z" transform="translate(-150.64 -528.56)"/><path class="cls-1" d="M243.38,597.28l-.49.28h0Z" transform="translate(-150.64 -528.56)"/><path class="cls-1" d="M242.81,597.58l-1.44.78c-1.82.45-3.71.83-5.65,1.16l1.23-.68h0C239,598.48,240.93,598.05,242.81,597.58Z" transform="translate(-150.64 -528.56)"/><path class="cls-1" d="M242.44,601.18,239.07,603l-1.07-.86C239.52,601.87,241,601.55,242.44,601.18Z" transform="translate(-150.64 -528.56)"/><path class="cls-1" d="M242.18,605.49,239.31,607l-1.93-1.54.46-.25h0c1.09-.19,2.15-.41,3.2-.64Z" transform="translate(-150.64 -528.56)"/><path class="cls-1" d="M241.37,598.36l-1.88,1h0c-1.58.28-3.19.53-4.84.74l1.05-.6h0C237.66,599.19,239.55,598.81,241.37,598.36Z" transform="translate(-150.64 -528.56)"/><path class="cls-1" d="M240.24,604l.81.65c-1.05.23-2.11.45-3.2.64Z" transform="translate(-150.64 -528.56)"/><path class="cls-1" d="M240.24,604l-2.39,1.29h0l-.64.11-1-.79,2.86-1.55Z" transform="translate(-150.64 -528.56)"/><path class="cls-1" d="M240,592.17l-1.36.74a96.84,96.84,0,0,1-19.15,1.85c-17,0-32.05-4.11-41.42-10.46a59.67,59.67,0,0,0,12.6,5.66,94.88,94.88,0,0,0,28.87,4.26A99.85,99.85,0,0,0,240,592.17Z" transform="translate(-150.64 -528.56)"/><path class="cls-1" d="M239.48,599.39l-5.45,3-.52.07-1.22-1,2.35-1.31C236.29,599.92,237.9,599.67,239.48,599.39Z" transform="translate(-150.64 -528.56)"/><path class="cls-1" d="M239.07,603l-2.86,1.55L234,602.83c1.35-.19,2.67-.42,4-.67Z" transform="translate(-150.64 -528.56)"/><path class="cls-1" d="M238.59,592.91l-4,2.17-2.75,1.49a95,95,0,0,1-12.25.77,89.14,89.14,0,0,1-27-4c-7.71-2.49-13.79-6-17.39-9.89L173,581.16l-.11.12q.13-.22.3-.45a38.37,38.37,0,0,0,4.76,3.43l.07,0c9.37,6.35,24.44,10.46,41.42,10.46A96.84,96.84,0,0,0,238.59,592.91Z" transform="translate(-150.64 -528.56)"/><path class="cls-1" d="M238,601.69l-.35.2.34.27c-1.3.25-2.62.48-4,.67l-.37-.29.37-.2C235.38,602.15,236.71,601.94,238,601.69Z" transform="translate(-150.64 -528.56)"/><path class="cls-1" d="M237.84,605.25l-.46.25-.18-.14Z" transform="translate(-150.64 -528.56)"/><path class="cls-1" d="M237,598.84l-1.23.68h0c-1.24.22-2.5.4-3.79.56l1.17-.64h0C234.41,599.27,235.69,599.07,237,598.84Z" transform="translate(-150.64 -528.56)"/><path class="cls-1" d="M236.21,604.57l-2.45,1.32h0c-2.5.35-5.07.61-7.7.76L232.8,603c.41,0,.82-.1,1.23-.17Z" transform="translate(-150.64 -528.56)"/><path class="cls-1" d="M235.69,599.53l-1.05.6c-1.17.16-2.37.29-3.57.41l.25-.14.54-.3h0C233.19,599.93,234.45,599.75,235.69,599.53Z" transform="translate(-150.64 -528.56)"/><path class="cls-1" d="M234.64,600.13l-2.35,1.31,1.22,1c-2.34.32-4.75.56-7.21.71l4.74-2.57h0C232.27,600.42,233.47,600.29,234.64,600.13Z" transform="translate(-150.64 -528.56)"/><path class="cls-1" d="M234,602.34l-.37.2-.15-.13Z" transform="translate(-150.64 -528.56)"/><path class="cls-1" d="M233.66,602.54l.37.29c-.41.07-.82.12-1.23.17Z" transform="translate(-150.64 -528.56)"/><path class="cls-1" d="M233.75,605.9l-7.29,4q-3.3.23-6.74.24l6.33-3.43C228.68,606.51,231.25,606.25,233.75,605.9Z" transform="translate(-150.64 -528.56)"/><path class="cls-1" d="M233.66,602.54l-.86.46c-2.46.33-5,.57-7.58.71l1.06-.58h0c2.46-.15,4.87-.39,7.21-.71Z" transform="translate(-150.64 -528.56)"/><path class="cls-1" d="M232.8,603l-6.75,3.66c-2.13.14-4.31.21-6.51.21h-.16l.12-.07,1-.54,1.83-1,.21-.11,1-.55,1.64-.89h0C227.82,603.57,230.34,603.33,232.8,603Z" transform="translate(-150.64 -528.56)"/><path class="cls-1" d="M231.84,596.57,231,597c-3.64.36-7.42.54-11.29.54a112.14,112.14,0,0,1-21.51-2c-.24,0-.48-.1-.71-.15-1.55-.35-3.06-.74-4.53-1.16-7.85-2.26-14.53-5.48-19.48-9.54l-.61-.51a15.06,15.06,0,0,1-.79-1.47,13.52,13.52,0,0,1,.78-1.43l.11-.12,2.18,2.32c3.6,3.85,9.68,7.4,17.39,9.89a89.14,89.14,0,0,0,27,4A95,95,0,0,0,231.84,596.57Z" transform="translate(-150.64 -528.56)"/><path class="cls-1" d="M231,597l-.24.13a102.13,102.13,0,0,1-11.35.62,99.45,99.45,0,0,1-21.21-2.22,112.14,112.14,0,0,0,21.51,2C223.61,597.55,227.39,597.37,231,597Z" transform="translate(-150.64 -528.56)"/><path class="cls-1" d="M226.46,609.85l-.53.28h0c-2.06.1-4.15.16-6.27.16h-.31l.39-.21Q223.15,610.08,226.46,609.85Z" transform="translate(-150.64 -528.56)"/><path class="cls-1" d="M226.05,606.66l-6.33,3.43h-.23c-2,0-3.87-.05-5.75-.16l.41-.23,5.23-2.83h.16C221.74,606.87,223.92,606.8,226.05,606.66Z" transform="translate(-150.64 -528.56)"/><path class="cls-1" d="M225.91,610.14l-5.42,2.94h-1c-1.72,0-3.42,0-5.09-.12l4.93-2.67h.31C221.76,610.3,223.85,610.24,225.91,610.14Z" transform="translate(-150.64 -528.56)"/><path class="cls-1" d="M223.64,601l-1.77,1-2.53,1.37a94.27,94.27,0,0,1-28.62-4.27,59.22,59.22,0,0,1-12.53-5.61l-.07,0a31.19,31.19,0,0,1-4.63-3.77l-.22-.23c9.89,7,27,11.66,46.42,11.66C221,601.08,222.34,601.06,223.64,601Z" transform="translate(-150.64 -528.56)"/><path class="cls-1" d="M220.49,613.08,215.1,616c-1.89-.08-3.76-.21-5.59-.38L214.4,613c1.67.08,3.37.12,5.09.12Z" transform="translate(-150.64 -528.56)"/><path class="cls-1" d="M219.72,610.09l-.39.21c-2,0-4-.06-5.94-.17h0l.2-.12.12-.07h0c1.88.11,3.8.16,5.75.16Z" transform="translate(-150.64 -528.56)"/><path class="cls-1" d="M219.64,588.22v.21a105,105,0,0,1-30.71-4.31l-.12,0a48.64,48.64,0,0,1-15.92-8.88,12.45,12.45,0,0,1-.83-1.5h0a12.7,12.7,0,0,1,.87-1.61l2.15,2.29c3.59,3.85,9.68,7.39,17.39,9.88a88.78,88.78,0,0,0,27,4Z" transform="translate(-150.64 -528.56)"/><path class="cls-1" d="M219.34,603.34l-1,.52c-16.47-.18-31-4.22-40.19-10.4a59.22,59.22,0,0,0,12.53,5.61A94.27,94.27,0,0,0,219.34,603.34Z" transform="translate(-150.64 -528.56)"/><path class="cls-1" d="M219.33,610.3,214.4,613c-1.87-.1-3.7-.24-5.5-.42l4.46-2.42h0C215.34,610.24,217.32,610.29,219.33,610.3Z" transform="translate(-150.64 -528.56)"/><path class="cls-1" d="M218.38,603.86l-5.21,2.82a93.66,93.66,0,0,1-20.08-3.33c-7.85-2.26-14.53-5.49-19.48-9.55-.36-.3-.72-.6-1.06-.91-.16-.29-.31-.57-.44-.86h0a12.91,12.91,0,0,1,1.18-2.08,39,39,0,0,0,4.83,3.48l.07,0C187.35,599.64,201.91,603.68,218.38,603.86Z" transform="translate(-150.64 -528.56)"/><path class="cls-1" d="M215.1,616,210,618.75c-1.74-.17-3.45-.38-5.11-.64l4.6-2.49C211.34,615.79,213.21,615.92,215.1,616Z" transform="translate(-150.64 -528.56)"/><path class="cls-1" d="M214.4,613l-4.89,2.65c-1.75-.16-3.46-.37-5.14-.62l.56-.31,4-2.14h0C210.7,612.73,212.53,612.87,214.4,613Z" transform="translate(-150.64 -528.56)"/><polygon class="cls-1" points="62.75 81.56 62.75 81.57 62.73 81.57 62.75 81.56"/><path class="cls-1" d="M210,618.75l-.44.24c-1.77-.15-3.52-.35-5.23-.58l.56-.3C206.57,618.37,208.28,618.58,210,618.75Z" transform="translate(-150.64 -528.56)"/><path class="cls-1" d="M209.58,619l-4.13,2.23c-1.63-.23-3.23-.5-4.79-.81l3.69-2C206.06,618.64,207.81,618.84,209.58,619Z" transform="translate(-150.64 -528.56)"/><path class="cls-1" d="M209.51,615.62l-4.6,2.49c-1.61-.25-3.18-.53-4.7-.86l4.15-2.25h0C206.05,615.25,207.76,615.46,209.51,615.62Z" transform="translate(-150.64 -528.56)"/><path class="cls-1" d="M207.62,609.69l-4,2.15h0c-13.36-2.15-24.32-7-30.42-13.19C181,604.17,193.27,608.22,207.62,609.69Z" transform="translate(-150.64 -528.56)"/><path class="cls-1" d="M205.45,621.22l-4.31,2.34c-1.54-.29-3-.61-4.52-1l4-2.19C202.22,620.72,203.82,621,205.45,621.22Z" transform="translate(-150.64 -528.56)"/><path class="cls-1" d="M204.91,618.11l-.56.3c-1.66-.22-3.27-.47-4.86-.77l.35-.19.37-.2C201.73,617.58,203.3,617.86,204.91,618.11Z" transform="translate(-150.64 -528.56)"/><path class="cls-1" d="M204.35,618.41l-3.69,2c-1.51-.3-3-.63-4.43-1l3.23-1.76h0C201.08,617.94,202.69,618.19,204.35,618.41Z" transform="translate(-150.64 -528.56)"/><path class="cls-1" d="M203.64,611.84l-4.22,2.29q-3.3-.68-6.38-1.56c-7.85-2.26-14.53-5.49-19.48-9.55l-.61-.51a13.3,13.3,0,0,1-1-2,10.78,10.78,0,0,1-.81-3.5q1,.83,2.1,1.62C179.32,604.88,190.28,609.69,203.64,611.84Z" transform="translate(-150.64 -528.56)"/><path class="cls-1" d="M201.14,623.56,157.78,647a.44.44,0,0,0-.17.16l-.05.23,0,.2.15.16.73.49-2.91,1.58a3.43,3.43,0,0,1,.79-5.46l40.26-21.8C198.09,623,199.6,623.27,201.14,623.56Z" transform="translate(-150.64 -528.56)"/><path class="cls-1" d="M200.66,620.41l-4,2.19c-1.18-.29-2.34-.59-3.48-.92l-.72-.21,1.89-1,.38-.21,1.52-.82h0C197.68,619.78,199.15,620.11,200.66,620.41Z" transform="translate(-150.64 -528.56)"/><path class="cls-1" d="M196.62,622.6l-40.26,21.8a3.43,3.43,0,0,0-.79,5.46l-2.7,1.46a5.67,5.67,0,0,1-.61-1,6.43,6.43,0,0,1,2.67-8.61l15-8.12c.22-.11.49-.25.81-.43l.34-.18.13-.07.07,0,0,0,21.13-11.44.72.21C194.28,622,195.44,622.31,196.62,622.6Z" transform="translate(-150.64 -528.56)"/><path class="cls-1" d="M194.75,616.66l-2.82,1.53c-8-2.54-14.43-6.15-18.61-10.42C178.64,611.53,186,614.62,194.75,616.66Z" transform="translate(-150.64 -528.56)"/><path class="cls-1" d="M191.93,618.19l-3.58,1.94h0a49.92,49.92,0,0,1-14.68-8,24.23,24.23,0,0,1-7.28-9.34,16.77,16.77,0,0,1-1.15-4.41c1.34,3.41,4.14,6.58,8.09,9.38C177.5,612,184,615.65,191.93,618.19Z" transform="translate(-150.64 -528.56)"/><polygon class="cls-1" points="40.49 141.71 37.51 143.32 37.5 143.32 34.7 141.44 37.68 139.82 40.49 141.71"/><polygon class="cls-1" points="37.68 139.82 34.7 141.44 31.89 139.54 34.87 137.93 37.68 139.82"/><polygon class="cls-1" points="37.5 143.32 34.53 144.94 31.73 143.05 34.7 141.44 37.5 143.32"/><polygon class="cls-1" points="34.87 137.93 31.89 139.54 29.79 138.13 32.77 136.52 34.87 137.93"/><polygon class="cls-1" points="34.7 141.44 31.73 143.05 28.92 141.16 31.89 139.54 34.7 141.44"/><polygon class="cls-1" points="32.77 136.52 29.79 138.13 29.09 137.65 32.06 136.04 32.77 136.52"/><polygon class="cls-1" points="32.06 136.04 29.09 137.65 26.28 135.76 29.26 134.15 32.06 136.04"/><polygon class="cls-1" points="31.89 139.54 28.92 141.16 26.82 139.74 29.79 138.13 31.89 139.54"/><polygon class="cls-1" points="31.37 146.65 28.48 148.21 25.68 146.33 28.59 144.75 31.37 146.65"/><polygon class="cls-1" points="29.79 138.13 26.82 139.74 26.11 139.26 29.09 137.65 29.79 138.13"/><polygon class="cls-1" points="29.26 134.15 26.28 135.76 23.47 133.87 26.45 132.26 29.26 134.15"/><polygon class="cls-1" points="29.09 137.65 26.11 139.26 23.3 137.37 26.28 135.76 29.09 137.65"/><polygon class="cls-1" points="28.59 144.75 25.68 146.33 22.86 144.43 25.8 142.84 28.59 144.75"/><polygon class="cls-1" points="28.48 148.21 25.5 149.83 22.7 147.94 25.68 146.33 28.48 148.21"/><path class="cls-1" d="M179.57,547.76c-.71.49-1.38,1-2,1.51a21,21,0,0,0-4.4,4.79l-.33-.35L170.66,556l-.21.23c-.27-.23-.53-.46-.78-.71l1-1A37.26,37.26,0,0,1,179.57,547.76Z" transform="translate(-150.64 -528.56)"/><polygon class="cls-1" points="26.45 132.26 23.47 133.87 21.38 132.46 24.36 130.85 26.45 132.26"/><polygon class="cls-1" points="26.28 135.76 23.3 137.37 20.5 135.48 23.47 133.87 26.28 135.76"/><polygon class="cls-1" points="25.8 142.84 22.86 144.43 20.77 143.02 23.72 141.42 25.8 142.84"/><polygon class="cls-1" points="25.68 146.33 22.7 147.94 19.89 146.04 22.86 144.43 25.68 146.33"/><path class="cls-1" d="M175.27,569.18c.34.37.71.73,1.1,1.1-.44-.34-.85-.67-1.25-1a20.75,20.75,0,0,1-1.8-1.68c.42.3.86.59,1.31.88h0c.19.24.41.47.63.71Z" transform="translate(-150.64 -528.56)"/><polygon class="cls-1" points="24.36 130.85 21.38 132.46 20.97 132.19 23.95 130.58 24.36 130.85"/><polygon class="cls-1" points="23.95 130.58 20.97 132.19 18.18 130.3 21.16 128.69 23.95 130.58"/><path class="cls-1" d="M178.12,593.42a39,39,0,0,1-4.83-3.48,12.91,12.91,0,0,0-1.18,2.08,5.51,5.51,0,0,1-.28-.61,10.87,10.87,0,0,1-.81-3.48l0-.07.06-.08c.67.55,1.37,1.1,2.13,1.63h0l.22.23A31.19,31.19,0,0,0,178.12,593.42Z" transform="translate(-150.64 -528.56)"/><polygon class="cls-1" points="23.72 141.42 20.77 143.02 20.06 142.54 23.01 140.94 23.72 141.42"/><path class="cls-1" d="M178,584.26a38.37,38.37,0,0,1-4.76-3.43q-.16.23-.3.45l-1,1-.05-.11a10.71,10.71,0,0,1-.79-3.32c0-.06,0-.12,0-.18.64.53,1.31,1,2,1.56A30.81,30.81,0,0,0,178,584.26Z" transform="translate(-150.64 -528.56)"/><polygon class="cls-1" points="23.47 133.87 20.5 135.48 18.4 134.07 21.38 132.46 23.47 133.87"/><path class="cls-1" d="M174.63,568.46c-.45-.29-.89-.58-1.31-.88l0,0,0,0-.32-.33-.05.06c-.52-.37-1-.76-1.5-1.15a12.57,12.57,0,0,1,.57-1.54l.09-.19.16.36A15.51,15.51,0,0,0,174.63,568.46Z" transform="translate(-150.64 -528.56)"/><path class="cls-1" d="M174.6,572.71c-.47-.36-.92-.72-1.36-1.1a4.22,4.22,0,0,0-.31.47l0,0-1.07,1.14,0-.1a10.93,10.93,0,0,1-.81-3.48h0l.05-.05.3-.42a22.75,22.75,0,0,0,1.77,2.11C173.56,571.73,174.06,572.22,174.6,572.71Z" transform="translate(-150.64 -528.56)"/><polygon class="cls-1" points="23.02 151.17 20.06 152.77 17.26 150.89 20.24 149.27 20.28 149.3 21.31 150 23.02 151.17"/><polygon class="cls-1" points="23.01 140.94 20.06 142.54 17.25 140.65 20.23 139.04 20.28 139.07 23.01 140.94"/><polygon class="cls-1" points="22.86 144.43 19.89 146.04 17.8 144.63 20.77 143.02 22.86 144.43"/><path class="cls-1" d="M172.94,567.2l.32.33-.37-.27Z" transform="translate(-150.64 -528.56)"/><path class="cls-1" d="M172.84,553.71l.33.35a14.25,14.25,0,0,0-1.14,2.18c-.14.35-.26.69-.37,1-.42-.32-.82-.66-1.21-1l.21-.23Z" transform="translate(-150.64 -528.56)"/><path class="cls-1" d="M172.89,572l0,0a12.7,12.7,0,0,0-.87,1.61q-.13-.26-.24-.51Z" transform="translate(-150.64 -528.56)"/><path class="cls-1" d="M171.93,582.3l1-1a13.52,13.52,0,0,0-.78,1.43A3,3,0,0,1,171.93,582.3Z" transform="translate(-150.64 -528.56)"/><path class="cls-1" d="M172.55,592.89l-.58-.54c0-.11.09-.21.14-.32C172.24,592.32,172.39,592.6,172.55,592.89Z" transform="translate(-150.64 -528.56)"/><path class="cls-1" d="M172.11,582.71a15.06,15.06,0,0,0,.79,1.47c-.35-.31-.7-.62-1-.94,0-.11.09-.22.14-.33A1.86,1.86,0,0,1,172.11,582.71Z" transform="translate(-150.64 -528.56)"/><path class="cls-1" d="M172.06,573.7a12.45,12.45,0,0,0,.83,1.5c-.37-.32-.72-.65-1.06-1h0C171.9,574.05,172,573.87,172.06,573.7Z" transform="translate(-150.64 -528.56)"/><path class="cls-1" d="M171.93,600.53a13.3,13.3,0,0,0,1,2,26.88,26.88,0,0,1-4.82-5.37v0c0-.21,0-.42,0-.64a13.3,13.3,0,0,1,.18-2.19,25.49,25.49,0,0,0,2.83,2.74A10.78,10.78,0,0,0,171.93,600.53Z" transform="translate(-150.64 -528.56)"/><path class="cls-1" d="M171.39,566.11c.48.39,1,.78,1.5,1.15a24.19,24.19,0,0,0-1.57,1.86l-.35-.49h0A9.84,9.84,0,0,1,171.39,566.11Z" transform="translate(-150.64 -528.56)"/><path class="cls-1" d="M172.11,592h0c-.05.11-.1.21-.14.32a28.36,28.36,0,0,1-2.22-2.32,17.78,17.78,0,0,1,1.27-2.1,10.87,10.87,0,0,0,.81,3.48A5.51,5.51,0,0,0,172.11,592Z" transform="translate(-150.64 -528.56)"/><path class="cls-1" d="M171.93,582.3a3,3,0,0,0,.18.41,1.86,1.86,0,0,0-.1.2c0,.11-.1.22-.14.33l-.44-.42Z" transform="translate(-150.64 -528.56)"/><path class="cls-1" d="M172.06,573.69h0c-.08.17-.16.35-.23.52l-.51-.51.5-.53Q171.93,573.44,172.06,573.69Z" transform="translate(-150.64 -528.56)"/><path class="cls-1" d="M171.89,564c.05.14.1.28.16.43l-.09.19a12.57,12.57,0,0,0-.57,1.54c-.29-.24-.57-.48-.84-.73l.21-.23Z" transform="translate(-150.64 -528.56)"/><polygon class="cls-1" points="21.38 132.46 18.4 134.07 18 133.8 20.97 132.19 21.38 132.46"/><path class="cls-1" d="M171.88,582.19l.05.11-.5.52c-.63-.62-1.23-1.26-1.78-1.91a16.46,16.46,0,0,1,1.32-2.16l.06-.09a.05.05,0,0,1,0,0c0,.06,0,.12,0,.18A10.71,10.71,0,0,0,171.88,582.19Z" transform="translate(-150.64 -528.56)"/><path class="cls-1" d="M171.89,564l-1.13,1.2-.21.23c-.37-.31-.72-.64-1.05-1-.16.16-.32.32-.46.48-.07-.19-.14-.39-.2-.59a16.3,16.3,0,0,1,2.09-3.88c.09-.14.19-.27.29-.4a2.44,2.44,0,0,0,0,.27,3.17,3.17,0,0,0,0,.44A10.16,10.16,0,0,0,171.89,564Z" transform="translate(-150.64 -528.56)"/><path class="cls-1" d="M171.78,573.08l0,.1-.5.53c-.15-.14-.28-.29-.42-.43-.45-.47-.87-.95-1.27-1.45A17.8,17.8,0,0,1,171,569.6,10.93,10.93,0,0,0,171.78,573.08Z" transform="translate(-150.64 -528.56)"/><polygon class="cls-1" points="21.16 128.69 18.18 130.3 18.17 130.3 15.37 128.41 18.35 126.8 21.16 128.69"/><polygon class="cls-1" points="20.97 132.19 18 133.8 15.2 131.92 18.17 130.3 18.18 130.3 20.97 132.19"/><path class="cls-1" d="M171.66,557.28a10.49,10.49,0,0,0-.4,2c-.21-.2-.41-.41-.61-.62l-1.17-1.25c.31-.38.63-.75,1-1.11C170.84,556.62,171.24,557,171.66,557.28Z" transform="translate(-150.64 -528.56)"/><polygon class="cls-1" points="20.77 143.02 17.8 144.63 17.08 144.15 20.06 142.54 20.77 143.02"/><path class="cls-1" d="M170.55,565.38c.27.25.55.49.84.73a9.84,9.84,0,0,0-.42,2.51,15.39,15.39,0,0,1-1.29-2.24C170,566,170.24,565.71,170.55,565.38Z" transform="translate(-150.64 -528.56)"/><path class="cls-1" d="M171,568.63l.35.49-.3.42-.05.05c0-.18,0-.37,0-.56S171,568.76,171,568.63Z" transform="translate(-150.64 -528.56)"/><path class="cls-1" d="M171.26,559.24h0l0,.34c0,.14,0,.28,0,.43s-.2.26-.29.4a16.3,16.3,0,0,0-2.09,3.88,13,13,0,0,1-.63-4,11.9,11.9,0,0,1,.07-1.34c.37-.54.77-1.07,1.2-1.58l1.17,1.25C170.85,558.83,171.05,559,171.26,559.24Z" transform="translate(-150.64 -528.56)"/><path class="cls-1" d="M171.13,587.78l-.06.08,0,.07v-.24A.44.44,0,0,1,171.13,587.78Z" transform="translate(-150.64 -528.56)"/><path class="cls-2" d="M171.07,578.61v.08a.05.05,0,0,0,0,0Z" transform="translate(-150.64 -528.56)"/><path class="cls-1" d="M171,578.66l-.06.09a16.46,16.46,0,0,0-1.32,2.16,23.88,23.88,0,0,1-1.57-2.1h0c0-.22,0-.44,0-.66s0-.31,0-.46c.24-.37.5-.73.76-1.09A27.43,27.43,0,0,0,171,578.66Z" transform="translate(-150.64 -528.56)"/><path class="cls-1" d="M171,587.69v.24a17.78,17.78,0,0,0-1.27,2.1,25.42,25.42,0,0,1-1.73-2.36c0-.1,0-.21,0-.31s0-.22,0-.33c.28-.45.58-.89.91-1.32a28.28,28.28,0,0,0,2.09,2Z" transform="translate(-150.64 -528.56)"/><path class="cls-1" d="M171,569.59h0a17.8,17.8,0,0,0-1.34,2.23,22.78,22.78,0,0,1-1.66-2.31c0-.16,0-.33,0-.49s0-.23,0-.34a20.22,20.22,0,0,1,1.71-2.31,15.39,15.39,0,0,0,1.29,2.24h0c0,.13,0,.27,0,.4S171,569.41,171,569.59Z" transform="translate(-150.64 -528.56)"/><polygon class="cls-1" points="20.24 149.27 17.26 150.89 14.45 148.99 17.43 147.38 20.24 149.27"/><polygon class="cls-1" points="20.23 139.04 17.25 140.65 14.45 138.76 17.43 137.15 20.23 139.04"/><polygon class="cls-1" points="20.06 142.54 17.08 144.15 14.27 142.26 17.25 140.65 20.06 142.54"/><polygon class="cls-1" points="20.06 152.77 17.08 154.38 14.28 152.5 17.26 150.89 20.06 152.77"/><path class="cls-1" d="M170.55,565.38c-.31.33-.6.66-.87,1a12.15,12.15,0,0,1-.64-1.49c.14-.16.3-.32.46-.48C169.83,564.74,170.18,565.07,170.55,565.38Z" transform="translate(-150.64 -528.56)"/><path class="cls-1" d="M169.67,555.55c.25.25.51.48.78.71-.34.36-.66.73-1,1.11l-.74-.79,0-.06Z" transform="translate(-150.64 -528.56)"/><path class="cls-1" d="M169.67,555.55l-.91,1q.12-.42.27-.84h0c.11-.13.23-.25.36-.38Z" transform="translate(-150.64 -528.56)"/><path class="cls-1" d="M168.74,556.58l.74.79c-.43.51-.83,1-1.2,1.58A13.78,13.78,0,0,1,168.74,556.58Z" transform="translate(-150.64 -528.56)"/><path class="cls-1" d="M169,564.89a12.15,12.15,0,0,0,.64,1.49,20.22,20.22,0,0,0-1.71,2.31,12.89,12.89,0,0,1,.46-3.15C168.62,565.32,168.82,565.1,169,564.89Z" transform="translate(-150.64 -528.56)"/><path class="cls-1" d="M168.84,564.3c.06.2.13.4.2.59-.22.21-.42.43-.61.65C168.55,565.12,168.68,564.71,168.84,564.3Z" transform="translate(-150.64 -528.56)"/><path class="cls-1" d="M169,555.68q-.15.42-.27.84l0,0,0,0a13.78,13.78,0,0,0-.46,2.37,19.74,19.74,0,0,0-1.79,3.15,17.92,17.92,0,0,0-.8,2.11,15.79,15.79,0,0,1-.45-3.07A18.14,18.14,0,0,1,169,555.68Z" transform="translate(-150.64 -528.56)"/><polygon class="cls-1" points="18.35 126.8 15.37 128.41 13.28 127 16.25 125.39 18.35 126.8"/><path class="cls-1" d="M168.24,585c.22.25.45.51.69.76-.33.43-.63.87-.91,1.32A12,12,0,0,1,168.24,585Z" transform="translate(-150.64 -528.56)"/><path class="cls-1" d="M168.24,576l.59.64c-.26.36-.52.72-.76,1.09A14.27,14.27,0,0,1,168.24,576Z" transform="translate(-150.64 -528.56)"/><polygon class="cls-1" points="18.17 130.3 15.2 131.92 12.39 130.02 15.37 128.41 18.17 130.3"/><path class="cls-1" d="M168.76,556.52l0,.06,0,0Z" transform="translate(-150.64 -528.56)"/><path class="cls-1" d="M168.84,564.3c-.16.41-.29.82-.41,1.24a18.3,18.3,0,0,0-1.55,2c0-.1-.1-.19-.14-.29a17.89,17.89,0,0,1-1.05-3,17.92,17.92,0,0,1,.8-2.11,19.74,19.74,0,0,1,1.79-3.15,11.9,11.9,0,0,0-.07,1.34A13,13,0,0,0,168.84,564.3Z" transform="translate(-150.64 -528.56)"/><path class="cls-1" d="M168.24,575.94h0a14.27,14.27,0,0,0-.17,1.73c-.13.19-.25.37-.36.56-.31-.5-.6-1-.86-1.54.29-.43.61-.85,1-1.27C167.94,575.6,168.08,575.77,168.24,575.94Z" transform="translate(-150.64 -528.56)"/><path class="cls-1" d="M167.9,584.55c.11.13.22.27.34.4A12,12,0,0,0,168,587c-.07.11-.14.21-.2.32a16.65,16.65,0,0,1-.87-1.53C167.24,585.39,167.56,585,167.9,584.55Z" transform="translate(-150.64 -528.56)"/><path class="cls-1" d="M168.11,596.48c0,.22,0,.43,0,.64l-.53-.82a19.47,19.47,0,0,1-1.32-2.62c-.21-.52-.4-1-.56-1.58.09-.33.19-.65.3-1a18.69,18.69,0,0,0,2.27,3.16A13.3,13.3,0,0,0,168.11,596.48Z" transform="translate(-150.64 -528.56)"/><path class="cls-1" d="M168.06,578.14c0,.22,0,.44,0,.66-.13-.18-.25-.37-.37-.56.11-.19.23-.37.36-.56C168.06,577.83,168.06,578,168.06,578.14Z" transform="translate(-150.64 -528.56)"/><polygon class="cls-1" points="17.43 137.15 14.45 138.76 12.35 137.35 15.33 135.74 17.43 137.15"/><polygon class="cls-1" points="17.43 147.38 14.45 148.99 12.36 147.58 15.33 145.97 17.43 147.38"/><path class="cls-1" d="M168,587c0,.11,0,.22,0,.33s0,.21,0,.31a3.45,3.45,0,0,1-.2-.32C167.88,587.24,168,587.14,168,587Z" transform="translate(-150.64 -528.56)"/><path class="cls-1" d="M168.43,565.54a12.89,12.89,0,0,0-.46,3.15l-.25.4a17.13,17.13,0,0,1-.84-1.58A18.3,18.3,0,0,1,168.43,565.54Z" transform="translate(-150.64 -528.56)"/><path class="cls-1" d="M168,568.69c0,.11,0,.23,0,.34s0,.33,0,.49l-.25-.43Z" transform="translate(-150.64 -528.56)"/><polygon class="cls-1" points="17.26 150.89 14.28 152.5 11.47 150.6 14.45 148.99 17.26 150.89"/><polygon class="cls-1" points="17.25 140.65 14.27 142.26 11.47 140.37 14.45 138.76 17.25 140.65"/><path class="cls-1" d="M167.9,584.55c-.34.42-.66.84-1,1.27-.23-.45-.43-.9-.62-1.35a16.8,16.8,0,0,1-.62-1.81,9.06,9.06,0,0,1,.29-.88A18,18,0,0,0,167.9,584.55Z" transform="translate(-150.64 -528.56)"/><path class="cls-1" d="M167.8,575.43c-.34.42-.66.84-1,1.27-.23-.45-.43-.9-.62-1.35s-.4-1.05-.56-1.59h0c.09-.33.19-.64.3-1A18.41,18.41,0,0,0,167.8,575.43Z" transform="translate(-150.64 -528.56)"/><polygon class="cls-1" points="16.25 125.39 13.28 127 13.27 127 12.55 126.52 15.53 124.9 16.25 125.39"/><polygon class="cls-1" points="15.53 124.9 12.55 126.52 9.75 124.63 12.73 123.01 15.53 124.9"/><path class="cls-1" d="M166,591.13c-.11.32-.21.64-.3,1a16.18,16.18,0,0,1-.59-2.83A13.16,13.16,0,0,0,166,591.13Z" transform="translate(-150.64 -528.56)"/><polygon class="cls-1" points="15.37 128.41 12.39 130.02 10.3 128.62 13.27 127 13.28 127 15.37 128.41"/><polygon class="cls-1" points="15.33 135.74 12.35 137.35 11.95 137.08 14.93 135.46 15.33 135.74"/><polygon class="cls-1" points="15.33 145.97 12.36 147.58 11.64 147.1 14.62 145.49 15.33 145.97"/><path class="cls-1" d="M166,581.78a9.06,9.06,0,0,0-.29.88,15.37,15.37,0,0,1-.53-2.6A13.49,13.49,0,0,0,166,581.78Z" transform="translate(-150.64 -528.56)"/><path class="cls-1" d="M166,572.79c-.11.32-.21.63-.3,1a15.88,15.88,0,0,1-.59-2.82A13.16,13.16,0,0,0,166,572.79Z" transform="translate(-150.64 -528.56)"/><polygon class="cls-1" points="14.93 135.46 11.95 137.08 9.15 135.19 12.13 133.58 14.93 135.46"/><polygon class="cls-1" points="14.62 145.49 11.64 147.1 8.83 145.21 11.81 143.6 14.62 145.49"/><path class="cls-2" d="M165.13,589.26h0Z" transform="translate(-150.64 -528.56)"/><polygon class="cls-1" points="14.45 138.76 11.47 140.37 9.38 138.97 12.35 137.35 14.45 138.76"/><polygon class="cls-1" points="14.45 148.99 11.47 150.6 9.38 149.2 12.36 147.58 14.45 148.99"/><path class="cls-2" d="M165.08,570.92h0Z" transform="translate(-150.64 -528.56)"/><polygon class="cls-1" points="14.01 156.05 11.03 157.66 8.23 155.77 11.21 154.16 14.01 156.05"/><polygon class="cls-1" points="13.27 127 10.3 128.62 9.58 128.13 12.55 126.52 13.27 127"/><polygon class="cls-1" points="12.73 123.01 9.75 124.63 6.95 122.74 9.93 121.13 12.73 123.01"/><polygon class="cls-1" points="12.55 126.52 9.58 128.13 6.77 126.24 9.75 124.63 12.55 126.52"/><polygon class="cls-1" points="12.36 147.58 9.38 149.2 8.66 148.71 11.64 147.1 12.36 147.58"/><polygon class="cls-1" points="12.35 137.35 9.38 138.97 8.97 138.69 11.95 137.08 12.35 137.35"/><polygon class="cls-1" points="12.13 133.58 9.15 135.19 6.34 133.3 9.32 131.69 12.13 133.58"/><polygon class="cls-1" points="11.95 137.08 8.97 138.69 6.17 136.81 9.15 135.19 11.95 137.08"/><polygon class="cls-1" points="11.81 143.6 8.83 145.21 6.03 143.32 9.01 141.71 11.81 143.6"/><polygon class="cls-1" points="11.64 147.1 8.66 148.71 5.85 146.82 8.83 145.21 11.64 147.1"/><polygon class="cls-1" points="11.21 154.16 8.23 155.77 5.42 153.88 8.4 152.27 11.21 154.16"/><polygon class="cls-1" points="11.03 157.66 8.05 159.27 5.25 157.38 8.23 155.77 11.03 157.66"/><path class="cls-1" d="M160.57,649.69l-3,1.61-1.52-1a2.93,2.93,0,0,1-.5-.42l2.91-1.58Z" transform="translate(-150.64 -528.56)"/><path class="cls-1" d="M160.39,653.19l-3,1.61-2.79-1.88.31-.18,2.66-1.44Z" transform="translate(-150.64 -528.56)"/><path class="cls-1" d="M160,660.25l-3,1.61-.91-.61a3.4,3.4,0,0,1-.93-.92h0l2.73-1.48Z" transform="translate(-150.64 -528.56)"/><path class="cls-1" d="M159.79,663.75l-3,1.62-2.41-1.63a3.55,3.55,0,0,1-.31-.23,6,6,0,0,1,.84-.54l2-1.11Z" transform="translate(-150.64 -528.56)"/><path class="cls-1" d="M159.65,670.27l-3,1.61-.6-.4a3.36,3.36,0,0,1-1.11-1.21l2.65-1.43.14.15Z" transform="translate(-150.64 -528.56)"/><path class="cls-1" d="M159.47,673.77l-3,1.61L154.4,674a6.57,6.57,0,0,1-.65-.5l.26-.15,2.66-1.44Z" transform="translate(-150.64 -528.56)"/><path class="cls-1" d="M159,680.83l-3,1.61-.9-.61a3.33,3.33,0,0,1-.94-.93l2.73-1.48Z" transform="translate(-150.64 -528.56)"/><path class="cls-1" d="M158.87,684.33l-3,1.61-2.41-1.62a3.55,3.55,0,0,1-.31-.23,6,6,0,0,1,.84-.54l2.05-1.11Z" transform="translate(-150.64 -528.56)"/><path class="cls-1" d="M157.87,658.84l-2.73,1.48a3.46,3.46,0,0,1-.16-3.59l2.6,1.79,0,.08.15.16Z" transform="translate(-150.64 -528.56)"/><path class="cls-1" d="M157.61,668.84,155,670.27a3.48,3.48,0,0,1,0-3.3l2.6,1.78,0,.08Z" transform="translate(-150.64 -528.56)"/><path class="cls-1" d="M157.59,651.3l-2.66,1.44-.31.18-.22-.15a6.42,6.42,0,0,1-1.53-1.45l2.7-1.46a2.93,2.93,0,0,0,.5.42Z" transform="translate(-150.64 -528.56)"/><path class="cls-1" d="M157,661.86l-2,1.11a6,6,0,0,0-.84.54,6.18,6.18,0,0,1-1.59-1.76l2.64-1.42a3.4,3.4,0,0,0,.93.92Z" transform="translate(-150.64 -528.56)"/><path class="cls-1" d="M157,679.42l-2.73,1.48a3.49,3.49,0,0,1-.16-3.58l2.61,1.78,0,.08.14.16Z" transform="translate(-150.64 -528.56)"/><path class="cls-1" d="M156.67,671.88,154,673.32l-.26.15a6.67,6.67,0,0,1-1.42-1.77l2.63-1.43a3.36,3.36,0,0,0,1.11,1.21Z" transform="translate(-150.64 -528.56)"/><path class="cls-1" d="M156.06,682.44,154,683.55a6,6,0,0,0-.84.54,6.18,6.18,0,0,1-1.59-1.76l2.64-1.43a3.33,3.33,0,0,0,.94.93Z" transform="translate(-150.64 -528.56)"/><path class="cls-1" d="M155.14,660.32h0l-2.64,1.42a3.38,3.38,0,0,1-.24-.41,6.54,6.54,0,0,1,.14-6.15l.09-.15,2.49,1.69A3.46,3.46,0,0,0,155.14,660.32Z" transform="translate(-150.64 -528.56)"/><path class="cls-1" d="M152.49,665.27,155,667a3.48,3.48,0,0,0,0,3.3l-2.63,1.43-.07-.13a6.54,6.54,0,0,1,.14-6.15Z" transform="translate(-150.64 -528.56)"/><path class="cls-1" d="M154.22,680.9l-2.64,1.43c-.08-.13-.16-.27-.23-.41a6.47,6.47,0,0,1,.14-6.15l.09-.15,2.48,1.7A3.49,3.49,0,0,0,154.22,680.9Z" transform="translate(-150.64 -528.56)"/></svg>