<?xml version="1.0" encoding="utf-8"?>
<!-- Generator: Adobe Illustrator 26.0.3, SVG Export Plug-In . SVG Version: 6.00 Build 0)  -->
<svg version="1.1" id="Layer_1" xmlns="http://www.w3.org/2000/svg" xmlns:xlink="http://www.w3.org/1999/xlink" x="0px" y="0px"
	 viewBox="0 0 534.8 575.9" style="enable-background:new 0 0 534.8 575.9;" xml:space="preserve">
<style type="text/css">
	.st0{fill:#FFFFFF;}
	.st1{fill:#231F20;}
</style>
<g>
	<path class="st0" d="M417.7,569.9H98.9c-11.9,0-19.8-9.6-17.7-21.5l85.5-485C168.8,51.6,180.1,42,192,42h318.8
		c11.9,0,19.8,9.6,17.7,21.5l-85.5,485C440.9,560.3,429.6,569.9,417.7,569.9z"/>
	<path class="st1" d="M417.7,575.9H98.9c-7.5,0-14.1-3-18.6-8.3c-4.6-5.4-6.4-12.6-5-20.2l85.5-485C163.4,47.6,177.1,36,192,36
		h318.8c7.5,0,14.1,3,18.6,8.3c4.6,5.4,6.4,12.6,5,20.2l-85.5,485C446.3,564.3,432.6,575.9,417.7,575.9z M192,48
		c-8.9,0-17.8,7.6-19.4,16.5l-85.5,485c-0.7,4,0.1,7.7,2.4,10.4c2.2,2.6,5.5,4,9.4,4h318.8c8.9,0,17.8-7.6,19.4-16.5l85.5-485
		c0.7-4-0.1-7.7-2.4-10.4c-2.2-2.6-5.5-4-9.4-4H192z"/>
</g>
<g>
	<path class="st0" d="M402.7,553.2H83.9c-11.9,0-19.8-9.6-17.7-21.5l85.5-485c2.1-11.9,13.5-21.5,25.3-21.5h318.8
		c11.9,0,19.8,9.6,17.7,21.5l-85.5,485C425.9,543.6,414.6,553.2,402.7,553.2z"/>
	<path class="st1" d="M402.7,559.2H83.9c-7.5,0-14.1-3-18.6-8.3c-4.6-5.5-6.4-12.6-5-20.2l85.5-485c2.6-14.8,16.3-26.4,31.2-26.4
		h318.8c7.5,0,14.1,3,18.6,8.3c4.6,5.4,6.4,12.6,5,20.2l-85.5,485C431.3,547.6,417.6,559.2,402.7,559.2z M177,31.2
		c-8.9,0-17.8,7.6-19.4,16.5l-85.5,485c-0.7,4,0.1,7.7,2.4,10.4c2.2,2.6,5.5,4,9.4,4h318.8c8.9,0,17.8-7.6,19.4-16.5l85.5-485
		c0.7-4-0.1-7.7-2.4-10.4c-2.2-2.6-5.5-4-9.4-4H177z"/>
</g>
<g>
	<path class="st0" d="M497.8,25.3c0,0.7-0.1,1.4-0.3,2.1L495,42l-83,470.5c-2.1,11.9-13.4,21.5-25.3,21.5H68c-0.7,0-1.3,0-2-0.1
		c-10.7-1-17.7-10.2-15.7-21.4l1.5-8.5l2.1-12l3.4-19.4l2.1-12l7.3-41.5l2.1-12l3.4-19.4l2.1-12l7.3-41.5l2.1-12l3.4-19.4l2.1-12
		l7.3-41.5l2.1-12l3.4-19.4l2.1-12l7.3-41.5l2.1-12l3.4-19.4l2.1-12l7.3-41.5l2.1-12l3.4-19.4l2.1-12l1.5-8.5
		C137.9,15.6,149.2,6,161,6h318.8C491,6,498.7,14.5,497.8,25.3z"/>
	<path class="st1" d="M386.8,540H68c-7.5,0-14.1-3-18.6-8.3c-4.6-5.5-6.4-12.6-5-20.2l85.5-485C132.5,11.6,146.2,0,161,0h318.8
		c7.5,0,14.1,3,18.6,8.3c4.6,5.5,6.4,12.6,5,20.2l-85.5,485C415.3,528.3,401.6,540,386.8,540z M161,12c-8.9,0-17.8,7.6-19.4,16.5
		l-85.5,485c-0.7,4,0.1,7.7,2.4,10.4c2.2,2.6,5.5,4,9.4,4h318.8c8.9,0,17.8-7.6,19.4-16.5l85.5-485c0.7-4-0.1-7.7-2.4-10.4
		c-2.2-2.6-5.5-4-9.4-4H161z"/>
</g>
<g>
	<path class="st1" d="M161.3,73.4H94c-8.7,0-14.5-7-12.9-15.7l0,0C82.6,49,90.9,42,99.6,42h67.3c8.7,0,14.5,7,12.9,15.7l0,0
		C178.3,66.3,170,73.4,161.3,73.4z"/>
	<path class="st0" d="M182.7,43.9c-0.3-0.5-0.7-0.9-1-1.3c-3.6-4.3-8.9-6.6-14.8-6.6h-32.6l-2.1,12h34.7c2.4,0,4.4,0.8,5.6,2.4
		c0.2,0.2,0.3,0.4,0.4,0.6c1,1.5,1.3,3.5,1,5.7c-0.7,4.1-3.9,7.8-7.7,9.6c-1.5,0.7-3.2,1.1-4.9,1.1h-32.6l-2.1,12h34.7
		c0.9,0,1.8,0,2.6-0.2c10.6-1.2,19.9-9.8,21.8-20.5C186.7,53.4,185.5,48.1,182.7,43.9z"/>
	<path class="st0" d="M87,58.7c-0.4,2.5,0.1,4.7,1.4,6.3c1.3,1.5,3.3,2.4,5.6,2.4h34.7l-2.1,12H94c-6,0-11.2-2.4-14.8-6.7
		c-3.6-4.3-5.1-10.2-4-16.1C77.2,45,88,36,99.6,36h34.7l-2.1,12H99.6C93.8,48,88,52.9,87,58.7z"/>
</g>
<g>
	<path class="st1" d="M146.4,158.3H79.1c-8.7,0-14.5-7-12.9-15.7l0,0c1.5-8.7,9.8-15.7,18.5-15.7h67.3c8.7,0,14.5,7,12.9,15.7l0,0
		C163.3,151.2,155,158.3,146.4,158.3z"/>
	<path class="st0" d="M146.4,164.3H79.1c-6,0-11.2-2.4-14.8-6.6c-3.7-4.4-5.1-10.1-4-16.1c2-11.6,12.8-20.7,24.4-20.7h67.3
		c6,0,11.2,2.4,14.8,6.6c3.6,4.3,5.1,10.2,4,16.1C168.7,155.2,158,164.3,146.4,164.3z M84.6,132.9c-5.8,0-11.5,4.9-12.6,10.8
		c-0.4,2.5,0.1,4.7,1.4,6.3c1.3,1.5,3.3,2.4,5.6,2.4h67.3c5.8,0,11.5-4.9,12.6-10.8c0.4-2.5-0.1-4.7-1.4-6.3
		c-1.3-1.5-3.3-2.4-5.6-2.4H84.6z"/>
</g>
<g>
	<path class="st1" d="M131.4,243.2H64.1c-8.7,0-14.5-7-13-15.7l0,0c1.5-8.7,9.8-15.7,18.5-15.7h67.3c8.7,0,14.5,7,13,15.7l0,0
		C148.3,236.2,140,243.2,131.4,243.2z"/>
	<path class="st0" d="M131.4,249.2H64.1c-6,0-11.2-2.4-14.8-6.7c-3.7-4.4-5.1-10.1-4-16.1c2-11.6,12.8-20.7,24.4-20.7h67.3
		c6,0,11.2,2.4,14.8,6.7c3.6,4.3,5.1,10.2,4,16.1C153.7,240.2,143,249.2,131.4,249.2z M69.6,217.8c-5.8,0-11.6,4.9-12.6,10.8
		c-0.4,2.5,0.1,4.7,1.4,6.3c1.3,1.5,3.3,2.4,5.6,2.4h67.3c5.8,0,11.6-4.9,12.6-10.8c0.4-2.5-0.1-4.7-1.4-6.3
		c-1.3-1.5-3.3-2.4-5.6-2.4H69.6z"/>
</g>
<g>
	<path class="st1" d="M116.4,328.1H49.1c-8.7,0-14.5-7-12.9-15.7l0,0c1.5-8.7,9.8-15.7,18.5-15.7h67.3c8.7,0,14.5,7,12.9,15.7l0,0
		C133.4,321.1,125.1,328.1,116.4,328.1z"/>
	<path class="st0" d="M116.4,334.2H49.1c-6,0-11.2-2.4-14.8-6.6c-3.6-4.3-5.1-10.2-4-16.1c2-11.6,12.8-20.7,24.4-20.7h67.3
		c6,0,11.2,2.4,14.8,6.6c3.7,4.4,5.1,10.1,4,16.1C138.7,325.1,128,334.2,116.4,334.2z M54.7,302.7c-5.8,0-11.5,4.9-12.6,10.8
		c-0.4,2.5,0.1,4.7,1.4,6.3c1.3,1.5,3.3,2.4,5.6,2.4h67.3c5.8,0,11.5-4.9,12.6-10.8c0.4-2.5-0.1-4.7-1.4-6.3
		c-1.3-1.5-3.3-2.4-5.6-2.4H54.7z"/>
</g>
<g>
	<path class="st1" d="M101.4,413.1H34.2c-8.7,0-14.5-7-12.9-15.7l0,0c1.5-8.7,9.8-15.7,18.5-15.7H107c8.7,0,14.5,7,12.9,15.7l0,0
		C118.4,406,110.1,413.1,101.4,413.1z"/>
	<path class="st0" d="M101.4,419.1H34.2c-6,0-11.2-2.4-14.8-6.6c-3.6-4.3-5.1-10.2-4-16.1c2-11.6,12.8-20.7,24.4-20.7H107
		c6,0,11.2,2.4,14.8,6.6c3.6,4.3,5.1,10.2,4,16.1C123.8,410,113,419.1,101.4,419.1z M39.7,387.6c-5.8,0-11.5,4.9-12.6,10.8
		c-0.4,2.5,0.1,4.7,1.4,6.3c1.3,1.5,3.3,2.4,5.6,2.4h67.2c5.8,0,11.6-4.9,12.6-10.8c0.4-2.5-0.1-4.7-1.4-6.3
		c-1.3-1.5-3.3-2.4-5.6-2.4H39.7z"/>
</g>
<g>
	<path class="st1" d="M86.5,498H19.2c-8.7,0-14.5-7-13-15.7l0,0c1.5-8.7,9.8-15.7,18.5-15.7H92c8.7,0,14.5,7,13,15.7l0,0
		C103.4,491,95.1,498,86.5,498z"/>
	<path class="st0" d="M86.5,504H19.2c-5.9,0-11.2-2.4-14.8-6.6c-3.7-4.3-5.1-10.1-4.1-16.1c2-11.6,12.8-20.7,24.4-20.7H92
		c5.9,0,11.2,2.4,14.8,6.6c3.7,4.3,5.1,10.1,4.1,16.1C108.8,494.9,98.1,504,86.5,504z M24.7,472.6c-5.8,0-11.6,4.9-12.6,10.8
		c-0.4,2.5,0.1,4.7,1.4,6.3c1.3,1.5,3.3,2.4,5.6,2.4h67.2c5.8,0,11.6-4.9,12.6-10.8c0.4-2.4-0.1-4.7-1.4-6.3
		c-1.3-1.5-3.3-2.4-5.6-2.4H24.7z"/>
</g>
<g>
	<path class="st0" d="M395.6,204.7H191.3c-9.4,0-16.5-7-14.8-14.8l22.8-107.9c1.3-6,7.5-10.4,14.8-10.4h204.4
		c9.4,0,16.4,7,14.8,14.8l-22.8,107.9C409.2,200.4,402.9,204.7,395.6,204.7z"/>
	<path class="st1" d="M395.6,210.7H191.3c-6.8,0-13.2-2.9-17.1-7.7c-3.4-4.1-4.6-9.2-3.6-14.2l22.8-107.9
		c1.9-8.8,10.6-15.1,20.7-15.1h204.4c6.8,0,13.2,2.9,17.1,7.8c3.4,4.1,4.6,9.2,3.6,14.2l-22.8,107.9
		C414.5,204.4,405.8,210.7,395.6,210.7z M214,77.7c-4.4,0-8.3,2.4-9,5.6l-22.7,107.9c-0.4,1.8,0.4,3.3,1.1,4.2
		c1.7,2.1,4.6,3.3,7.8,3.3h204.4c4.4,0,8.3-2.4,8.9-5.6l22.8-107.9c0.4-1.8-0.4-3.3-1.1-4.2c-1.7-2.1-4.6-3.3-7.8-3.3H214z"/>
</g>
</svg>
