<svg id="Layer_1" data-name="Layer 1" xmlns="http://www.w3.org/2000/svg" viewBox="0 0 534.82 575.9"><defs><style>.cls-1{fill:#fff;stroke:#231f20;}.cls-1,.cls-2{stroke-miterlimit:10;stroke-width:12px;}.cls-2{fill:#231f20;stroke:#fff;}</style></defs><path class="cls-1" d="M1050.5,851.66H731.69c-11.86,0-19.78-9.61-17.69-21.47l85.52-485c2.09-11.86,13.4-21.47,25.26-21.47h318.81c11.87,0,19.78,9.61,17.69,21.47l-85.51,485C1073.68,842.05,1062.36,851.66,1050.5,851.66Z" transform="translate(-632.8 -281.76)"/><path class="cls-1" d="M1035.53,834.94H716.72c-11.86,0-19.78-9.62-17.69-21.48l85.51-485C786.64,316.61,798,307,809.81,307h318.81c11.86,0,19.78,9.61,17.69,21.47l-85.52,485C1058.7,825.32,1047.39,834.94,1035.53,834.94Z" transform="translate(-632.8 -281.76)"/><path class="cls-1" d="M1019.57,815.71H700.75c-11.86,0-19.78-9.62-17.68-21.48l85.51-485c2.09-11.86,13.4-21.48,25.26-21.48h318.82c11.86,0,19.78,9.62,17.69,21.48l-85.52,485C1042.74,806.09,1031.43,815.71,1019.57,815.71Z" transform="translate(-632.8 -281.76)"/><path class="cls-2" d="M794.12,355.15H726.85c-8.67,0-14.47-7-12.94-15.72h0c1.53-8.68,9.81-15.71,18.49-15.71h67.26c8.68,0,14.47,7,12.94,15.71h0C811.07,348.11,802.8,355.15,794.12,355.15Z" transform="translate(-632.8 -281.76)"/><path class="cls-2" d="M779.15,440.07H711.88c-8.68,0-14.47-7-12.94-15.72h0c1.53-8.67,9.8-15.71,18.48-15.71h67.27c8.68,0,14.47,7,12.94,15.71h0C796.1,433,787.83,440.07,779.15,440.07Z" transform="translate(-632.8 -281.76)"/><path class="cls-2" d="M764.17,525H696.91c-8.68,0-14.48-7-12.95-15.72h0c1.53-8.67,9.81-15.71,18.49-15.71h67.26c8.68,0,14.48,7,12.95,15.71h0C781.13,518,772.85,525,764.17,525Z" transform="translate(-632.8 -281.76)"/><path class="cls-2" d="M749.2,609.91H681.93c-8.68,0-14.47-7-12.94-15.71h0c1.53-8.68,9.81-15.72,18.48-15.72h67.27c8.68,0,14.47,7,12.94,15.72h0C766.15,602.87,757.88,609.91,749.2,609.91Z" transform="translate(-632.8 -281.76)"/><path class="cls-2" d="M734.23,694.83H667c-8.68,0-14.47-7-12.94-15.71h0c1.53-8.68,9.8-15.72,18.48-15.72h67.27c8.67,0,14.47,7,12.94,15.72h0C751.18,687.8,742.9,694.83,734.23,694.83Z" transform="translate(-632.8 -281.76)"/><path class="cls-2" d="M719.25,779.75H652c-8.68,0-14.48-7-13-15.71h0c1.53-8.68,9.81-15.72,18.49-15.72h67.26c8.68,0,14.48,7,13,15.72h0C736.2,772.72,727.93,779.75,719.25,779.75Z" transform="translate(-632.8 -281.76)"/><path class="cls-1" d="M1028.44,486.5H824.08c-9.36,0-16.45-7.05-14.83-14.75L832,363.88c1.27-6,7.52-10.38,14.83-10.38h204.36c9.36,0,16.45,7.05,14.82,14.75l-22.77,107.86C1042,482.12,1035.74,486.5,1028.44,486.5Z" transform="translate(-632.8 -281.76)"/></svg>