<svg id="Layer_1" data-name="Layer 1" xmlns="http://www.w3.org/2000/svg" viewBox="0 0 313.56 500"><defs><style>.cls-1{fill:#d1d3d4;}.cls-1,.cls-4{stroke:#d1d3d4;stroke-miterlimit:10;stroke-width:18px;}.cls-2{fill:#808285;}.cls-3,.cls-4{fill:none;}</style></defs><path class="cls-1" d="M718.37,358.78A147.78,147.78,0,1,1,570.59,211,147.27,147.27,0,0,1,718.37,358.78Z" transform="translate(-413.81 -202)"/><ellipse class="cls-2" cx="156.78" cy="122.2" rx="51.72" ry="62.07"/><path class="cls-3" d="M718.37,554.22a147.78,147.78,0,1,1-258.64-97.71,147.81,147.81,0,0,0,221.73,0A147.26,147.26,0,0,1,718.37,554.22Z" transform="translate(-413.81 -202)"/><path class="cls-2" d="M681.46,456.51a147.81,147.81,0,0,1-221.73,0,147.79,147.79,0,0,1,221.73,0Z" transform="translate(-413.81 -202)"/><path class="cls-4" d="M718.37,358.78A147.78,147.78,0,1,1,570.59,211,147.27,147.27,0,0,1,718.37,358.78Z" transform="translate(-413.81 -202)"/></svg>