<?xml version="1.0" encoding="utf-8"?>
<!-- Generator: Adobe Illustrator 26.0.3, SVG Export Plug-In . SVG Version: 6.00 Build 0)  -->
<svg version="1.1" id="Layer_1" xmlns="http://www.w3.org/2000/svg" xmlns:xlink="http://www.w3.org/1999/xlink" x="0px" y="0px"
	 viewBox="0 0 313.6 500" style="enable-background:new 0 0 313.6 500;" xml:space="preserve">
<style type="text/css">
	.st0{fill:#D1D3D4;}
	.st1{fill:#808285;}
	.st2{fill:none;}
</style>
<g>
	<path class="st0" d="M304.6,156.8c0,81.6-66.2,147.8-147.8,147.8C75.2,304.6,9,238.4,9,156.8S75.2,9,156.8,9l0,0
		c81.3-0.3,147.5,65.4,147.8,146.8C304.6,156.1,304.6,156.4,304.6,156.8z"/>
	<path class="st0" d="M156.8,313.6C70.3,313.6,0,243.2,0,156.8S70.3,0,156.8,0c0.2,0,0.4,0,0.6,0c41.5,0,80.6,16.1,110.1,45.4
		c29.6,29.4,46,68.6,46.2,110.3c0,0.3,0,0.7,0,1.1C313.6,243.2,243.2,313.6,156.8,313.6z M157.3,18c-0.2,0-0.3,0-0.5,0
		C80.3,18,18,80.3,18,156.8s62.3,138.8,138.8,138.8c76.5,0,138.8-62.3,138.8-138.8v-0.1c0-0.3,0-0.6,0-0.9
		c-0.1-37-14.6-71.6-40.8-97.7C228.6,32.2,194.1,18,157.3,18z"/>
</g>
<g>
	<ellipse class="st1" cx="156.8" cy="122.2" rx="51.7" ry="62.1"/>
</g>
<g>
	<path class="st2" d="M304.6,352.2c0,81.6-66.2,147.8-147.8,147.8C75.2,500,9,433.9,9,352.2c0-36,13.1-70.7,36.9-97.7
		c54,61.2,147.4,67.1,208.6,13.1c4.6-4.1,9-8.5,13.1-13.1C291.5,281.5,304.6,316.2,304.6,352.2z"/>
</g>
<g>
	<path class="st1" d="M267.7,254.5c-54,61.2-147.4,67.1-208.6,13.1c-4.6-4.1-9-8.5-13.1-13.1c54-61.2,147.4-67.1,208.6-13.1
		C259.2,245.5,263.6,249.9,267.7,254.5z"/>
</g>
<g>
	<path class="st0" d="M156.8,313.6C70.3,313.6,0,243.2,0,156.8S70.3,0,156.8,0c0.2,0,0.4,0,0.6,0c41.5,0,80.6,16.1,110.1,45.4
		c29.6,29.4,46,68.6,46.2,110.3c0,0.3,0,0.7,0,1.1C313.6,243.2,243.2,313.6,156.8,313.6z M157.3,18c-0.2,0-0.3,0-0.5,0
		C80.3,18,18,80.3,18,156.8s62.3,138.8,138.8,138.8c76.5,0,138.8-62.3,138.8-138.8v-0.1c0-0.3,0-0.6,0-0.9
		c-0.1-37-14.6-71.6-40.8-97.7C228.6,32.2,194.1,18,157.3,18z"/>
</g>
</svg>
