<svg id="Layer_1" data-name="Layer 1" xmlns="http://www.w3.org/2000/svg" viewBox="0 0 690.79 601.36"><defs><style>.cls-1{fill:#231f20;}</style></defs><path class="cls-1" d="M1061.81,384.29A235.52,235.52,0,0,1,895.28,786.34c-1.11,0-2.21,0-3.32,0-1.84,0-3.68-.06-5.51-.13a237.64,237.64,0,0,1-37.56-4.38q-2.58-.51-5.16-1.08a235.74,235.74,0,0,1-184-229.89,236.62,236.62,0,0,1,9.06-65.08q3.33-.11,6.69-.11a195.1,195.1,0,0,1,29.38,2.21,199.76,199.76,0,0,0-10.13,63c0,98.26,71,180.24,164.47,197.26,1.66.31,3.33.59,5,.85a201.19,201.19,0,0,0,31,2.4c1.73,0,3.46,0,5.18-.07s3.54-.11,5.3-.2c105.71-5.47,190-93.2,190-200.24,0-110.57-89.95-200.52-200.51-200.52a200.57,200.57,0,0,0-170.65,95.32,241.65,241.65,0,0,0-37.76-4.73,235.63,235.63,0,0,1,374.94-56.61Z" transform="translate(-440 -315.31)"/><path class="cls-1" d="M911,681.16A236.55,236.55,0,0,1,902,746.23q-3.33.1-6.69.11a194.91,194.91,0,0,1-29.38-2.21,199.69,199.69,0,0,0,10.13-63c0-98.27-71-180.25-164.47-197.27a195.19,195.19,0,0,1,15.5-32.63,235.74,235.74,0,0,1,184,229.9Z" transform="translate(-440 -315.31)"/><path class="cls-1" d="M883.92,791.08A235.57,235.57,0,1,1,675.51,445.64c1.11,0,2.21,0,3.32,0A237.35,237.35,0,0,0,665,480.91c-105.71,5.47-190,93.2-190,200.25,0,110.56,90,200.51,200.51,200.51a200.57,200.57,0,0,0,170.65-95.32A241.65,241.65,0,0,0,883.92,791.08Z" transform="translate(-440 -315.31)"/><path class="cls-1" d="M721.91,450.18q2.58.51,5.15,1.08a195.19,195.19,0,0,0-15.5,32.63c-1.66-.31-3.33-.59-5-.85A198.77,198.77,0,0,1,721.91,450.18Z" transform="translate(-440 -315.31)"/><path class="cls-1" d="M721.91,450.18A198.77,198.77,0,0,0,706.56,483a201.19,201.19,0,0,0-31-2.4c-1.73,0-3.46,0-5.19.07a231.59,231.59,0,0,1,14-34.91A237.64,237.64,0,0,1,721.91,450.18Z" transform="translate(-440 -315.31)"/><path class="cls-1" d="M678.83,445.67c1.84,0,3.68.06,5.52.13a231.59,231.59,0,0,0-14,34.91c-1.77,0-3.53.11-5.29.2A237.35,237.35,0,0,1,678.83,445.67Z" transform="translate(-440 -315.31)"/></svg>