<svg id="Layer_1" data-name="Layer 1" xmlns="http://www.w3.org/2000/svg" viewBox="0 0 197.54 235.78"><defs><style>.cls-1{fill:#231f20;}.cls-2{fill:none;}</style></defs><path class="cls-1" d="M94.67,88.77a.89.89,0,0,0-.53-.4.91.91,0,0,0-.23,0,.82.82,0,0,0-.43.12l-.94.54a.84.84,0,0,0-.41.53.85.85,0,0,0,.09.66l.14.24c.81-.48,1.62-1,2.45-1.41Zm-34,32.94a.82.82,0,0,0-.43-.12.87.87,0,0,0-.75.44L59,123a.85.85,0,0,0-.08.66.86.86,0,0,0,.4.53l.24.14c.45-.83.93-1.64,1.41-2.45Zm34-32.94a.89.89,0,0,0-.53-.4.91.91,0,0,0-.23,0,.82.82,0,0,0-.43.12l-.94.54a.84.84,0,0,0-.41.53.85.85,0,0,0,.09.66l.14.24c.81-.48,1.62-1,2.45-1.41ZM92.35,246.86l-.13.22a.86.86,0,0,0-.09.66.82.82,0,0,0,.41.53l.94.54a.85.85,0,0,0,.66.09.89.89,0,0,0,.53-.4l.13-.22C94,247.82,93.16,247.35,92.35,246.86ZM60.69,121.71a.82.82,0,0,0-.43-.12.87.87,0,0,0-.75.44L59,123a.85.85,0,0,0-.08.66.86.86,0,0,0,.4.53l.24.14c.45-.83.93-1.64,1.41-2.45ZM59.51,213l-.23.13a.89.89,0,0,0-.4.53.85.85,0,0,0,.08.66l.55.94a.86.86,0,0,0,1.18.32l.23-.13C60.44,214.62,60,213.81,59.51,213ZM92.36,90.43c.81-.48,1.62-1,2.45-1.41l-.14-.25a.89.89,0,0,0-.53-.4.91.91,0,0,0-.23,0,.82.82,0,0,0-.43.12l-.94.54a.84.84,0,0,0-.41.53.85.85,0,0,0,.09.66Zm-.14,156.65a.86.86,0,0,0-.09.66.82.82,0,0,0,.41.53l.94.54a.85.85,0,0,0,.66.09.89.89,0,0,0,.53-.4l.13-.22c-.83-.46-1.64-.93-2.45-1.42Zm-32-125.49a.87.87,0,0,0-.75.44L59,123a.85.85,0,0,0-.08.66.86.86,0,0,0,.4.53l.24.14c.45-.83.93-1.64,1.41-2.45l-.24-.14A.82.82,0,0,0,60.26,121.59Zm-1,91.52a.89.89,0,0,0-.4.53.85.85,0,0,0,.08.66l.55.94a.86.86,0,0,0,1.18.32l.23-.13c-.48-.81-1-1.62-1.41-2.45ZM225,119.77A99.39,99.39,0,0,0,188,82.83c-.64-.37-1.28-.73-1.93-1.08A97.83,97.83,0,0,0,154.69,71.1l-.37-.06a97.47,97.47,0,0,0-14.59-1.16h-1.17A98.21,98.21,0,0,0,90.29,82.82a99.37,99.37,0,0,0-37,37c-.26.45-.51.9-.76,1.36a98.06,98.06,0,0,0-12.2,47.51c0,.19,0,.39,0,.58a97.91,97.91,0,0,0,12.2,46.94c.24.45.5.89.75,1.34.36.64.74,1.27,1.12,1.9A99.43,99.43,0,0,0,86,251.87c.79.5,1.58,1,2.38,1.47.62.38,1.25.74,1.88,1.1h0c1.34.77,2.71,1.5,4.09,2.21a98.12,98.12,0,0,0,44.76,10.75h.59a97.92,97.92,0,0,0,46.94-12.21c.45-.24.89-.49,1.34-.75A99.36,99.36,0,0,0,225,217.5a97.92,97.92,0,0,0,13-48.28c0-.19,0-.39,0-.58A98.1,98.1,0,0,0,225,119.77Zm-4.75,90.57c-.22.45-.46.89-.7,1.33s-.47.88-.72,1.31c-.46.83-.93,1.64-1.42,2.45-.25.43-.51.86-.78,1.28s-.53.85-.8,1.27a91.93,91.93,0,0,1-27.3,27.3c-.42.27-.84.54-1.26.79s-.85.53-1.28.79c-.81.49-1.62,1-2.45,1.41-.43.26-.88.5-1.32.72s-.88.49-1.33.71a90.51,90.51,0,0,1-37.28,10q-.75,0-1.5.06l-1.5,0c-.47,0-.95,0-1.42,0s-.94,0-1.41,0l-1.5,0q-.75,0-1.5-.06a90.24,90.24,0,0,1-37.29-10c-.44-.22-.88-.46-1.32-.7h0c-.44-.23-.87-.47-1.31-.72-.83-.46-1.64-.93-2.45-1.42-.43-.25-.86-.52-1.28-.79s-.85-.52-1.27-.8A91.74,91.74,0,0,1,62.51,218l-.81-1.27-.78-1.28c-.48-.81-1-1.62-1.41-2.45-.25-.43-.5-.88-.73-1.32s-.47-.88-.7-1.33a90.34,90.34,0,0,1-10-37.28q0-.75-.06-1.5t0-1.5c0-.47,0-.93,0-1.4s0-1,0-1.43,0-1,0-1.5,0-1,.06-1.5a90.36,90.36,0,0,1,10-37.28c.22-.45.46-.89.7-1.33s.47-.88.72-1.31c.45-.83.93-1.64,1.41-2.45.26-.43.52-.86.79-1.28s.53-.85.8-1.27A91.83,91.83,0,0,1,89.81,92c.42-.27.84-.54,1.27-.8s.85-.53,1.28-.79c.81-.48,1.62-1,2.45-1.41.44-.25.88-.5,1.32-.73s.88-.47,1.32-.69a90.2,90.2,0,0,1,37.28-10q.75,0,1.5-.06t1.5,0c.47,0,.94,0,1.41,0s1,0,1.42,0,1,0,1.5,0,1,0,1.5.06a90.35,90.35,0,0,1,37.27,10c.45.22.89.45,1.33.7s.88.47,1.32.72c.83.46,1.64.93,2.45,1.41.43.26.86.52,1.28.79s.84.52,1.26.8a91.59,91.59,0,0,1,27.29,27.28c.28.42.55.83.81,1.26h0c.27.42.53.85.78,1.28.49.81,1,1.62,1.41,2.45.26.43.5.87.73,1.31s.47.88.7,1.33a90.36,90.36,0,0,1,10,37.28q0,.75.06,1.5t0,1.5c0,.48,0,.95,0,1.43s0,.93,0,1.4,0,1,0,1.5,0,1-.06,1.5A90.24,90.24,0,0,1,220.2,210.34ZM59.51,213l-.23.13a.89.89,0,0,0-.4.53.85.85,0,0,0,.08.66l.55.94a.86.86,0,0,0,1.18.32l.23-.13C60.44,214.62,60,213.81,59.51,213Zm1.18-91.27a.82.82,0,0,0-.43-.12.87.87,0,0,0-.75.44L59,123a.85.85,0,0,0-.08.66.86.86,0,0,0,.4.53l.24.14c.45-.83.93-1.64,1.41-2.45ZM92.35,246.86l-.13.22a.86.86,0,0,0-.09.66.82.82,0,0,0,.41.53l.94.54a.85.85,0,0,0,.66.09.89.89,0,0,0,.53-.4l.13-.22C94,247.82,93.16,247.35,92.35,246.86ZM94.67,88.77a.89.89,0,0,0-.53-.4.91.91,0,0,0-.23,0,.82.82,0,0,0-.43.12l-.94.54a.84.84,0,0,0-.41.53.85.85,0,0,0,.09.66l.14.24c.81-.48,1.62-1,2.45-1.41ZM59.51,213l-.23.13a.89.89,0,0,0-.4.53.85.85,0,0,0,.08.66l.55.94a.86.86,0,0,0,1.18.32l.23-.13C60.44,214.62,60,213.81,59.51,213Zm1.18-91.27a.82.82,0,0,0-.43-.12.87.87,0,0,0-.75.44L59,123a.85.85,0,0,0-.08.66.86.86,0,0,0,.4.53l.24.14c.45-.83.93-1.64,1.41-2.45Zm34-32.94a.89.89,0,0,0-.53-.4.91.91,0,0,0-.23,0,.82.82,0,0,0-.43.12l-.94.54a.84.84,0,0,0-.41.53.85.85,0,0,0,.09.66l.14.24c.81-.48,1.62-1,2.45-1.41Z" transform="translate(-40.37 -31.63)"/><path class="cls-1" d="M48,170.05q0,.75,0,1.5h-.29a2.37,2.37,0,0,1-2.37-2.37v-1.09a2.37,2.37,0,0,1,2.37-2.37H48q0,.75,0,1.5c0,.47,0,.95,0,1.43S48,169.58,48,170.05Z" transform="translate(-40.37 -31.63)"/><path class="cls-1" d="M72.67,168.09v1.09a2.37,2.37,0,0,1-2.37,2.37H58c0-.5,0-1,0-1.5s0-.93,0-1.4,0-1,0-1.43,0-1,0-1.5H70.3A2.37,2.37,0,0,1,72.67,168.09Z" transform="translate(-40.37 -31.63)"/><path class="cls-1" d="M70.3,164.22H58.11c0,.5-.06,1-.07,1.5s0,1,0,1.5H70.3a.87.87,0,0,1,.87.87v1.09a.87.87,0,0,1-.87.87H58c0,.5,0,1,0,1.5s0,1,.06,1.5H70.3a3.87,3.87,0,0,0,3.87-3.87v-1.09A3.87,3.87,0,0,0,70.3,164.22ZM48,170.05h-.26a.87.87,0,0,1-.87-.87v-1.09a.87.87,0,0,1,.87-.87H48q0-.75,0-1.5t.06-1.5h-.35a3.88,3.88,0,0,0-3.87,3.87v1.09a3.88,3.88,0,0,0,3.87,3.87h.35q0-.75-.06-1.5T48,170.05Z" transform="translate(-40.37 -31.63)"/><path class="cls-1" d="M61.7,216.71l-.26.15a2.37,2.37,0,0,1-3.23-.87l-.55-.94a2.38,2.38,0,0,1,.87-3.24l.25-.15c.23.44.48.89.73,1.32.45.83.93,1.64,1.41,2.45Z" transform="translate(-40.37 -31.63)"/><path class="cls-1" d="M81,205.58,70.37,211.7c-.27-.42-.53-.85-.78-1.28-.5-.8-1-1.61-1.42-2.44q-.37-.64-.72-1.32l10.62-6.13a2.38,2.38,0,0,1,3.24.87l.54.94A2.37,2.37,0,0,1,81,205.58Z" transform="translate(-40.37 -31.63)"/><path class="cls-1" d="M83.15,201.59l-.55-.94a3.78,3.78,0,0,0-2.34-1.8,3.87,3.87,0,0,0-2.94.38l-10.57,6.1c.23.45.46.89.7,1.33s.47.89.72,1.32l10.65-6.15a.82.82,0,0,1,.43-.12.87.87,0,0,1,.76.44l.54.94a.87.87,0,0,1-.32,1.19l-10.64,6.14c.25.43.51.86.78,1.28s.53.85.81,1.27l10.55-6.09a3.86,3.86,0,0,0,1.42-5.29ZM61.7,216.71l-.78-1.28-.23.13a.86.86,0,0,1-1.18-.32L59,214.3a.85.85,0,0,1-.08-.66.89.89,0,0,1,.4-.53l.23-.13c-.25-.43-.5-.88-.73-1.32s-.47-.88-.7-1.33l-.3.18A3.88,3.88,0,0,0,56,214.85a4.13,4.13,0,0,0,.39,1l.55.94a3.75,3.75,0,0,0,.64.83,3.87,3.87,0,0,0,2.72,1.11,3.82,3.82,0,0,0,1.92-.52l.32-.18Z" transform="translate(-40.37 -31.63)"/><path class="cls-1" d="M96.11,249l-.14.25a2.37,2.37,0,0,1-3.24.86l-.94-.54a2.36,2.36,0,0,1-.87-3.24l.15-.26c.42.27.85.54,1.28.79.81.49,1.62,1,2.45,1.42C95.24,248.53,95.67,248.77,96.11,249Z" transform="translate(-40.37 -31.63)"/><path class="cls-1" d="M107.25,229.71l-6.13,10.62c-.44-.23-.88-.46-1.32-.72-.83-.45-1.64-.92-2.45-1.42-.43-.25-.86-.51-1.28-.78l6.13-10.62a2.37,2.37,0,0,1,3.24-.86l.94.54A2.38,2.38,0,0,1,107.25,229.71Z" transform="translate(-40.37 -31.63)"/><path class="cls-1" d="M96.12,249h0c-.44-.23-.87-.47-1.31-.72l-.13.22a.89.89,0,0,1-.53.4.85.85,0,0,1-.66-.09l-.94-.54a.82.82,0,0,1-.41-.53.86.86,0,0,1,.09-.66l.13-.22c-.43-.25-.86-.52-1.28-.79s-.85-.52-1.27-.8l-.18.31a3.88,3.88,0,0,0-.39,2.94,3.54,3.54,0,0,0,.45,1,3.37,3.37,0,0,0,.21.31c.1.13.21.25.32.37a3.43,3.43,0,0,0,.5.43c.11.08.22.14.33.21l.94.54a3.86,3.86,0,0,0,1.93.52h.19A3.86,3.86,0,0,0,97.26,250l.18-.3C97,249.48,96.56,249.24,96.12,249Zm12.81-21.48a3.87,3.87,0,0,0-1.8-2.35l-.94-.54a3.83,3.83,0,0,0-2.94-.39,3.87,3.87,0,0,0-2.35,1.8L94.81,236.6c.41.28.83.54,1.26.81s.85.53,1.28.78l6.15-10.65a.88.88,0,0,1,.75-.43.88.88,0,0,1,.44.12l.94.54A.88.88,0,0,1,106,229L99.8,239.61c.44.26.88.49,1.32.72l1.32.7,6.1-10.57A3.83,3.83,0,0,0,108.93,227.52Z" transform="translate(-40.37 -31.63)"/><path class="cls-1" d="M142.06,237.47v12.28c-.5,0-1,0-1.5,0s-.94,0-1.42,0-.94,0-1.41,0-1,0-1.5,0V237.47a2.38,2.38,0,0,1,2.37-2.37h1.09A2.38,2.38,0,0,1,142.06,237.47Z" transform="translate(-40.37 -31.63)"/><path class="cls-1" d="M142.06,259.76V260a2.38,2.38,0,0,1-2.37,2.37H138.6a2.38,2.38,0,0,1-2.37-2.37v-.28l1.5,0c.47,0,.94,0,1.41,0s1,0,1.42,0Z" transform="translate(-40.37 -31.63)"/><path class="cls-1" d="M139.69,233.6H138.6a3.87,3.87,0,0,0-3.87,3.87v12.21c.5,0,1,.06,1.5.07s1,0,1.5,0V237.47a.87.87,0,0,1,.87-.87h1.09a.87.87,0,0,1,.87.87v12.32c.5,0,1,0,1.5,0s1,0,1.5-.07V237.47A3.88,3.88,0,0,0,139.69,233.6Zm2.37,26.16-1.5,0V260a.87.87,0,0,1-.87.87H138.6a.87.87,0,0,1-.87-.87v-.25l-1.5,0q-.75,0-1.5-.06V260a3.87,3.87,0,0,0,3.87,3.87h1.09a3.88,3.88,0,0,0,3.87-3.87v-.34Q142.81,259.75,142.06,259.76Z" transform="translate(-40.37 -31.63)"/><path class="cls-1" d="M182.22,237.41c-.42.27-.85.53-1.28.78-.81.5-1.62,1-2.45,1.42q-.65.38-1.32.72L171,229.71a2.36,2.36,0,0,1,.87-3.24l.94-.54a2.36,2.36,0,0,1,3.23.86Z" transform="translate(-40.37 -31.63)"/><path class="cls-1" d="M186.5,249.57l-.94.54a2.37,2.37,0,0,1-3.24-.86l-.15-.26c.44-.22.89-.46,1.32-.72.83-.45,1.64-.92,2.45-1.41.43-.26.86-.52,1.28-.79l.15.26A2.38,2.38,0,0,1,186.5,249.57Z" transform="translate(-40.37 -31.63)"/><path class="cls-1" d="M188.66,245.58l-.18-.3c-.42.27-.84.54-1.26.79s-.85.53-1.28.79l.13.22a.9.9,0,0,1,.08.66.83.83,0,0,1-.4.53l-.94.55a.9.9,0,0,1-.66.08.83.83,0,0,1-.53-.4l-.13-.23c-.43.26-.88.5-1.32.72s-.88.49-1.33.71l.18.3a3.86,3.86,0,0,0,3.36,1.93,3.81,3.81,0,0,0,1.93-.52l.94-.54a3.87,3.87,0,0,0,1.8-2.35A3.83,3.83,0,0,0,188.66,245.58ZM177.38,226a3.87,3.87,0,0,0-5.28-1.41l-.94.54a3.88,3.88,0,0,0-1.42,5.29l6.1,10.57,1.33-.7q.68-.35,1.32-.72L172.34,229a.87.87,0,0,1,.31-1.19l.95-.54a.82.82,0,0,1,.43-.12.91.91,0,0,1,.76.43l6.15,10.65c.43-.25.86-.51,1.28-.78s.84-.53,1.26-.81Z" transform="translate(-40.37 -31.63)"/><path class="cls-1" d="M210.84,206.67c-.23.44-.47.88-.72,1.31-.45.83-.93,1.65-1.42,2.45-.25.43-.51.86-.79,1.28l-10.61-6.13a2.38,2.38,0,0,1-.87-3.24l.55-.94a2.37,2.37,0,0,1,3.23-.87Z" transform="translate(-40.37 -31.63)"/><path class="cls-1" d="M220.62,215.05l-.54.94a2.38,2.38,0,0,1-3.24.87l-.26-.15c.27-.42.53-.85.78-1.28.49-.81,1-1.62,1.42-2.45.25-.43.49-.87.72-1.31l.25.14A2.37,2.37,0,0,1,220.62,215.05Z" transform="translate(-40.37 -31.63)"/><path class="cls-1" d="M201,199.23a3.84,3.84,0,0,0-2.93-.38,3.8,3.8,0,0,0-2.35,1.8l-.54.94a3.87,3.87,0,0,0,1.41,5.29L207.11,213c.27-.42.54-.84.8-1.26s.54-.85.79-1.28l-10.65-6.15a.86.86,0,0,1-.4-.53.89.89,0,0,1,.08-.66l.55-.94a.87.87,0,0,1,.75-.44.82.82,0,0,1,.43.12L210.12,208c.25-.43.49-.87.72-1.31s.47-.88.7-1.33Zm19.54,11.28-.3-.17c-.22.45-.46.89-.7,1.33s-.47.88-.72,1.31l.22.13a.87.87,0,0,1,.32,1.19l-.54.94a.87.87,0,0,1-1.19.32l-.23-.13c-.25.43-.51.86-.78,1.28s-.53.85-.8,1.27l.31.18a3.86,3.86,0,0,0,5-1,3.41,3.41,0,0,0,.3-.44l.54-.94A3.88,3.88,0,0,0,220.5,210.51Z" transform="translate(-40.37 -31.63)"/><path class="cls-1" d="M220.31,168.65c0,.47,0,.94,0,1.4s0,1,0,1.5H208a2.37,2.37,0,0,1-2.37-2.37v-1.09a2.37,2.37,0,0,1,2.37-2.37h12.27c0,.5,0,1,0,1.5S220.31,168.17,220.31,168.65Z" transform="translate(-40.37 -31.63)"/><path class="cls-1" d="M232.91,168.09v1.09a2.37,2.37,0,0,1-2.37,2.37h-.28q0-.75,0-1.5c0-.47,0-.93,0-1.4s0-1,0-1.43,0-1,0-1.5h.28A2.37,2.37,0,0,1,232.91,168.09Z" transform="translate(-40.37 -31.63)"/><path class="cls-1" d="M207.11,169.18v-1.09a.87.87,0,0,1,.87-.87h12.31c0-.5,0-1,0-1.5s0-1-.07-1.5H208a3.88,3.88,0,0,0-3.87,3.87v1.09a3.88,3.88,0,0,0,3.87,3.87h12.21q0-.75.06-1.5c0-.5,0-1,0-1.5H208A.87.87,0,0,1,207.11,169.18Zm23.43-5h-.34q0,.75.06,1.5t0,1.5h.25a.87.87,0,0,1,.87.87v1.09a.87.87,0,0,1-.87.87h-.25q0,.75,0,1.5t-.06,1.5h.34a3.87,3.87,0,0,0,3.87-3.87v-1.09A3.87,3.87,0,0,0,230.54,164.22Z" transform="translate(-40.37 -31.63)"/><path class="cls-1" d="M210.11,129.29l.72,1.32-10.62,6.13a2.36,2.36,0,0,1-3.23-.87l-.55-.94a2.38,2.38,0,0,1,.87-3.24l10.6-6.12c.27.42.54.85.79,1.28C209.18,127.65,209.65,128.46,210.11,129.29Z" transform="translate(-40.37 -31.63)"/><path class="cls-1" d="M219.75,125.46l-.26.15c-.23-.44-.47-.88-.73-1.31-.45-.83-.92-1.64-1.41-2.45-.25-.43-.51-.86-.78-1.28h0l.27-.15a2.38,2.38,0,0,1,3.24.87l.54.94A2.37,2.37,0,0,1,219.75,125.46Z" transform="translate(-40.37 -31.63)"/><path class="cls-1" d="M221.92,121.47l-.54-.94a4.27,4.27,0,0,0-.3-.44,3.86,3.86,0,0,0-5-1l-.33.19c.28.42.55.83.81,1.26h0c.27.42.53.85.78,1.28l.24-.14a.87.87,0,0,1,1.19.32l.54.94a.87.87,0,0,1-.32,1.19l-.24.14c.26.43.5.87.73,1.31s.47.88.7,1.33l.31-.18A3.88,3.88,0,0,0,221.92,121.47Zm-11.81,7.82-10.65,6.15a.86.86,0,0,1-1.18-.32l-.55-.94a.89.89,0,0,1,.32-1.19l10.64-6.14c-.25-.43-.52-.86-.79-1.28s-.53-.85-.81-1.27l-10.54,6.09a3.87,3.87,0,0,0-1.41,5.29l.54.94a3.88,3.88,0,0,0,3.36,1.94A3.82,3.82,0,0,0,201,138l10.56-6.1c-.22-.45-.46-.89-.69-1.33Z" transform="translate(-40.37 -31.63)"/><path class="cls-1" d="M180.93,99.1c.43.25.85.51,1.27.78l-6.12,10.6a2.36,2.36,0,0,1-3.23.86l-.94-.54a2.36,2.36,0,0,1-.87-3.24L177.16,97q.68.35,1.32.72C179.31,98.13,180.12,98.61,180.93,99.1Z" transform="translate(-40.37 -31.63)"/><path class="cls-1" d="M187.37,90.94l-.16.28c-.42-.27-.85-.53-1.28-.79-.81-.48-1.62-1-2.45-1.41q-.66-.37-1.32-.72l.16-.28a2.37,2.37,0,0,1,3.24-.86l.94.54A2.38,2.38,0,0,1,187.37,90.94Z" transform="translate(-40.37 -31.63)"/><path class="cls-1" d="M189.05,88.75a3.87,3.87,0,0,0-1.8-2.35l-.94-.54a3.89,3.89,0,0,0-2.94-.39,3.87,3.87,0,0,0-2.35,1.8l-.19.33c.45.22.89.45,1.33.7s.88.47,1.32.72l.14-.25a.88.88,0,0,1,.75-.43.88.88,0,0,1,.44.12l.94.54a.86.86,0,0,1,.4.53.89.89,0,0,1-.08.66l-.14.24c.43.26.86.52,1.28.79s.84.52,1.26.8l.19-.33A3.83,3.83,0,0,0,189.05,88.75ZM180.93,99.1l-6.14,10.63a.88.88,0,0,1-1.19.31l-.94-.54a.87.87,0,0,1-.32-1.19l6.14-10.63q-.64-.37-1.32-.72l-1.33-.7-6.09,10.55a3.88,3.88,0,0,0,1.42,5.29l.94.54a3.86,3.86,0,0,0,5.28-1.41l6.08-10.54q-.63-.42-1.26-.81C181.78,99.61,181.36,99.35,180.93,99.1Z" transform="translate(-40.37 -31.63)"/><path class="cls-1" d="M142.06,77.23v.31q-.75,0-1.5,0c-.47,0-.95,0-1.42,0s-.94,0-1.41,0-1,0-1.5,0v-.31a2.37,2.37,0,0,1,2.37-2.36h1.09A2.37,2.37,0,0,1,142.06,77.23Z" transform="translate(-40.37 -31.63)"/><path class="cls-1" d="M142.06,87.55V99.8a2.38,2.38,0,0,1-2.37,2.37H138.6a2.37,2.37,0,0,1-2.37-2.37V87.55c.5,0,1,0,1.5,0s.94,0,1.41,0,1,0,1.42,0S141.56,87.52,142.06,87.55Z" transform="translate(-40.37 -31.63)"/><path class="cls-1" d="M139.69,73.37H138.6a3.86,3.86,0,0,0-3.87,3.86v.37q.75,0,1.5-.06t1.5,0v-.28a.86.86,0,0,1,.87-.86h1.09a.86.86,0,0,1,.87.86v.28q.75,0,1.5,0t1.5.06v-.37A3.87,3.87,0,0,0,139.69,73.37Zm2.37,14.18c-.5,0-1,0-1.5,0V99.8a.87.87,0,0,1-.87.87H138.6a.87.87,0,0,1-.87-.87V87.51c-.5,0-1,0-1.5,0s-1,0-1.5.07V99.8a3.87,3.87,0,0,0,3.87,3.87h1.09a3.88,3.88,0,0,0,3.87-3.87V87.62C143.06,87.58,142.56,87.56,142.06,87.55Z" transform="translate(-40.37 -31.63)"/><path class="cls-1" d="M96.13,88.29c-.44.23-.88.48-1.32.73-.83.45-1.64.93-2.45,1.41-.43.26-.86.52-1.28.79l-.16-.28a2.36,2.36,0,0,1,.87-3.24l.94-.54A2.37,2.37,0,0,1,96,88Z" transform="translate(-40.37 -31.63)"/><path class="cls-1" d="M106.38,110.8l-.94.54a2.37,2.37,0,0,1-3.24-.86l-6.12-10.6c.42-.26.85-.53,1.28-.78.81-.49,1.62-1,2.45-1.42q.66-.37,1.32-.72l6.12,10.6A2.38,2.38,0,0,1,106.38,110.8Z" transform="translate(-40.37 -31.63)"/><path class="cls-1" d="M97.26,87.27A3.87,3.87,0,0,0,92,85.86L91,86.4a3.86,3.86,0,0,0-1.42,5.29l.19.33c.42-.27.84-.54,1.27-.8s.85-.53,1.28-.79l-.14-.24a.85.85,0,0,1-.09-.66.84.84,0,0,1,.41-.53l.94-.54a.82.82,0,0,1,.43-.12.91.91,0,0,1,.23,0,.89.89,0,0,1,.53.4l.14.25c.44-.25.88-.5,1.32-.73s.88-.47,1.32-.69Zm11.28,19.54-6.09-10.54q-.66.33-1.32.69t-1.32.72L106,108.31a.89.89,0,0,1,.08.66.86.86,0,0,1-.4.53l-.94.54a.86.86,0,0,1-.66.09.83.83,0,0,1-.53-.4L97.36,99.1c-.43.25-.86.52-1.28.78s-.85.54-1.26.82l6.08,10.53a3.86,3.86,0,0,0,3.36,1.93,3.81,3.81,0,0,0,1.93-.52l.94-.54a3.87,3.87,0,0,0,1.8-2.35A3.83,3.83,0,0,0,108.54,106.81Z" transform="translate(-40.37 -31.63)"/><path class="cls-1" d="M61.72,120.57c-.27.42-.53.85-.79,1.28-.48.81-1,1.62-1.41,2.45-.25.43-.49.87-.72,1.31l-.27-.15a2.38,2.38,0,0,1-.87-3.24l.55-.94a2.37,2.37,0,0,1,3.23-.87Z" transform="translate(-40.37 -31.63)"/><path class="cls-1" d="M81.85,134.93l-.54.94a2.37,2.37,0,0,1-3.24.87l-10.61-6.12q.35-.68.72-1.32c.45-.83.93-1.65,1.42-2.45.25-.43.52-.86.79-1.28L81,131.69A2.37,2.37,0,0,1,81.85,134.93Z" transform="translate(-40.37 -31.63)"/><path class="cls-1" d="M62.19,119.11a3.86,3.86,0,0,0-5.28,1.42l-.55.94a4.13,4.13,0,0,0-.39,1,3.88,3.88,0,0,0,1.81,4.34l.32.18c.22-.45.46-.89.7-1.33s.47-.88.72-1.31l-.24-.14a.86.86,0,0,1-.4-.53A.85.85,0,0,1,59,123l.55-.94a.87.87,0,0,1,.75-.44.82.82,0,0,1,.43.12l.24.14c.26-.43.52-.86.79-1.28s.53-.85.8-1.27Zm19.54,11.28L71.2,124.31q-.42.63-.81,1.26c-.27.42-.54.85-.79,1.28L80.23,133a.87.87,0,0,1,.32,1.19l-.54.94a.9.9,0,0,1-.53.41.85.85,0,0,1-.66-.09L68.18,129.3q-.37.64-.72,1.32c-.24.44-.47.88-.7,1.33L77.32,138a3.91,3.91,0,0,0,1.93.52,4,4,0,0,0,1-.14,3.83,3.83,0,0,0,2.35-1.8l.54-.94A3.88,3.88,0,0,0,81.73,130.39Z" transform="translate(-40.37 -31.63)"/><path class="cls-1" d="M148.07,157.9a12.69,12.69,0,1,0,3.77,9A12.67,12.67,0,0,0,148.07,157.9Zm-8.93,11.72a2.7,2.7,0,1,1,2.7-2.7A2.7,2.7,0,0,1,139.14,169.62Z" transform="translate(-40.37 -31.63)"/><path class="cls-1" d="M148.15,158.72a5,5,0,0,1-5,5.51h-8.06a5,5,0,0,1-5-5.51l.08-.82,3.95-38.45a5,5,0,0,1,10,0l3.95,38.45Z" transform="translate(-40.37 -31.63)"/><path class="cls-2" d="M230.29,167.22q0-.75,0-1.5t-.06-1.5a90.36,90.36,0,0,0-10-37.28c-.23-.45-.46-.89-.7-1.33s-.47-.88-.73-1.31c-.45-.83-.92-1.64-1.41-2.45-.25-.43-.51-.86-.78-1.28h0c-.26-.43-.53-.84-.81-1.26A91.59,91.59,0,0,0,188.47,92c-.42-.28-.84-.54-1.26-.8s-.85-.53-1.28-.79c-.81-.48-1.62-1-2.45-1.41q-.66-.37-1.32-.72c-.44-.25-.88-.48-1.33-.7a90.35,90.35,0,0,0-37.27-10q-.75,0-1.5-.06t-1.5,0c-.47,0-.95,0-1.42,0s-.94,0-1.41,0-1,0-1.5,0-1,0-1.5.06a90.2,90.2,0,0,0-37.28,10q-.66.33-1.32.69c-.44.23-.88.48-1.32.73-.83.45-1.64.93-2.45,1.41-.43.26-.86.52-1.28.79s-.85.53-1.27.8A91.83,91.83,0,0,0,62.52,119.3c-.27.42-.54.84-.8,1.27s-.53.85-.79,1.28c-.48.81-1,1.62-1.41,2.45-.25.43-.49.87-.72,1.31s-.48.88-.7,1.33a90.36,90.36,0,0,0-10,37.28q0,.75-.06,1.5t0,1.5c0,.47,0,.95,0,1.43s0,.93,0,1.4,0,1,0,1.5,0,1,.06,1.5a90.34,90.34,0,0,0,10,37.28c.23.45.46.89.7,1.33s.48.89.73,1.32c.45.83.93,1.64,1.41,2.45l.78,1.28.81,1.27A91.74,91.74,0,0,0,89.8,245.27c.42.28.84.55,1.27.8s.85.54,1.28.79c.81.49,1.62,1,2.45,1.42.44.25.87.49,1.31.72h0c.44.24.88.48,1.32.7a90.24,90.24,0,0,0,37.29,10q.75,0,1.5.06l1.5,0c.47,0,.94,0,1.41,0s1,0,1.42,0l1.5,0q.75,0,1.5-.06a90.51,90.51,0,0,0,37.28-10c.45-.22.89-.46,1.33-.71s.89-.46,1.32-.72c.83-.45,1.64-.92,2.45-1.41.43-.26.86-.52,1.28-.79s.84-.52,1.26-.79a91.93,91.93,0,0,0,27.3-27.3c.27-.42.54-.84.8-1.27s.53-.85.78-1.28c.49-.81,1-1.62,1.42-2.45.25-.43.49-.87.72-1.31s.48-.88.7-1.33a90.24,90.24,0,0,0,10-37.29q0-.75.06-1.5t0-1.5c0-.47,0-.93,0-1.4S230.31,167.7,230.29,167.22ZM67.46,130.62q.35-.68.72-1.32c.45-.83.93-1.65,1.42-2.45.25-.43.52-.86.79-1.28s.53-.84.81-1.26l10.53,6.08a3.88,3.88,0,0,1,1.42,5.29l-.54.94a3.83,3.83,0,0,1-2.35,1.8,4,4,0,0,1-1,.14,3.91,3.91,0,0,1-1.93-.52L66.76,132C67,131.5,67.22,131.06,67.46,130.62ZM58.1,173.05q0-.75-.06-1.5c0-.5,0-1,0-1.5s0-.93,0-1.4,0-1,0-1.43,0-1,0-1.5,0-1,.07-1.5H70.3a3.87,3.87,0,0,1,3.87,3.87v1.09a3.87,3.87,0,0,1-3.87,3.87Zm25.44,31.48a3.85,3.85,0,0,1-1.81,2.35L71.18,213c-.28-.42-.55-.84-.81-1.27s-.53-.85-.78-1.28c-.5-.8-1-1.61-1.42-2.44q-.37-.64-.72-1.32c-.24-.44-.47-.88-.7-1.33l10.57-6.1a3.87,3.87,0,0,1,2.94-.38,3.78,3.78,0,0,1,2.34,1.8l.55.94A3.88,3.88,0,0,1,83.54,204.53Zm113-74.14,10.54-6.09c.28.42.55.84.81,1.27s.54.85.79,1.28c.49.8,1,1.61,1.42,2.44l.72,1.32c.23.44.47.88.69,1.33L201,138a3.82,3.82,0,0,1-1.92.52,3.88,3.88,0,0,1-3.36-1.94l-.54-.94A3.87,3.87,0,0,1,196.55,130.39Zm-26.81-23.58,6.09-10.55,1.33.7q.68.35,1.32.72c.83.45,1.64.93,2.45,1.42.43.25.85.51,1.27.78s.84.53,1.26.81l-6.08,10.54a3.86,3.86,0,0,1-5.28,1.41l-.94-.54A3.88,3.88,0,0,1,169.74,106.81Zm-35-19.19c.5,0,1-.06,1.5-.07s1,0,1.5,0,.94,0,1.41,0,1,0,1.42,0,1,0,1.5,0,1,0,1.5.07V99.8a3.88,3.88,0,0,1-3.87,3.87H138.6a3.87,3.87,0,0,1-3.87-3.87ZM108.54,230.46,102.44,241l-1.32-.7c-.44-.23-.88-.46-1.32-.72-.83-.45-1.64-.92-2.45-1.42-.43-.25-.86-.51-1.28-.78s-.85-.53-1.26-.81L100.9,226a3.87,3.87,0,0,1,2.35-1.8,3.83,3.83,0,0,1,2.94.39l.94.54a3.87,3.87,0,0,1,1.8,2.35A3.83,3.83,0,0,1,108.54,230.46Zm.39-120.71a3.87,3.87,0,0,1-1.8,2.35l-.94.54a3.89,3.89,0,0,1-2.94.39,3.87,3.87,0,0,1-2.35-1.8L94.82,100.7c.41-.28.83-.55,1.26-.82s.85-.53,1.28-.78c.81-.49,1.62-1,2.45-1.42q.66-.37,1.32-.72t1.32-.69l6.09,10.54A3.83,3.83,0,0,1,108.93,109.75Zm34.63,139.93c-.5,0-1,.06-1.5.07s-1,0-1.5,0-.94,0-1.42,0-.94,0-1.41,0-1,0-1.5,0-1,0-1.5-.07V237.47a3.87,3.87,0,0,1,3.87-3.87h1.09a3.88,3.88,0,0,1,3.87,3.87Zm-4.42-70.06a12.69,12.69,0,0,1-8.92-21.72l3.95-38.45a5,5,0,0,1,10,0l3.95,38.45a12.69,12.69,0,0,1-8.93,21.72Zm43.08,57.79c-.42.27-.85.53-1.28.78-.81.5-1.62,1-2.45,1.42q-.65.38-1.32.72l-1.33.7-6.1-10.57a3.88,3.88,0,0,1,1.42-5.29l.94-.54a3.87,3.87,0,0,1,5.28,1.41l6.1,10.56C183.06,236.88,182.64,237.14,182.22,237.41Zm28.62-30.74c-.23.44-.47.88-.72,1.31-.45.83-.93,1.65-1.42,2.45-.25.43-.51.86-.79,1.28s-.53.84-.8,1.26l-10.56-6.09a3.87,3.87,0,0,1-1.41-5.29l.54-.94a3.8,3.8,0,0,1,2.35-1.8,3.84,3.84,0,0,1,2.93.38l10.58,6.11C211.31,205.79,211.08,206.23,210.84,206.67Zm9.45-36.62c0,.5,0,1,0,1.5s0,1-.06,1.5H208a3.88,3.88,0,0,1-3.87-3.87v-1.09a3.88,3.88,0,0,1,3.87-3.87h12.2c0,.5.06,1,.07,1.5s0,1,0,1.5,0,.95,0,1.43S220.31,169.59,220.29,170.05Z" transform="translate(-40.37 -31.63)"/><rect class="cls-1" x="115.36" y="57.62" width="13.85" height="5.83" rx="2.37" transform="translate(142.46 -93.39) rotate(90)"/><path class="cls-1" d="M122.83,69h-1.09a3.86,3.86,0,0,1-3.86-3.87V56a3.87,3.87,0,0,1,3.86-3.87h1.09A3.87,3.87,0,0,1,126.7,56v9.11A3.87,3.87,0,0,1,122.83,69Zm-1.09-13.85a.87.87,0,0,0-.86.87v9.11a.87.87,0,0,0,.86.87h1.09a.87.87,0,0,0,.87-.87V56a.87.87,0,0,0-.87-.87Z" transform="translate(-40.37 -31.63)"/><rect class="cls-1" x="149.07" y="57.62" width="13.85" height="5.83" rx="2.37" transform="translate(176.16 -127.09) rotate(90)"/><path class="cls-1" d="M156.54,69h-1.09a3.87,3.87,0,0,1-3.87-3.87V56a3.88,3.88,0,0,1,3.87-3.87h1.09A3.88,3.88,0,0,1,160.41,56v9.11A3.87,3.87,0,0,1,156.54,69Zm-1.09-13.85a.87.87,0,0,0-.87.87v9.11a.87.87,0,0,0,.87.87h1.09a.87.87,0,0,0,.87-.87V56a.87.87,0,0,0-.87-.87Z" transform="translate(-40.37 -31.63)"/><rect class="cls-1" x="106.66" y="48.53" width="64.97" height="5.83" rx="2.37" transform="translate(237.91 71.25) rotate(180)"/><path class="cls-1" d="M169.26,55.86H109A3.87,3.87,0,0,1,105.16,52V50.9A3.87,3.87,0,0,1,109,47h60.23a3.87,3.87,0,0,1,3.87,3.87V52A3.88,3.88,0,0,1,169.26,55.86ZM109,50a.87.87,0,0,0-.87.87V52a.87.87,0,0,0,.87.87h60.23a.87.87,0,0,0,.87-.87V50.9a.87.87,0,0,0-.87-.87Z" transform="translate(-40.37 -31.63)"/><rect class="cls-1" x="101.87" y="40.83" width="15.4" height="5.83" rx="2.37" transform="translate(112.95 -97.46) rotate(90)"/><path class="cls-1" d="M110.12,52.94H109a3.87,3.87,0,0,1-3.87-3.87V38.42A3.87,3.87,0,0,1,109,34.55h1.09A3.87,3.87,0,0,1,114,38.42V49.07A3.87,3.87,0,0,1,110.12,52.94ZM109,37.55a.87.87,0,0,0-.87.87V49.07a.87.87,0,0,0,.87.87h1.09a.87.87,0,0,0,.87-.87V38.42a.87.87,0,0,0-.87-.87Z" transform="translate(-40.37 -31.63)"/><rect class="cls-1" x="161.01" y="40.83" width="15.4" height="5.83" rx="2.37" transform="translate(172.09 -156.6) rotate(90)"/><path class="cls-1" d="M169.26,52.94h-1.09a3.87,3.87,0,0,1-3.87-3.87V38.42a3.87,3.87,0,0,1,3.87-3.87h1.09a3.87,3.87,0,0,1,3.87,3.87V49.07A3.87,3.87,0,0,1,169.26,52.94Zm-1.09-15.39a.87.87,0,0,0-.87.87V49.07a.87.87,0,0,0,.87.87h1.09a.87.87,0,0,0,.87-.87V38.42a.87.87,0,0,0-.87-.87Z" transform="translate(-40.37 -31.63)"/><rect class="cls-1" x="106.66" y="33.13" width="64.97" height="5.83" rx="2.37" transform="translate(237.91 40.46) rotate(180)"/><path class="cls-1" d="M169.26,40.46H109a3.87,3.87,0,0,1-3.87-3.87V35.5A3.87,3.87,0,0,1,109,31.63h60.23a3.88,3.88,0,0,1,3.87,3.87v1.09A3.88,3.88,0,0,1,169.26,40.46ZM109,34.63a.87.87,0,0,0-.87.87v1.09a.87.87,0,0,0,.87.87h60.23a.87.87,0,0,0,.87-.87V35.5a.87.87,0,0,0-.87-.87Z" transform="translate(-40.37 -31.63)"/><rect class="cls-1" x="51.22" y="85.13" width="26.12" height="12.18" rx="4.66" transform="translate(-86.04 40.54) rotate(-45)"/><path class="cls-1" d="M59.35,104.33A6.09,6.09,0,0,1,55,102.52l-2-2a6.17,6.17,0,0,1,0-8.71L64.85,79.91a6.17,6.17,0,0,1,8.71,0l2,2a6.17,6.17,0,0,1,0,8.71L63.71,102.52A6.09,6.09,0,0,1,59.35,104.33Zm9.86-23.22A3.16,3.16,0,0,0,67,82L55.1,93.91a3.17,3.17,0,0,0,0,4.47l2,2a3.23,3.23,0,0,0,4.47,0h0L73.47,88.53a3.17,3.17,0,0,0,0-4.47l-2-2A3.12,3.12,0,0,0,69.21,81.11Z" transform="translate(-40.37 -31.63)"/></svg>