<svg id="Layer_3" data-name="Layer 3" xmlns="http://www.w3.org/2000/svg" viewBox="0 0 217.72 260.44"><defs><style>.cls-1,.cls-3{fill:#231f20;}.cls-2{fill:none;}.cls-3{stroke:#231f20;stroke-miterlimit:10;stroke-width:3px;}.cls-4{fill:#fff;}</style></defs><path class="cls-1" d="M330,281.88a2.37,2.37,0,0,0-3.23.87l-.86,1.48a2.36,2.36,0,0,0,.87,3.24l1,.57q.35-.66.72-1.32l-1-.55a.85.85,0,0,1-.41-.53.86.86,0,0,1,.09-.66l.86-1.48a.87.87,0,0,1,.75-.44.82.82,0,0,1,.43.12l1,.55c.26-.43.52-.85.79-1.27Zm37.57,141.36-.54.93a.82.82,0,0,1-.53.41.86.86,0,0,1-.66-.09l-1.48-.85a.9.9,0,0,1-.41-.53.89.89,0,0,1,.09-.66l.54-.94c-.43-.25-.86-.52-1.28-.79l-.56,1a2.37,2.37,0,0,0,.87,3.23l1.48.86a2.37,2.37,0,0,0,3.24-.86l.56-1Q368.22,423.62,367.56,423.24Zm-37.38-36.12c-.59-1-1.17-2-1.72-3q-.37-.66-.72-1.32l-1,.56a2.36,2.36,0,0,0-.87,3.24l.86,1.48A2.37,2.37,0,0,0,330,389l1-.57C330.7,388,330.44,387.55,330.18,387.12ZM330,281.88a2.37,2.37,0,0,0-3.23.87l-.86,1.48a2.36,2.36,0,0,0,.87,3.24l1,.57q.35-.66.72-1.32c.56-1,1.14-2,1.73-3,.26-.43.52-.85.79-1.27Zm37.57,141.36c-1-.55-2-1.13-3-1.73-.43-.25-.86-.52-1.28-.79l-.56,1a2.37,2.37,0,0,0,.87,3.23l1.48.86a2.37,2.37,0,0,0,3.24-.86l.56-1Q368.22,423.62,367.56,423.24Zm-37.38-36.12c-.59-1-1.17-2-1.72-3q-.37-.66-.72-1.32l-1,.56a2.36,2.36,0,0,0-.87,3.24l.86,1.48A2.37,2.37,0,0,0,330,389l1-.57C330.7,388,330.44,387.55,330.18,387.12ZM330,281.88a2.37,2.37,0,0,0-3.23.87l-.86,1.48a2.36,2.36,0,0,0,.87,3.24l1,.57q.35-.66.72-1.32c.56-1,1.14-2,1.73-3,.26-.43.52-.85.79-1.27Zm37.57,141.36c-1-.55-2-1.13-3-1.73-.43-.25-.86-.52-1.28-.79l-.56,1a2.37,2.37,0,0,0,.87,3.23l1.48.86a2.37,2.37,0,0,0,3.24-.86l.56-1Q368.22,423.62,367.56,423.24Zm-40-137.07,1,.55c.56-1,1.14-2,1.73-3l-1-.55a.82.82,0,0,0-.43-.12.87.87,0,0,0-.75.44L327.2,285a.86.86,0,0,0-.09.66A.85.85,0,0,0,327.52,286.17Zm.94,98q-.37-.66-.72-1.32l-1,.56a2.36,2.36,0,0,0-.87,3.24l.86,1.48A2.37,2.37,0,0,0,330,389l1-.57c-.27-.42-.53-.84-.79-1.27C329.59,386.13,329,385.14,328.46,384.13ZM511.8,283.28c-.27-.5-.55-1-.83-1.49a109.56,109.56,0,0,0-41.07-41.07h0c-.7-.4-1.4-.79-2.11-1.17a107.6,107.6,0,0,0-32.16-11.27l-2.29-.38h0l-.23,0-.23,0-.8-.12a110.63,110.63,0,0,0-14.88-1.13h-1.8a107.46,107.46,0,0,0-15.94,1.29l-.23,0a107.77,107.77,0,0,0-34.41,11.63c-.72.39-1.44.78-2.15,1.19h0c-1,.59-2.06,1.19-3.08,1.82l-1.42.88a109.66,109.66,0,0,0-35.64,36.77c-.32.53-.63,1.07-.93,1.6a108.13,108.13,0,0,0-14.16,53.63c0,.3,0,.6,0,.9h0a108,108,0,0,0,14.15,52.72c.3.53.61,1.07.93,1.6a109.52,109.52,0,0,0,35.4,36.62c1,.6,1.9,1.19,2.86,1.74.62.39,1.25.75,1.88,1.11a108.16,108.16,0,0,0,53.63,14.16h.91a108,108,0,0,0,51.25-13.33l1.47-.82A109.56,109.56,0,0,0,511,389.05c.28-.49.55-1,.82-1.47a108,108,0,0,0,13.33-51.25h0c0-.3,0-.6,0-.9A108.06,108.06,0,0,0,511.8,283.28Zm-6.29,98.2c-.23.45-.46.89-.7,1.33s-.47.87-.73,1.31c-.55,1-1.13,2-1.72,3-.26.43-.52.85-.79,1.27s-.53.86-.8,1.28a101.26,101.26,0,0,1-30.25,30.26l-1.27.79h0c-.42.27-.84.54-1.27.79-1,.6-2,1.18-3,1.73q-.66.38-1.32.72c-.44.25-.88.48-1.32.7A99.63,99.63,0,0,1,421,435.76l-1.5.06-1.5,0c-.58,0-1.15,0-1.73,0s-1.15,0-1.73,0l-1.5,0-1.5-.06a99.63,99.63,0,0,1-41.34-11.1c-.44-.22-.88-.45-1.32-.7s-.88-.47-1.32-.72c-1-.55-2-1.13-3-1.73-.43-.25-.86-.52-1.28-.79l-1.27-.79a101.26,101.26,0,0,1-30.25-30.26c-.27-.42-.54-.85-.8-1.28s-.53-.84-.79-1.27c-.59-1-1.17-2-1.72-3q-.37-.66-.72-1.32c-.25-.44-.48-.88-.71-1.33A99.72,99.72,0,0,1,316,340.15l-.06-1.5q0-.75,0-1.5c0-.57,0-1.14,0-1.71s0-1.17,0-1.75,0-1,0-1.5,0-1,.05-1.5a99.74,99.74,0,0,1,11.1-41.33c.22-.44.46-.88.7-1.32s.47-.88.72-1.32c.56-1,1.14-2,1.73-3,.26-.43.52-.85.79-1.27l.79-1.28A101.42,101.42,0,0,1,362,250.94l1.28-.8,1.27-.79c1-.6,2-1.17,3-1.73q.66-.37,1.32-.72l1.32-.7a99.69,99.69,0,0,1,41.33-11.09l1.5-.06,1.5,0c.58,0,1.15,0,1.73,0s1.15,0,1.73,0l1.5,0,1.5.06a99.69,99.69,0,0,1,41.33,11.09l1.32.7,1.32.72c1,.56,2,1.14,3,1.73l1.27.79,1.28.8a101.42,101.42,0,0,1,30.25,30.24l.79,1.28c.28.42.54.85.79,1.28.6,1,1.17,2,1.73,3q.38.66.72,1.32c.25.44.48.89.71,1.33a99.68,99.68,0,0,1,11.09,41.32c0,.5,0,1,0,1.5s0,1,0,1.5,0,1.17,0,1.75,0,1.14,0,1.71,0,1,0,1.5l-.06,1.5A99.72,99.72,0,0,1,505.51,381.48Zm-175.33,5.64c-.59-1-1.17-2-1.72-3q-.37-.66-.72-1.32l-1,.56a2.36,2.36,0,0,0-.87,3.24l.86,1.48A2.37,2.37,0,0,0,330,389l1-.57C330.7,388,330.44,387.55,330.18,387.12Zm-.94-103.94a.82.82,0,0,0-.43-.12.87.87,0,0,0-.75.44L327.2,285a.86.86,0,0,0-.09.66.85.85,0,0,0,.41.53l1,.55c.56-1,1.14-2,1.73-3Zm38.32,140.06c-1-.55-2-1.13-3-1.73-.43-.25-.86-.52-1.28-.79l-.56,1a2.37,2.37,0,0,0,.87,3.23l1.48.86a2.37,2.37,0,0,0,3.24-.86l.56-1Q368.22,423.62,367.56,423.24ZM330,281.88a2.37,2.37,0,0,0-3.23.87l-.86,1.48a2.36,2.36,0,0,0,.87,3.24l1,.57q.35-.66.72-1.32c.56-1,1.14-2,1.73-3,.26-.43.52-.85.79-1.27Zm.19,105.24c-.59-1-1.17-2-1.72-3q-.37-.66-.72-1.32l-1,.56a2.36,2.36,0,0,0-.87,3.24l.86,1.48A2.37,2.37,0,0,0,330,389l1-.57C330.7,388,330.44,387.55,330.18,387.12Zm37.38,36.12c-1-.55-2-1.13-3-1.73-.43-.25-.86-.52-1.28-.79l-.56,1a2.37,2.37,0,0,0,.87,3.23l1.48.86a2.37,2.37,0,0,0,3.24-.86l.56-1Q368.22,423.62,367.56,423.24Zm-37.38-36.12-.94.54a.86.86,0,0,1-1.18-.32l-.86-1.48a.86.86,0,0,1,.32-1.19l.94-.54q-.37-.66-.72-1.32l-1,.56a2.36,2.36,0,0,0-.87,3.24l.86,1.48A2.37,2.37,0,0,0,330,389l1-.57C330.7,388,330.44,387.55,330.18,387.12ZM330,281.88a2.37,2.37,0,0,0-3.23.87l-.86,1.48a2.36,2.36,0,0,0,.87,3.24l1,.57q.35-.66.72-1.32c.56-1,1.14-2,1.73-3,.26-.43.52-.85.79-1.27Z" transform="translate(-307.41 -183.84)"/><path class="cls-1" d="M315.86,337.15q0,.75,0,1.5h-1.11a2.37,2.37,0,0,1-2.37-2.37v-1.72a2.37,2.37,0,0,1,2.37-2.37h1.12c0,.5,0,1,0,1.5s0,1,0,1.47v.28C315.84,336,315.84,336.58,315.86,337.15Z" transform="translate(-307.41 -183.84)"/><path class="cls-1" d="M342.65,334.56v1.72a2.37,2.37,0,0,1-2.37,2.37H325.9c0-.5,0-1,0-1.5s0-1.14,0-1.71v-.28c0-.5,0-1,0-1.47s0-1,.05-1.5h14.37A2.37,2.37,0,0,1,342.65,334.56Z" transform="translate(-307.41 -183.84)"/><path class="cls-1" d="M340.28,330.69H326q0,.75-.06,1.5c0,.5,0,1-.05,1.5h14.42a.87.87,0,0,1,.87.87v1.72a.87.87,0,0,1-.87.87H325.86c0,.5,0,1,0,1.5s0,1,.06,1.5h14.32a3.87,3.87,0,0,0,3.87-3.87v-1.8A3.88,3.88,0,0,0,340.28,330.69Zm-24.42,6.46h-1.08a.87.87,0,0,1-.87-.87v-1.72a.87.87,0,0,1,.87-.87h1.08c0-.5,0-1,0-1.5s0-1,.05-1.5h-1.17a3.88,3.88,0,0,0-3.87,3.87v1.72a3.88,3.88,0,0,0,3.87,3.87H316l-.06-1.5Q315.86,337.9,315.86,337.15Z" transform="translate(-307.41 -183.84)"/><path class="cls-1" d="M331,388.39l-1,.57a2.37,2.37,0,0,1-3.23-.87l-.86-1.48a2.36,2.36,0,0,1,.87-3.24l1-.56q.35.66.72,1.32c.55,1,1.13,2,1.72,3C330.44,387.55,330.7,388,331,388.39Z" transform="translate(-307.41 -183.84)"/><path class="cls-1" d="M352.08,376.21l-12.18,7-.26.15c-.28-.42-.54-.84-.79-1.27-.6-1-1.18-2-1.73-3q-.37-.66-.72-1.32l.23-.13,12.22-7.06a2.37,2.37,0,0,1,3.24.87l.85,1.48A2.37,2.37,0,0,1,352.08,376.21Z" transform="translate(-307.41 -183.84)"/><path class="cls-1" d="M331,388.39c-.27-.42-.53-.84-.79-1.27l-.94.54a.86.86,0,0,1-1.18-.32l-.86-1.48a.86.86,0,0,1,.32-1.19l.94-.54q-.37-.66-.72-1.32c-.25-.44-.48-.88-.71-1.33l-1,.59a3.86,3.86,0,0,0-1.42,5.29l.86,1.48a1.76,1.76,0,0,0,.14.23l.15.21a3.91,3.91,0,0,0,3.07,1.5,3.82,3.82,0,0,0,1.92-.52l1-.59C331.5,389.25,331.23,388.82,331,388.39Zm23.77-14.52a3.68,3.68,0,0,0-.5-1.65l-.86-1.48a3.86,3.86,0,0,0-5.28-1.42l-12.17,7-.23.13c.23.45.46.89.7,1.33s.47.88.72,1.32l.24-.14,12.24-7.07a.85.85,0,0,1,.43-.12.89.89,0,0,1,.76.44l.85,1.48a.87.87,0,0,1-.31,1.19L339.1,382l-.25.14c.25.43.51.85.79,1.27s.53.85.81,1.27l12.38-7.15a3.87,3.87,0,0,0,1.8-2.35A3.33,3.33,0,0,0,354.74,373.87Z" transform="translate(-307.41 -183.84)"/><path class="cls-1" d="M368.88,424l-.56,1a2.37,2.37,0,0,1-3.24.86l-1.48-.86a2.37,2.37,0,0,1-.87-3.23l.56-1c.42.27.85.54,1.28.79,1,.6,2,1.18,3,1.73Q368.22,423.62,368.88,424Z" transform="translate(-307.41 -183.84)"/><path class="cls-1" d="M381.07,402.84l-6.94,12-.25.43-1.32-.72c-1-.55-2-1.13-3-1.73l-1.27-.79.24-.41,6.94-12a2.36,2.36,0,0,1,3.24-.87l1.48.86A2.35,2.35,0,0,1,381.07,402.84Z" transform="translate(-307.41 -183.84)"/><path class="cls-1" d="M382.87,401.38a3.8,3.8,0,0,0-1.92-3.07l-1.48-.86a3.86,3.86,0,0,0-5.29,1.42l-6.91,12-.24.41c.42.28.84.55,1.27.81l1.27.79.24-.42,7-12.06a.86.86,0,0,1,1.19-.32l1.48.85a.87.87,0,0,1,.32,1.19l-7,12.06-.25.43,1.32.72c.44.24.88.47,1.33.69l7.16-12.4A3.79,3.79,0,0,0,382.87,401.38Zm-14,22.58q-.66-.34-1.32-.72l-.54.93a.82.82,0,0,1-.53.41.86.86,0,0,1-.66-.09l-1.48-.85a.9.9,0,0,1-.41-.53.89.89,0,0,1,.09-.66l.54-.94c-.43-.25-.86-.52-1.28-.79l-1.27-.79-.59,1a3.85,3.85,0,0,0-.38,2.93,3.76,3.76,0,0,0,.37.93l.18.28a3.87,3.87,0,0,0,.92.93,3,3,0,0,0,.33.21l1.48.86a3.89,3.89,0,0,0,2.94.39,3.85,3.85,0,0,0,2.35-1.81l.58-1C369.76,424.44,369.32,424.21,368.88,424Z" transform="translate(-307.41 -183.84)"/><path class="cls-1" d="M419.5,411.41v14.4l-1.5,0-1.73,0-1.73,0-1.5,0v-14.4a2.37,2.37,0,0,1,2.37-2.37h1.72A2.37,2.37,0,0,1,419.5,411.41Z" transform="translate(-307.41 -183.84)"/><path class="cls-1" d="M419.5,435.82v1.09a2.37,2.37,0,0,1-2.37,2.37h-1.72a2.37,2.37,0,0,1-2.37-2.37v-1.09l1.5,0c.58,0,1.15,0,1.73,0s1.15,0,1.73,0Z" transform="translate(-307.41 -183.84)"/><path class="cls-1" d="M419.5,435.82l-1.5,0v1.06a.87.87,0,0,1-.87.87h-1.72a.87.87,0,0,1-.87-.87v-1.06l-1.5,0-1.5-.06v1.15a3.88,3.88,0,0,0,3.87,3.87h1.72a3.88,3.88,0,0,0,3.87-3.87v-1.15Zm-2.37-28.28h-1.72a3.88,3.88,0,0,0-3.87,3.87v14.34l1.5.06,1.5,0V411.41a.87.87,0,0,1,.87-.87h1.72a.87.87,0,0,1,.87.87v14.44l1.5,0,1.5-.06V411.34A3.88,3.88,0,0,0,417.13,407.54Z" transform="translate(-307.41 -183.84)"/><path class="cls-1" d="M464.24,412.06c-.42.28-.84.54-1.27.79-1,.6-2,1.18-3,1.73q-.64.38-1.32.72l-.25-.43-6.94-12a2.36,2.36,0,0,1,.87-3.23l1.48-.86a2.36,2.36,0,0,1,3.24.87l6.95,12Z" transform="translate(-307.41 -183.84)"/><path class="cls-1" d="M468.94,424.93l-1.48.86a2.37,2.37,0,0,1-3.24-.86l-.56-1q.66-.34,1.32-.72c1-.55,2-1.13,3-1.73.43-.25.85-.52,1.27-.79h0l.56,1A2.36,2.36,0,0,1,468.94,424.93Z" transform="translate(-307.41 -183.84)"/><path class="cls-1" d="M471.11,421l-.59-1-1.27.79h0c-.42.27-.84.54-1.27.79l.54.94a.85.85,0,0,1,.09.66.9.9,0,0,1-.41.53l-1.48.85a.85.85,0,0,1-.66.09.84.84,0,0,1-.53-.41l-.54-.93q-.66.38-1.32.72c-.44.25-.88.48-1.32.7l.58,1a3.85,3.85,0,0,0,3.36,1.94,3.81,3.81,0,0,0,1.93-.52l1.48-.86A3.86,3.86,0,0,0,471.11,421Zm-5.84-10.11-6.91-12a3.88,3.88,0,0,0-5.29-1.42l-1.48.86a3.77,3.77,0,0,0-1.8,2.35,2.58,2.58,0,0,0-.11.73,3.7,3.7,0,0,0,.49,2.2l7.16,12.4c.45-.22.89-.45,1.33-.69s.89-.47,1.32-.72l-.25-.43-7-12.06a.85.85,0,0,1-.09-.66.9.9,0,0,1,.41-.53l1.48-.85a.88.88,0,0,1,.44-.12.87.87,0,0,1,.75.44l7,12.06.24.42c.43-.25.85-.51,1.27-.79s.85-.53,1.27-.81Z" transform="translate(-307.41 -183.84)"/><path class="cls-1" d="M496.14,377.81q-.34.66-.72,1.32c-.55,1-1.12,2-1.73,3-.25.43-.51.86-.78,1.28l-.26-.15-12.18-7a2.36,2.36,0,0,1-.87-3.24l.86-1.48a2.36,2.36,0,0,1,3.23-.87l12.22,7.06Z" transform="translate(-307.41 -183.84)"/><path class="cls-1" d="M506.64,386.61l-.86,1.48a2.37,2.37,0,0,1-3.23.87l-1-.57c.27-.42.53-.84.79-1.27.59-1,1.17-2,1.72-3,.26-.44.5-.87.73-1.31l1,.56A2.37,2.37,0,0,1,506.64,386.61Z" transform="translate(-307.41 -183.84)"/><path class="cls-1" d="M496.61,376.35l-12.17-7a3.86,3.86,0,0,0-5.28,1.42l-.86,1.48a3.68,3.68,0,0,0-.5,1.65,3.77,3.77,0,0,0,.11,1.29,3.85,3.85,0,0,0,1.81,2.35l12.38,7.15c.28-.42.55-.84.81-1.27s.53-.85.78-1.28l-.25-.15-12.22-7a.84.84,0,0,1-.41-.53.85.85,0,0,1,.09-.66l.85-1.48a.87.87,0,0,1,.76-.44.82.82,0,0,1,.43.12L495.18,379l.24.14q.38-.66.72-1.32c.24-.44.47-.88.7-1.33Zm9.92,5.72-1-.59c-.23.45-.46.89-.7,1.33s-.47.87-.73,1.31l.95.55a.87.87,0,0,1,.31,1.19l-.85,1.48a.9.9,0,0,1-.53.41.85.85,0,0,1-.66-.09l-.94-.54c-.26.43-.52.85-.79,1.27s-.53.86-.8,1.28l1,.59a3.88,3.88,0,0,0,1.93.52,3.83,3.83,0,0,0,1-.14,3.77,3.77,0,0,0,2.35-1.8l.86-1.48A3.88,3.88,0,0,0,506.53,382.07Z" transform="translate(-307.41 -183.84)"/><path class="cls-1" d="M506.7,335.16v.28c0,.57,0,1.14,0,1.71s0,1,0,1.5H492.26a2.37,2.37,0,0,1-2.37-2.37v-1.72a2.37,2.37,0,0,1,2.37-2.37h14.37c0,.46,0,.91.05,1.37v.13C506.69,334.18,506.7,334.66,506.7,335.16Z" transform="translate(-307.41 -183.84)"/><path class="cls-1" d="M520.13,334.56v1.72a2.37,2.37,0,0,1-2.37,2.37h-1.11q0-.75,0-1.5c0-.57,0-1.14,0-1.71v-.28c0-.49,0-1,0-1.47v-.17c0-.44,0-.89,0-1.33h1.12A2.37,2.37,0,0,1,520.13,334.56Z" transform="translate(-307.41 -183.84)"/><path class="cls-1" d="M492.26,333.69h14.42v-.13c0-.46,0-.91-.05-1.37s0-1-.06-1.5H492.26a3.88,3.88,0,0,0-3.87,3.87v1.72a3.88,3.88,0,0,0,3.87,3.87h14.32c0-.5.05-1,.06-1.5s0-1,0-1.5H492.26a.87.87,0,0,1-.87-.87v-1.72A.87.87,0,0,1,492.26,333.69Zm25.5-3h-1.17c0,.5,0,1,0,1.5s0,.89,0,1.33v.17h1.08a.87.87,0,0,1,.87.87v1.72a.87.87,0,0,1-.87.87h-1.08q0,.75,0,1.5l-.06,1.5h1.17a3.88,3.88,0,0,0,3.87-3.87v-1.72A3.88,3.88,0,0,0,517.76,330.69Z" transform="translate(-307.41 -183.84)"/><path class="cls-1" d="M496.13,293l-12.44,7.18a2.36,2.36,0,0,1-3.23-.87l-.86-1.48a2.36,2.36,0,0,1,.87-3.24l12.42-7.17c.27.42.53.84.79,1.27.6,1,1.18,2,1.73,3Q495.79,292.38,496.13,293Z" transform="translate(-307.41 -183.84)"/><path class="cls-1" d="M505.78,287.47l-.76.44-.23.13q-.35-.66-.72-1.32c-.56-1-1.13-2-1.73-3-.25-.43-.51-.86-.79-1.28l.26-.15.74-.43a2.37,2.37,0,0,1,3.23.87l.86,1.48A2.37,2.37,0,0,1,505.78,287.47Z" transform="translate(-307.41 -183.84)"/><path class="cls-1" d="M496.6,293.94c-.15-.3-.31-.6-.47-.9s-.47-.88-.72-1.32l-12.47,7.2a.85.85,0,0,1-.66.09.9.9,0,0,1-.53-.41l-.85-1.48a.85.85,0,0,1-.09-.66.84.84,0,0,1,.41-.53l12.46-7.2c-.26-.43-.52-.85-.79-1.27s-.53-.85-.81-1.27l-12.36,7.14a3.85,3.85,0,0,0-1.81,2.35,3.68,3.68,0,0,0-.11.73,3.83,3.83,0,0,0,.5,2.21l.86,1.48a3.85,3.85,0,0,0,3.35,1.94,3.88,3.88,0,0,0,1.93-.52l12.39-7.15C496.76,294.22,496.68,294.08,496.6,293.94Zm11.34-10.46-.86-1.48a3.77,3.77,0,0,0-2.35-1.8,3.85,3.85,0,0,0-2.93.38L501,281l-.25.15.79,1.28c.28.42.54.85.79,1.28l.25-.14.71-.42a.82.82,0,0,1,.43-.12.87.87,0,0,1,.76.44l.85,1.48a.86.86,0,0,1,.09.66.83.83,0,0,1-.4.53l-.72.42h0l-.23.13q.38.66.72,1.32c.25.44.48.89.71,1.33l.22-.13.81-.47a3.87,3.87,0,0,0,1.8-2.35A3.83,3.83,0,0,0,507.94,283.48Z" transform="translate(-307.41 -183.84)"/><path class="cls-1" d="M464.23,258.8l-7.17,12.43a2.37,2.37,0,0,1-3.24.86l-1.48-.86a2.36,2.36,0,0,1-.87-3.23l7.18-12.43c.44.23.88.46,1.32.71,1,.56,2,1.13,3,1.73Z" transform="translate(-307.41 -183.84)"/><path class="cls-1" d="M469.81,249.14l-.34.59-.24.41-1.27-.79c-1-.59-2-1.17-3-1.73l-1.32-.72.25-.43.32-.55a2.36,2.36,0,0,1,3.24-.87l1.48.86A2.36,2.36,0,0,1,469.81,249.14Z" transform="translate(-307.41 -183.84)"/><path class="cls-1" d="M465.26,259.46c-.34-.23-.68-.45-1-.66L463,258l-7.2,12.47a.87.87,0,0,1-1.19.31l-1.48-.85a.87.87,0,0,1-.32-1.19l7.2-12.47c-.44-.25-.88-.48-1.32-.71s-.88-.48-1.33-.7l-7.15,12.38a3.67,3.67,0,0,0-.49,1.65,3.81,3.81,0,0,0,1.91,3.63l1.48.86a3.87,3.87,0,0,0,5.29-1.41l7.14-12.37Zm4.43-14.85-1.48-.86a3.87,3.87,0,0,0-5.29,1.42l-.34.6-.25.43,1.32.7,1.32.72.24-.42.31-.53a.87.87,0,0,1,.75-.44.88.88,0,0,1,.44.12l1.48.86a.86.86,0,0,1,.32,1.18l-.31.55-.24.41,1.27.79,1.28.8.23-.41.37-.64A3.87,3.87,0,0,0,469.69,244.61Z" transform="translate(-307.41 -183.84)"/><path class="cls-1" d="M419.5,233.93v1.12l-1.5,0c-.58,0-1.15,0-1.73,0s-1.15,0-1.73,0l-1.5,0v-1.12a2.37,2.37,0,0,1,2.37-2.37h1.72A2.37,2.37,0,0,1,419.5,233.93Z" transform="translate(-307.41 -183.84)"/><path class="cls-1" d="M419.5,245.06v14.37a2.37,2.37,0,0,1-2.37,2.37h-1.72a2.37,2.37,0,0,1-2.37-2.37V245.06l1.5,0,1.73,0,1.73,0Z" transform="translate(-307.41 -183.84)"/><path class="cls-1" d="M417.13,230.06h-1.72a3.88,3.88,0,0,0-3.87,3.87v1.18l1.5-.06,1.5,0v-1.09a.87.87,0,0,1,.87-.87h1.72a.87.87,0,0,1,.87.87V235l1.5,0,1.5.06v-1.18A3.88,3.88,0,0,0,417.13,230.06Zm2.37,15-1.5,0v14.41a.87.87,0,0,1-.87.87h-1.72a.87.87,0,0,1-.87-.87V245l-1.5,0c-.5,0-1,0-1.5.06v14.31a3.88,3.88,0,0,0,3.87,3.87h1.72a3.88,3.88,0,0,0,3.87-3.87V245.12C420.5,245.1,420,245.07,419.5,245.06Z" transform="translate(-307.41 -183.84)"/><path class="cls-1" d="M368.89,246.9q-.66.34-1.32.72c-1,.56-2,1.13-3,1.73l-1.27.79-.24-.41-.34-.59a2.37,2.37,0,0,1,.87-3.23l1.48-.86a2.36,2.36,0,0,1,3.24.87l.32.55Z" transform="translate(-307.41 -183.84)"/><path class="cls-1" d="M380.2,271.23l-1.48.86a2.37,2.37,0,0,1-3.24-.86l-7.17-12.42c.42-.28.84-.54,1.27-.8,1-.59,2-1.17,3-1.73l1.32-.71L381.07,268A2.35,2.35,0,0,1,380.2,271.23Z" transform="translate(-307.41 -183.84)"/><path class="cls-1" d="M370,245.77l-.34-.6a3.86,3.86,0,0,0-5.29-1.42l-1.48.86a3.77,3.77,0,0,0-1.8,2.35,3.85,3.85,0,0,0,.38,2.93l.37.64.23.41,1.28-.8,1.27-.79-.24-.41-.31-.55a.89.89,0,0,1-.09-.66.85.85,0,0,1,.41-.52l1.48-.86a.88.88,0,0,1,.44-.12.87.87,0,0,1,.75.44l.31.53.24.42q.66-.37,1.32-.72l1.32-.7Zm12.91,23.13a3.68,3.68,0,0,0-.5-1.65l-7.15-12.38-1.33.7-1.32.71,7.2,12.47a.87.87,0,0,1-.32,1.19l-1.48.85a.87.87,0,0,1-1.19-.31L369.58,258c-.43.26-.85.52-1.27.8s-.7.42-1,.65l-.23.16L374.18,272a3.86,3.86,0,0,0,3.36,1.93,3.81,3.81,0,0,0,1.93-.52l1.48-.86A3.84,3.84,0,0,0,382.87,268.9Z" transform="translate(-307.41 -183.84)"/><path class="cls-1" d="M331,282.46c-.27.42-.53.84-.79,1.27-.59,1-1.17,2-1.73,3q-.37.66-.72,1.32l-.23-.13-.75-.44a2.36,2.36,0,0,1-.87-3.24l.86-1.48a2.37,2.37,0,0,1,3.23-.87l.74.43Z" transform="translate(-307.41 -183.84)"/><path class="cls-1" d="M352.94,297.87l-.85,1.48a2.37,2.37,0,0,1-3.24.87L336.42,293c.23-.44.46-.88.71-1.32.56-1,1.13-2,1.73-3,.26-.43.52-.85.79-1.27l12.43,7.17A2.37,2.37,0,0,1,352.94,297.87Z" transform="translate(-307.41 -183.84)"/><path class="cls-1" d="M354.74,296.41a3.85,3.85,0,0,0-1.91-3.08l-12.37-7.14c-.28.42-.55.84-.81,1.27s-.53.84-.79,1.27l12.47,7.2a.87.87,0,0,1,.31,1.19l-.85,1.48a.87.87,0,0,1-1.19.32l-12.47-7.2c-.25.44-.48.88-.71,1.32s-.33.6-.48.9c-.08.14-.15.29-.22.43l12.38,7.15a3.86,3.86,0,0,0,5.28-1.42l.86-1.48A3.81,3.81,0,0,0,354.74,296.41ZM331.53,281l-.79-.45a3.86,3.86,0,0,0-5,1l-.15.21a1.76,1.76,0,0,0-.14.23l-.86,1.48a3.86,3.86,0,0,0,1.42,5.29l.81.47.22.12c.22-.44.46-.88.7-1.32s.47-.88.72-1.32l-.23-.13-.72-.42a.85.85,0,0,1-.41-.53.86.86,0,0,1,.09-.66l.86-1.48a.87.87,0,0,1,.75-.44.82.82,0,0,1,.43.12l.71.4h0l.25.14c.26-.43.52-.85.79-1.27l.79-1.28Z" transform="translate(-307.41 -183.84)"/><path class="cls-2" d="M466.52,342.45a16,16,0,0,0-3.1-8.94,24.67,24.67,0,0,0-4.07-4.36,32.63,32.63,0,0,0-4.37-3.1c-.75-.46-1.53-.89-2.33-1.31a51.66,51.66,0,0,0-5.8-2.56c-1.77-.66-3.64-1.26-5.6-1.78A82.77,82.77,0,0,0,428.06,318a4,4,0,0,1-.13.91l-1,4,.55.06c1.7.18,3.36.4,5,.68l.93.16,1.47.28.26.05,1.37.29,1.56.36h0l.17,0c.36.09.72.17,1.07.27l.16.05,1,.27.06,0,.34.09.08,0q.66.18,1.29.39l.46.14.3.1,1.19.4c.64.23,1.26.46,1.87.7l.56.23c.61.25,1.2.5,1.77.76s1.32.62,1.94.94c.36.18.71.37,1.05.56l.34.19q.84.48,1.62,1c.53.34,1,.69,1.53,1.06l.48.36c.16.12.32.24.47.37s.49.41.73.62a1.71,1.71,0,0,1,.2.18c.23.21.46.42.68.64s.37.37.54.56l.06.06c.2.21.38.43.56.64l.17.2q.25.32.48.63s0,0,0,0l.4.59.17.26s0,0,0,0a9,9,0,0,1,.51.9c.11.22.22.45.32.68s.19.46.27.7.1.29.15.43a8.42,8.42,0,0,1,.24,1c0,.12.05.25.07.38l0,.2c0,.25.06.51.08.76s0,.4,0,.6,0,.47,0,.71a8.13,8.13,0,0,1-.14,1.09s0,.06,0,.09a1.1,1.1,0,0,1-.06.26,7.85,7.85,0,0,1-.26.95,11.79,11.79,0,0,1-1.07,2.32,2.29,2.29,0,0,1-.18.29c-.06.1-.12.2-.19.3h0c-.28.41-.58.82-.91,1.22-.07.08-.13.16-.2.23s-.26.31-.4.46c-.28.31-.57.61-.88.9l-.47.44-.51.44-.52.43c-.17.15-.36.29-.54.42a28.9,28.9,0,0,1-2.88,1.94h0c-.25.15-.5.3-.76.44l0,0-.76.42-.83.42c-.28.15-.56.29-.85.42-.57.27-1.15.53-1.76.79l-.92.38c-.63.25-1.27.5-1.93.73-.31.12-.63.23-.95.33l-.16.06-1,.34-.83.25-1,.29-.58.16-1.4.37-.23.06-1.1.26c-.71.16-1.42.32-2.15.46l-.88.17c-.49.1-1,.19-1.49.27-.67.12-1.36.22-2,.32s-1.26.18-1.9.25l-.94.11q-1.23.13-2.49.24l-1,.08-.5,0c-.59,0-1.18.08-1.78.1s-.92,0-1.39.05-.94,0-1.41,0-1.13,0-1.7,0c-24.32,0-44-9.13-44-20.38,0-.2,0-.4,0-.6l0-.37c0-.22.05-.43.09-.65l.06-.32c0-.11,0-.21.07-.32a3.74,3.74,0,0,1,.12-.45,2.76,2.76,0,0,1,.08-.27,2.06,2.06,0,0,1,.12-.35,2,2,0,0,1,.1-.26,3.12,3.12,0,0,1,.15-.39c.1-.24.22-.49.34-.73a9.93,9.93,0,0,1,.51-.9c.18-.3.38-.59.59-.89t0,0c.2-.28.42-.55.65-.83s.24-.29.37-.43l.29-.31.08-.09.42-.43c.22-.22.45-.43.68-.64a1.71,1.71,0,0,1,.2-.18c.24-.21.48-.42.73-.62l.46-.37,1-.72.5-.35.54-.35q.78-.51,1.62-1l.34-.19c.34-.19.69-.38,1.05-.56,1.16-.6,2.4-1.17,3.71-1.7l.56-.23c1.22-.48,2.49-.93,3.82-1.34q.63-.21,1.29-.39l.08,0,.34-.09.06,0,1-.27.16-.05c.35-.1.71-.18,1.07-.27l.17,0,1.58-.37,1.37-.29.26-.05,1.47-.28.93-.16c1.61-.28,3.27-.5,5-.68l.55-.06-1-4a4.64,4.64,0,0,1-.13-.91c-22.66,2.4-38.18,12.13-38.46,24.48,0,.11,0,.23,0,.35,0,14.47,21.08,25.38,49,25.38s49-10.91,49-25.38C466.53,342.68,466.53,342.56,466.52,342.45Z" transform="translate(-307.41 -183.84)"/><rect class="cls-3" x="389.93" y="212.47" width="15.34" height="6.45" rx="2.37" transform="translate(305.89 -365.75) rotate(90)"/><rect class="cls-3" x="427.27" y="212.47" width="15.34" height="6.45" rx="2.37" transform="translate(343.22 -403.09) rotate(90)"/><rect class="cls-3" x="380.29" y="202.39" width="71.96" height="6.45" rx="2.37" transform="translate(525.13 227.4) rotate(180)"/><rect class="cls-3" x="374.99" y="193.87" width="17.05" height="6.45" rx="2.37" transform="translate(273.2 -370.27) rotate(90)"/><rect class="cls-3" x="440.5" y="193.87" width="17.05" height="6.45" rx="2.37" transform="translate(338.71 -435.77) rotate(90)"/><rect class="cls-3" x="380.29" y="185.34" width="71.96" height="6.45" rx="2.37" transform="translate(525.13 193.3) rotate(180)"/><rect class="cls-3" x="318.89" y="242.93" width="28.92" height="13.49" rx="4.66" transform="translate(-386.32 125.01) rotate(-45)"/><path class="cls-1" d="M461.53,342.8c0,.24,0,.47,0,.71a8.13,8.13,0,0,1-.14,1.09s0,.06,0,.09a1.1,1.1,0,0,1-.06.26,7.85,7.85,0,0,1-.26.95,11.79,11.79,0,0,1-1.07,2.32,2.29,2.29,0,0,1-.18.29c-.06.1-.12.2-.19.3h0c-.28.41-.58.82-.91,1.22-.07.08-.13.16-.2.23s-.26.31-.4.46c-.28.31-.57.61-.88.9l-.47.44-.51.44-.52.43-.54.42a28.9,28.9,0,0,1-2.88,1.94h0c-.25.15-.5.3-.76.44l0,0-.76.42-.83.42c-.28.15-.56.29-.85.42-.57.27-1.15.53-1.76.79l-.92.38c-.63.25-1.27.5-1.93.73-.31.12-.63.23-.95.33l-.16.06-1,.34-.83.25-1,.29-.58.16-1.4.37-.23.06-1.1.26c-.71.16-1.42.32-2.15.46l-.88.17c-.49.1-1,.19-1.49.27-.67.12-1.36.22-2,.32s-1.26.18-1.9.25l-.94.11q-1.23.13-2.49.24l-1,.08-.5,0c-.59,0-1.18.08-1.78.1s-.92,0-1.39.05-.94,0-1.41,0-1.13,0-1.7,0c-24.32,0-44-9.13-44-20.38,0-.2,0-.4,0-.6l0-.37c0-.22.05-.43.09-.65l.06-.32c0-.11,0-.21.07-.32a3.74,3.74,0,0,1,.12-.45,2.76,2.76,0,0,1,.08-.27,2.06,2.06,0,0,1,.12-.35,2,2,0,0,1,.1-.26,3.12,3.12,0,0,1,.15-.39c.1-.24.22-.49.34-.73s.33-.61.51-.9.38-.59.59-.89t0,0c.2-.28.42-.55.65-.83s.24-.29.37-.43l.29-.31.08-.09.42-.43c.22-.22.45-.43.68-.64a1.71,1.71,0,0,1,.2-.18c.24-.21.48-.42.73-.62l.46-.37,1-.72.5-.35.54-.35q.78-.51,1.62-1l.34-.19c.34-.19.69-.38,1.05-.56,1.16-.6,2.4-1.17,3.71-1.7l.56-.23c1.22-.48,2.49-.93,3.82-1.34q.63-.21,1.29-.39l.08,0,.34-.09.06,0,1-.27.16-.05,1.07-.27.17,0,1.58-.37,1.37-.29.26-.05,1.47-.28.93-.16c1.61-.28,3.27-.5,5-.68l.55-.06,1.23,4.91,3.36,13.4a5,5,0,0,0,9.7,0l3.36-13.4,1.23-4.91.55.06c1.7.18,3.36.4,5,.68l.93.16,1.47.28.26.05,1.37.29,1.56.36h0l.17,0,1.07.27.16.05,1,.27.06,0,.34.09.08,0q.66.18,1.29.39l.46.14.3.1,1.19.4c.64.23,1.26.46,1.87.7l.56.23c.61.25,1.2.5,1.77.76s1.32.62,1.94.94c.36.18.71.37,1.05.56l.34.19q.84.48,1.62,1c.53.34,1,.69,1.53,1.06l.48.36c.16.12.32.24.47.37s.49.41.73.62a1.71,1.71,0,0,1,.2.18c.23.21.46.42.68.64s.37.37.54.56l.06.06c.2.21.38.43.56.64l.17.2q.25.32.48.63s0,0,0,0l.4.59.17.26s0,0,0,0q.27.44.51.9c.11.22.22.45.32.68s.19.46.27.7.1.29.15.43a8.42,8.42,0,0,1,.24,1c0,.12.05.25.07.38l0,.2c0,.25.06.51.08.76S461.53,342.6,461.53,342.8Z" transform="translate(-307.41 -183.84)"/><path class="cls-1" d="M466.52,342.45a16,16,0,0,0-3.1-8.94,24.67,24.67,0,0,0-4.07-4.36,32.63,32.63,0,0,0-4.37-3.1c-.75-.46-1.53-.89-2.33-1.31a51.66,51.66,0,0,0-5.8-2.56c-1.77-.66-3.64-1.26-5.6-1.78A82.77,82.77,0,0,0,428.06,318a4,4,0,0,1-.13.91l-1,4-1.23,4.91a68.73,68.73,0,0,1,18.43,4.08,37.55,37.55,0,0,1,5.85,2.84h0c3.42,2.08,5.62,4.38,6.31,6.61h0a5,5,0,0,1,.23,1.46,6.37,6.37,0,0,1-1.56,3.84,14.18,14.18,0,0,1-1.57,1.69,23.87,23.87,0,0,1-4.38,3.08c-6.67,3.77-17.54,6.77-31.53,6.77-24.19,0-39-9-39-15.38,0-6.09,12.27-13.31,30.83-15l-1.23-4.91-1-4a4.64,4.64,0,0,1-.13-.91c-22.66,2.4-38.18,12.13-38.46,24.48,0,.11,0,.23,0,.35,0,14.47,21.08,25.38,49,25.38s49-10.91,49-25.38C466.53,342.68,466.53,342.56,466.52,342.45Z" transform="translate(-307.41 -183.84)"/><path class="cls-2" d="M315.93,330.69l0,.94c0,.19,0,.37,0,.56s0,.63,0,.94,0,.37,0,.56c0,.4,0,.8,0,1.19,0-.4,0-.79,0-1.19s0-1,0-1.5,0-1,.05-1.5Zm24.35,8.9H326c0-.31,0-.63,0-.94s0-.37,0-.56l0-.94c0-.19,0-.37,0-.56,0-.39,0-.77,0-1.15,0,.57,0,1.14,0,1.71s0,1,0,1.5,0,1,.06,1.5h14.32a3.87,3.87,0,0,0,3.87-3.87v-.56A3.87,3.87,0,0,1,340.28,339.59ZM331.53,281c-.19.29-.36.58-.54.87l-.26.41c-.18.28-.35.57-.53.86l-.25.41h0c-.5.84-1,1.7-1.48,2.57l-.23.43c-.18.3-.33.59-.49.89l-.23.43c-.16.3-.32.59-.47.89-.08.15-.15.29-.22.44l.22.12c.22-.44.46-.88.7-1.32s.47-.88.72-1.32c.56-1,1.14-2,1.73-3,.26-.43.52-.85.79-1.27l.79-1.28Zm23.21,92.84a2.64,2.64,0,0,1-.11.73,3.87,3.87,0,0,1-1.8,2.35l-12.38,7.15c-.19-.28-.37-.57-.55-.86-.09-.13-.18-.27-.26-.41s-.37-.56-.54-.85l-.25-.42c-.52-.84-1-1.7-1.49-2.57-.09-.14-.16-.28-.24-.42l-.49-.89-.23-.43c-.16-.3-.32-.6-.47-.9l-.23.13c.23.45.46.89.7,1.33s.47.88.72,1.32c.55,1,1.13,2,1.73,3,.25.43.51.85.79,1.27s.53.85.81,1.27l12.38-7.15a3.87,3.87,0,0,0,1.8-2.35A3.33,3.33,0,0,0,354.74,373.87Zm0-77.46a3.68,3.68,0,0,1-.5,1.65l-.86,1.48A3.86,3.86,0,0,1,348.1,301l-12.16-7c-.08.14-.15.29-.22.43l12.38,7.15a3.86,3.86,0,0,0,5.28-1.42l.86-1.48A3.81,3.81,0,0,0,354.74,296.41ZM370,245.77l-1.07.57-.25.13-1.07.59-.24.14c-.93.51-1.85,1-2.75,1.59l-.24.15-1,.64-.24.15-1,.65-.23.15.23.41,1.28-.8,1.27-.79c1-.6,2-1.17,3-1.73q.66-.37,1.32-.72l1.32-.7Zm12.91,23.13A3.8,3.8,0,0,1,381,272l-1.48.86a3.81,3.81,0,0,1-1.93.52,3.86,3.86,0,0,1-3.36-1.93l-6.91-12-.23.16L374.18,272a3.86,3.86,0,0,0,3.36,1.93,3.81,3.81,0,0,0,1.93-.52l1.48-.86A3.84,3.84,0,0,0,382.87,268.9Zm0,132.48a3.68,3.68,0,0,1-.5,1.65l-7.16,12.4c-.37-.18-.72-.36-1.08-.56l-.25-.13c-.36-.19-.71-.38-1.07-.59l-.25-.13c-.93-.51-1.85-1-2.75-1.59l-.24-.14-1-.64-.24-.15c-.35-.21-.69-.43-1-.66l-.24.41c.42.28.84.55,1.27.81l1.27.79c1,.6,2,1.18,3,1.73l1.32.72c.44.24.88.47,1.33.69l7.16-12.4A3.79,3.79,0,0,0,382.87,401.38Zm34.26-138.64h-1.72a3.88,3.88,0,0,1-3.87-3.87v.56a3.88,3.88,0,0,0,3.87,3.87h1.72a3.88,3.88,0,0,0,3.87-3.87v-.56A3.88,3.88,0,0,1,417.13,262.74Zm2.37-28.25-1.5,0c-.58,0-1.15,0-1.73,0s-1.15,0-1.73,0l-1.5,0-1.5.06v.56l1.5-.06,1.5,0c.58,0,1.15,0,1.73,0s1.15,0,1.73,0l1.5,0,1.5.06v-.56Zm-2,73.4a4.23,4.23,0,0,1-4.25-3.83V304a2.69,2.69,0,0,1,0-.4,4.28,4.28,0,0,1,5.47-4.11,6.14,6.14,0,0,0-.52-.5,8.75,8.75,0,0,0-5.8-2.19h-.45a8.78,8.78,0,0,0-8.33,8.77c0,.3,0,.6.05.9a8.76,8.76,0,0,0,2.19,5,8.94,8.94,0,0,0,2.84,2.1,8.8,8.8,0,0,0,3,.78c.22,0,.45,0,.67,0a8.62,8.62,0,0,0,4.23-1.09,8.81,8.81,0,0,0,1.35-.9,9.08,9.08,0,0,0,.89-.86,8.74,8.74,0,0,0,2.3-5.68A4.25,4.25,0,0,1,417.49,307.89Zm2,117.36-1.5,0-1.73,0-1.73,0-1.5,0-1.5-.06v.56l1.5.06,1.5,0,1.73,0,1.73,0,1.5,0,1.5-.06v-.56Zm45.76-165.79-6.9,12a3.87,3.87,0,0,1-5.29,1.41l-1.48-.86a3.79,3.79,0,0,1-1.91-3.07,3.81,3.81,0,0,0,1.91,3.63l1.48.86a3.87,3.87,0,0,0,5.29-1.41l7.14-12.37Zm0,151.38c-.34.23-.68.45-1,.66l-.23.15c-.34.22-.69.44-1,.64l-.24.14c-.9.55-1.82,1.08-2.75,1.59l-.25.13c-.35.21-.71.4-1.07.59l-.25.13c-.36.2-.71.38-1.08.56L450.17,403a3.72,3.72,0,0,1-.49-1.64,3.7,3.7,0,0,0,.49,2.2l7.16,12.4c.45-.22.89-.45,1.33-.69s.89-.47,1.32-.72c1-.55,2-1.13,3-1.73.43-.25.85-.51,1.27-.79s.85-.53,1.27-.81Zm5.24-160.46-1-.65-.24-.15-1-.64-.24-.15c-.91-.54-1.82-1.08-2.75-1.59l-.24-.14-1.07-.59-.25-.13-1.07-.57-.25.43,1.32.7,1.32.72c1,.56,2,1.14,3,1.73l1.27.79,1.28.8.23-.41Zm26.09,43.56-12.16,7a3.88,3.88,0,0,1-1.93.52,3.85,3.85,0,0,1-3.35-1.94l-.86-1.48a3.68,3.68,0,0,1-.5-1.65,3.83,3.83,0,0,0,.5,2.21l.86,1.48a3.85,3.85,0,0,0,3.35,1.94,3.88,3.88,0,0,0,1.93-.52l12.39-7.15C496.76,294.22,496.68,294.08,496.6,293.94Zm0,82.41c-.15.3-.31.6-.47.9l-.23.43-.49.89c-.08.14-.15.28-.24.42-.47.87-1,1.72-1.49,2.56-.08.14-.16.28-.25.41-.17.29-.35.58-.53.87s-.17.28-.26.41c-.18.29-.36.58-.55.86L479.72,377a3.85,3.85,0,0,1-1.81-2.35,3.68,3.68,0,0,1-.11-.73,3.77,3.77,0,0,0,.11,1.29,3.85,3.85,0,0,0,1.81,2.35l12.38,7.15c.28-.42.55-.84.81-1.27s.53-.85.78-1.28c.61-1,1.18-2,1.73-3q.38-.66.72-1.32c.24-.44.47-.88.7-1.33Zm8.89-87.54c-.16-.3-.31-.6-.48-.9l-.23-.43c-.16-.3-.31-.59-.48-.89h0l-.23-.43c-.48-.87-1-1.72-1.48-2.56-.08-.14-.16-.28-.25-.42-.17-.29-.34-.58-.53-.87-.08-.14-.17-.28-.26-.41-.18-.29-.35-.58-.54-.87l-.25.15.79,1.28c.28.42.54.85.79,1.28.6,1,1.17,2,1.73,3q.38.66.72,1.32c.25.44.48.89.71,1.33l.22-.13C505.65,289.09,505.57,289,505.5,288.81Zm1.18,47.78c0,.19,0,.37,0,.56l0,.94c0,.19,0,.37,0,.56s0,.63,0,.94H492.26a3.88,3.88,0,0,1-3.87-3.87v.56a3.88,3.88,0,0,0,3.87,3.87h14.32c0-.5.05-1,.06-1.5s0-1,0-1.5,0-1.14,0-1.71C506.7,335.82,506.69,336.2,506.68,336.59Zm10-3.73c0,.18,0,.37,0,.55v-.28A2.44,2.44,0,0,0,516.67,332.86Zm0-1.23,0-.94h0c0,.5,0,1,0,1.5l0,.67c0-.22,0-.45,0-.67S516.65,331.82,516.64,331.63Zm.05,2.06a1,1,0,0,0,0-.17v.17c0,.4,0,.79,0,1.19C516.7,334.49,516.7,334.09,516.69,333.69Z" transform="translate(-307.41 -183.84)"/><path class="cls-2" d="M467.25,316.2a4.76,4.76,0,0,0-1-2.13,5,5,0,0,0-3.92-1.91H445.6a4.78,4.78,0,0,0-1.13.13,5,5,0,0,0-3.86,5,4.23,4.23,0,0,0,.12,1l0,.14c0,.22.1.44.16.66l.17.67q2.94.79,5.59,1.78a48.22,48.22,0,0,1,5.8,2.53c.9.46,1.77.95,2.61,1.46a34.67,34.67,0,0,1,4.37,3.13,24,24,0,0,1,4,4.41l.31-1.25.4-1.58,2.86-11.39h0a2.11,2.11,0,0,0,.09-.36l.05-.2A4.75,4.75,0,0,0,467.25,316.2Zm-.73,26.25c-.19,14.37-21.2,25.17-49,25.17s-48.84-10.8-49-25.17c0,.11,0,.23,0,.35,0,14.47,21.08,25.38,49,25.38s49-10.91,49-25.38C466.53,342.68,466.53,342.56,466.52,342.45Z" transform="translate(-307.41 -183.84)"/><path class="cls-2" d="M516.68,333.69v-.28c0-.18,0-.37,0-.55l0-.67c0-.5,0-1,0-1.5h0c0-.19,0-.37,0-.56a99.61,99.61,0,0,0-10.87-40.89l-.22.13c-.23-.44-.46-.89-.71-1.33s-.47-.88-.72-1.32c-.56-1-1.13-2-1.73-3-.25-.43-.51-.86-.79-1.28l-.79-1.28L501,281l-.25-.41a101.44,101.44,0,0,0-30-30.09l-.23.41-1.28-.8-1.27-.79c-1-.59-2-1.17-3-1.73l-1.32-.72-1.32-.7.25-.43-.25-.13A99.69,99.69,0,0,0,421,234.55v.56l-1.5-.06-1.5,0c-.58,0-1.15,0-1.73,0s-1.15,0-1.73,0l-1.5,0-1.5.06v-.56a99.69,99.69,0,0,0-41.33,11.09l-.25.13.25.43-1.32.7q-.66.34-1.32.72c-1,.56-2,1.13-3,1.73l-1.27.79-1.28.8-.23-.41a101.44,101.44,0,0,0-30,30.09l-.25.41.25.15-.79,1.28c-.27.42-.53.84-.79,1.27-.59,1-1.17,2-1.73,3q-.37.66-.72,1.32c-.24.44-.48.88-.7,1.32l-.22-.12A99.62,99.62,0,0,0,316,330.13c0,.19,0,.37,0,.56h0c0,.5,0,1-.05,1.5s0,1,0,1.5,0,.79,0,1.19v.28c0,.48,0,.95,0,1.43s0,1,0,1.5l.06,1.5A99.72,99.72,0,0,0,327,380.92c.23.45.46.89.71,1.33s.47.88.72,1.32c.55,1,1.13,2,1.72,3,.26.43.52.85.79,1.27s.53.86.8,1.28A101.26,101.26,0,0,0,362,419.37l1.27.79c.42.27.85.54,1.28.79,1,.6,2,1.18,3,1.73q.66.38,1.32.72c.44.25.88.48,1.32.7a99.63,99.63,0,0,0,41.34,11.1l1.5.06,1.5,0c.58,0,1.15,0,1.73,0s1.15,0,1.73,0l1.5,0,1.5-.06a99.63,99.63,0,0,0,41.34-11.1c.44-.22.88-.45,1.32-.7s.88-.47,1.32-.72c1-.55,2-1.13,3-1.73.43-.25.85-.52,1.27-.79h0l1.27-.79a101.26,101.26,0,0,0,30.25-30.26c.27-.42.54-.85.8-1.28s.53-.84.79-1.27c.59-1,1.17-2,1.72-3,.26-.44.5-.87.73-1.31s.47-.88.7-1.33a99.72,99.72,0,0,0,11.08-41.33l.06-1.5q0-.75,0-1.5c0-.48,0-.95,0-1.43v-.28C516.7,334.48,516.69,334.09,516.68,333.69Zm-181-39.88c.22-.45.45-.89.7-1.33s.46-.88.71-1.32c.56-1,1.13-2,1.73-3,.26-.43.52-.85.79-1.27s.53-.85.81-1.27l12.37,7.14a3.88,3.88,0,0,1,1.91,3.64,3.81,3.81,0,0,1-.5,2.21l-.86,1.48a3.86,3.86,0,0,1-5.28,1.42l-12.38-7.15c.07-.14.14-.29.22-.43ZM326,340.15c0-.5,0-1-.06-1.5s0-1,0-1.5,0-1.14,0-1.71v-.56c0-.59,0-1.17,0-1.75s0-1,.05-1.5,0-1,.06-1.5h14.31a3.87,3.87,0,0,1,3.87,3.87v2.28a3.87,3.87,0,0,1-3.87,3.87Zm28.67,35a3.87,3.87,0,0,1-1.8,2.35l-12.38,7.15c-.28-.42-.55-.84-.81-1.27s-.54-.84-.79-1.27c-.6-1-1.18-2-1.73-3q-.37-.66-.72-1.32c-.24-.44-.47-.88-.7-1.33l.23-.13c-.08-.14-.16-.28-.23-.43l12.4-7.16a3.86,3.86,0,0,1,5.28,1.42l.86,1.48a3.76,3.76,0,0,1,.5,2.21A3.33,3.33,0,0,1,354.63,375.16Zm95.54-108.47,7.15-12.38c.45.22.89.45,1.33.7s.88.46,1.32.71c1,.56,2,1.13,3,1.73l1.27.79c.43.26.85.53,1.27.81l-.24.41.24.15L458.36,272a3.87,3.87,0,0,1-5.29,1.41l-1.48-.86a3.81,3.81,0,0,1-1.91-3.63A3.71,3.71,0,0,1,450.17,266.69Zm-38.63-22.13c.5,0,1-.05,1.5-.06l1.5,0,1.73,0,1.73,0,1.5,0c.5,0,1,0,1.5.06v14.87a3.88,3.88,0,0,1-3.87,3.87h-1.72a3.88,3.88,0,0,1-3.87-3.87Zm-7.24,57.55a8.77,8.77,0,0,1,7.61-5.29h.45a8.75,8.75,0,0,1,5.8,2.19,6.14,6.14,0,0,1,.52.5,4.29,4.29,0,0,1,3.09,4.11c0,.13,0,.27,0,.4a4.11,4.11,0,0,1-.62,1.83,8.74,8.74,0,0,1-2.3,5.68,9.08,9.08,0,0,1-.89.86,8.81,8.81,0,0,1-1.35.9,8.62,8.62,0,0,1-4.23,1.09c-.22,0-.45,0-.67,0a8.8,8.8,0,0,1-3-.78,8.94,8.94,0,0,1-2.84-2.1,8.76,8.76,0,0,1-2.19-5c0-.3-.05-.6-.05-.9A8.77,8.77,0,0,1,404.3,302.11ZM367,259.06c.42-.29.84-.56,1.27-.81s.84-.54,1.27-.8c1-.59,2-1.17,3-1.73l1.32-.71,1.33-.7,7.15,12.38a3.79,3.79,0,0,1,.5,2.21,3.84,3.84,0,0,1-1.92,3.63l-1.48.86a3.81,3.81,0,0,1-1.93.52,3.86,3.86,0,0,1-3.36-1.93L367,259.62l.23-.16Zm15.33,144.53L375.21,416c-.45-.22-.89-.45-1.33-.69l-1.32-.72c-1-.55-2-1.13-3-1.73l-1.27-.79c-.43-.26-.85-.53-1.27-.81l.24-.41-.24-.15,7.15-12.38a3.86,3.86,0,0,1,5.29-1.42l1.48.86a3.84,3.84,0,0,1,1.92,3.63A3.79,3.79,0,0,1,382.37,403.59ZM421,425.75l-1.5.06-1.5,0-1.73,0-1.73,0-1.5,0-1.5-.06v-14.9a3.88,3.88,0,0,1,3.87-3.87h1.72a3.88,3.88,0,0,1,3.87,3.87Zm44.51-14.5c-.42.28-.84.55-1.27.81s-.84.54-1.27.79c-1,.6-2,1.18-3,1.73q-.64.38-1.32.72c-.44.24-.88.47-1.33.69l-7.16-12.4a3.7,3.7,0,0,1-.49-2.2,3.31,3.31,0,0,1,.11-1.29,3.77,3.77,0,0,1,1.8-2.35l1.48-.86a3.88,3.88,0,0,1,5.29,1.42l7.15,12.38c-.08.05-.16.11-.24.15Zm1.71-92.93-.05.2a2.11,2.11,0,0,1-.09.36h0l-2.86,11.39-.4,1.58-.31,1.25a15.83,15.83,0,0,1,3,9.14,1.48,1.48,0,0,1,0,.21c0,.11,0,.23,0,.35,0,14.47-21.08,25.38-49,25.38s-49-10.91-49-25.38c0-.12,0-.24,0-.35.28-12.35,15.8-22.08,38.46-24.48a4.64,4.64,0,0,0,.13.91l1,4,1.23,4.91,3.36,13.4a5,5,0,0,0,9.7,0l3.36-13.4,1.23-4.91,1-4a4,4,0,0,0,.13-.91,82.77,82.77,0,0,1,13.19,2.43l-.15-.61-.17-.67c-.06-.22-.12-.44-.16-.66l0-.14a4.23,4.23,0,0,1-.12-1,5,5,0,0,1,3.86-5,4.78,4.78,0,0,1,1.13-.13h16.76a5,5,0,0,1,3.92,1.91,5.09,5.09,0,0,1,.94,4.25Zm10.69-23.2a3.85,3.85,0,0,1,1.81-2.35l12.36-7.14c.28.42.55.84.81,1.27s.53.84.79,1.27c.6,1,1.18,2,1.73,3q.38.66.72,1.32c.24.44.47.88.7,1.33l-.23.13c.08.14.16.28.23.43l-12.39,7.15a3.88,3.88,0,0,1-1.93.52,3.85,3.85,0,0,1-3.35-1.94l-.86-1.48a3.83,3.83,0,0,1-.5-2.21A3.77,3.77,0,0,1,477.91,295.12Zm18.93,81.36c-.23.45-.46.89-.7,1.33s-.47.88-.72,1.32c-.55,1-1.12,2-1.73,3-.25.43-.51.86-.78,1.28s-.53.85-.81,1.27l-12.38-7.15a3.85,3.85,0,0,1-1.81-2.35,3.77,3.77,0,0,1-.11-1.29,3.83,3.83,0,0,1,.5-2.21l.86-1.48a3.86,3.86,0,0,1,5.28-1.42l12.4,7.16c-.07.15-.15.29-.23.43Zm9.86-41c0,.57,0,1.14,0,1.71s0,1,0,1.5,0,1-.06,1.5H492.26a3.88,3.88,0,0,1-3.87-3.87V334a3.88,3.88,0,0,1,3.87-3.87h14.31q0,.75.06,1.5c0,.5,0,1,.05,1.5v.43c0,.44,0,.87,0,1.32Z" transform="translate(-307.41 -183.84)"/><path class="cls-1" d="M425.24,302.72l0,.21a2,2,0,0,1-.07.26,0,0,0,0,1,0,0l-.95,4.1-1.65,7.12-.87,3.76-.3,1.27-3.88,16.72-3.88-16.72-.3-1.27-.86-3.75-.32-1.39-1.24-5.32-.11-.46,0-.15-.85-3.65a.29.29,0,0,1,0-.09c0-.15-.08-.3-.11-.45l0-.21h3.83v0a4.05,4.05,0,0,0,3.94,3.83,3.87,3.87,0,0,0,3.37-2.05,4.33,4.33,0,0,0,.58-1.83Z" transform="translate(-307.41 -183.84)"/><path class="cls-1" d="M416.11,309.65a43.64,43.64,0,0,0-5.37-2.53l0,.15.11.46.29.12a46.2,46.2,0,0,1,5.09,2.44Zm0,0a43.64,43.64,0,0,0-5.37-2.53l0,.15.11.46.29.12a46.2,46.2,0,0,1,5.09,2.44Zm0,0a43.64,43.64,0,0,0-5.37-2.53l0,.15.11.46.29.12a46.2,46.2,0,0,1,5.09,2.44Zm0,0a43.64,43.64,0,0,0-5.37-2.53l0,.15.11.46.29.12a46.2,46.2,0,0,1,5.09,2.44Zm.55,2.34a7.55,7.55,0,0,1-3.92,1.09c-.21,0-.42,0-.62,0l.32,1.39a11.53,11.53,0,0,0,5.05,1.17Zm13.12-10.24v0a5,5,0,0,0-.89-2.1,4.52,4.52,0,0,0-3.64-1.91H409.73a4.08,4.08,0,0,0-1.05.13,4.6,4.6,0,0,0-2.6,1.78,5.15,5.15,0,0,0-.88,2v0a5,5,0,0,0-.1,1.23,4.82,4.82,0,0,0,.11,1l0,.14c0,.17.07.34.11.51s0,.1,0,.15l.16.67.14.61.17.77v0l.8,3.42.34,1.46.85,3.7.48,2.07v0l2.27,9.77,2.26,9.76.11.43a4.83,4.83,0,0,0,2.9,3.46h0a4.2,4.2,0,0,0,1.58.31A4.7,4.7,0,0,0,422,337.4l.71-3h0l1.66-7.14.05-.23,1.09-4.67.76-3.26.09-.41.29-1.25.37-1.58,2.15-9.23.5-2.17h0l0-.09v0a.94.94,0,0,0,.06-.24l.05-.2A5.22,5.22,0,0,0,429.78,301.75Zm-11.25,9.36-.11.49-.93,4-.83-3.62-.24-1-.16-.73-.15-.64-.45-1.94h3.66l-.59,2.52-.18.79Zm-1-13.07a3.67,3.67,0,0,1,1.1.17,4.26,4.26,0,0,1,2.87,4.11c0,.13,0,.27,0,.4a4.33,4.33,0,0,1-.58,1.83,3.87,3.87,0,0,1-3.37,2.05,4.05,4.05,0,0,1-3.94-3.83v0a2.69,2.69,0,0,1,0-.4A4.14,4.14,0,0,1,417.49,298Zm-1.38,11.61a43.64,43.64,0,0,0-5.37-2.53l0,.15.11.46.29.12a46.2,46.2,0,0,1,5.09,2.44Zm0,0a43.64,43.64,0,0,0-5.37-2.53l0,.15.11.46.29.12a46.2,46.2,0,0,1,5.09,2.44Zm0,0a43.64,43.64,0,0,0-5.37-2.53l0,.15.11.46.29.12a46.2,46.2,0,0,1,5.09,2.44Zm0,0a43.64,43.64,0,0,0-5.37-2.53l0,.15.11.46.29.12a46.2,46.2,0,0,1,5.09,2.44Z" transform="translate(-307.41 -183.84)"/><path class="cls-4" d="M424.41,297.71a8,8,0,0,0-6.92-4.17,7.8,7.8,0,0,0-5.17,2,8.65,8.65,0,0,0-1.75,2.18,9.24,9.24,0,0,0-1.21,4.61c0,.3,0,.6,0,.9a9.12,9.12,0,0,0,1.37,4,4.6,4.6,0,0,0,.4.58,8,8,0,0,0,5.25,3.17,7.59,7.59,0,0,0,1.07.08h.42a4.81,4.81,0,0,0,.64-.07,8,8,0,0,0,5.63-3.71,9.38,9.38,0,0,0,.23-9.6Zm-3.55,6.84a3.87,3.87,0,0,1-3.37,2.05,4.05,4.05,0,0,1-3.94-3.83v0a2.69,2.69,0,0,1,0-.4,4.14,4.14,0,0,1,4-4.28,3.67,3.67,0,0,1,1.1.17,4.26,4.26,0,0,1,2.87,4.11c0,.13,0,.27,0,.4A4.33,4.33,0,0,1,420.86,304.55Z" transform="translate(-307.41 -183.84)"/><path class="cls-1" d="M429.78,301.72c-.29-7-5.69-12.68-12.29-12.68-6.31,0-11.54,5.16-12.22,11.78a7.35,7.35,0,0,0-.07.82v0c0,.22,0,.44,0,.66a12.75,12.75,0,0,0,.06,1.35c0,.29.07.57.11.85a14.1,14.1,0,0,0,.51,2.2v0a13.33,13.33,0,0,0,3.43,5.52,12.27,12.27,0,0,0,3.13,2.17,11.42,11.42,0,0,0,10.09,0,13,13,0,0,0,6.61-7.83,14,14,0,0,0,.5-2.17.28.28,0,0,0,0-.09v0a13,13,0,0,0,.14-2C429.79,302.12,429.79,301.92,429.78,301.72Zm-8.92,2.83a3.87,3.87,0,0,1-3.37,2.05,4.05,4.05,0,0,1-3.94-3.83v0a2.69,2.69,0,0,1,0-.4,4.14,4.14,0,0,1,4-4.28,3.67,3.67,0,0,1,1.1.17,4.26,4.26,0,0,1,2.87,4.11c0,.13,0,.27,0,.4A4.33,4.33,0,0,1,420.86,304.55Z" transform="translate(-307.41 -183.84)"/><path class="cls-2" d="M421.46,302.32c0,.13,0,.27,0,.4a4.33,4.33,0,0,1-.58,1.83,3.87,3.87,0,0,1-3.37,2.05,4.05,4.05,0,0,1-3.94-3.83v0a2.69,2.69,0,0,1,0-.4,4.14,4.14,0,0,1,4-4.28,3.67,3.67,0,0,1,1.1.17A4.26,4.26,0,0,1,421.46,302.32Z" transform="translate(-307.41 -183.84)"/></svg>