<?xml version="1.0" encoding="utf-8"?>
<!-- Generator: Adobe Illustrator 26.0.3, SVG Export Plug-In . SVG Version: 6.00 Build 0)  -->
<svg version="1.1" id="Layer_3" xmlns="http://www.w3.org/2000/svg" xmlns:xlink="http://www.w3.org/1999/xlink" x="0px" y="0px"
	 viewBox="0 0 217.7 260.4" style="enable-background:new 0 0 217.7 260.4;" xml:space="preserve">
<style type="text/css">
	.st0{fill:#231F20;}
	.st1{fill:none;}
	.st2{fill:#FFFFFF;}
</style>
<g>
	<path class="st0" d="M22.6,98c-1.1-0.6-2.6-0.3-3.2,0.9l-0.9,1.5c-0.7,1.1-0.3,2.6,0.8,3.2c0,0,0,0,0,0l1,0.6
		c0.2-0.4,0.5-0.9,0.7-1.3l-1-0.5c-0.2-0.1-0.4-0.3-0.4-0.5c-0.1-0.2,0-0.5,0.1-0.7l0.9-1.5c0.2-0.3,0.4-0.4,0.8-0.4
		c0.2,0,0.3,0,0.4,0.1l1,0.5c0.3-0.4,0.5-0.9,0.8-1.3L22.6,98z M60.2,239.4l-0.5,0.9c-0.1,0.2-0.3,0.4-0.5,0.4
		c-0.2,0.1-0.5,0-0.7-0.1l-1.5-0.9c-0.2-0.1-0.3-0.3-0.4-0.5c-0.1-0.2,0-0.5,0.1-0.7l0.5-0.9c-0.4-0.2-0.9-0.5-1.3-0.8l-0.6,1
		c-0.6,1.1-0.3,2.6,0.9,3.2l1.5,0.9c1.1,0.7,2.6,0.3,3.2-0.9c0,0,0,0,0,0l0.6-1C61,239.9,60.6,239.7,60.2,239.4L60.2,239.4z
		 M22.8,203.3c-0.6-1-1.2-2-1.7-3c-0.2-0.4-0.5-0.9-0.7-1.3l-1,0.6c-1.1,0.6-1.5,2.1-0.9,3.2c0,0,0,0,0,0l0.9,1.5
		c0.6,1.1,2.1,1.6,3.2,0.9c0,0,0,0,0,0l1-0.6C23.3,204.2,23,203.7,22.8,203.3L22.8,203.3z M22.6,98c-1.1-0.6-2.6-0.3-3.2,0.9
		l-0.9,1.5c-0.7,1.1-0.3,2.6,0.8,3.2c0,0,0,0,0,0l1,0.6c0.2-0.4,0.5-0.9,0.7-1.3c0.6-1,1.1-2,1.7-3c0.3-0.4,0.5-0.9,0.8-1.3L22.6,98
		z M60.2,239.4c-1-0.5-2-1.1-3-1.7c-0.4-0.2-0.9-0.5-1.3-0.8l-0.6,1c-0.6,1.1-0.3,2.6,0.9,3.2l1.5,0.9c1.1,0.7,2.6,0.3,3.2-0.9
		c0,0,0,0,0,0l0.6-1C61,239.9,60.6,239.7,60.2,239.4L60.2,239.4z M22.8,203.3c-0.6-1-1.2-2-1.7-3c-0.2-0.4-0.5-0.9-0.7-1.3l-1,0.6
		c-1.1,0.6-1.5,2.1-0.9,3.2c0,0,0,0,0,0l0.9,1.5c0.6,1.1,2.1,1.6,3.2,0.9c0,0,0,0,0,0l1-0.6C23.3,204.2,23,203.7,22.8,203.3
		L22.8,203.3z M22.6,98c-1.1-0.6-2.6-0.3-3.2,0.9l-0.9,1.5c-0.7,1.1-0.3,2.6,0.8,3.2c0,0,0,0,0,0l1,0.6c0.2-0.4,0.5-0.9,0.7-1.3
		c0.6-1,1.1-2,1.7-3c0.3-0.4,0.5-0.9,0.8-1.3L22.6,98z M60.2,239.4c-1-0.5-2-1.1-3-1.7c-0.4-0.2-0.9-0.5-1.3-0.8l-0.6,1
		c-0.6,1.1-0.3,2.6,0.9,3.2l1.5,0.9c1.1,0.7,2.6,0.3,3.2-0.9c0,0,0,0,0,0l0.6-1C61,239.9,60.6,239.7,60.2,239.4L60.2,239.4z
		 M20.2,102.3l1,0.5c0.6-1,1.1-2,1.7-3l-1-0.5c-0.1-0.1-0.3-0.1-0.4-0.1c-0.3,0-0.6,0.2-0.8,0.4l-0.9,1.5c-0.1,0.2-0.1,0.4-0.1,0.7
		C19.8,102,19.9,102.2,20.2,102.3L20.2,102.3z M21.1,200.3c-0.2-0.4-0.5-0.9-0.7-1.3l-1,0.6c-1.1,0.6-1.5,2.1-0.9,3.2c0,0,0,0,0,0
		l0.9,1.5c0.7,1.1,2.1,1.5,3.2,0.9l1-0.6c-0.3-0.4-0.5-0.8-0.8-1.3C22.2,202.3,21.6,201.3,21.1,200.3L21.1,200.3z M204.4,99.4
		c-0.3-0.5-0.5-1-0.8-1.5c-9.7-17.1-23.9-31.3-41.1-41.1l0,0c-0.7-0.4-1.4-0.8-2.1-1.2c-10.1-5.4-20.9-9.2-32.2-11.3l-2.3-0.4l0,0
		h-0.2h-0.2l-0.8-0.1c-4.9-0.7-9.9-1.1-14.9-1.1H108c-5.3,0-10.7,0.5-15.9,1.3h-0.2c-12,1.9-23.7,5.8-34.4,11.6
		c-0.7,0.4-1.4,0.8-2.1,1.2l0,0c-1,0.6-2.1,1.2-3.1,1.8l-1.4,0.9c-14.6,9.3-26.8,21.9-35.6,36.8c-0.3,0.5-0.6,1.1-0.9,1.6
		C4.9,114.3,0,132.8,0,151.6c0,0.3,0,0.6,0,0.9l0,0c0.1,18.5,5,36.6,14.1,52.7c0.3,0.5,0.6,1.1,0.9,1.6
		c8.8,14.8,20.9,27.4,35.4,36.6c1,0.6,1.9,1.2,2.9,1.7c0.6,0.4,1.2,0.8,1.9,1.1c16.3,9.3,34.8,14.2,53.6,14.2h0.9
		c17.9-0.1,35.5-4.7,51.2-13.3l1.5-0.8c17.1-9.8,31.3-24,41.1-41.1c0.3-0.5,0.5-1,0.8-1.5c8.6-15.7,13.2-33.3,13.3-51.2l0,0
		c0-0.3,0-0.6,0-0.9C217.8,133.4,213.2,115.4,204.4,99.4z M198.1,197.6c-0.2,0.5-0.5,0.9-0.7,1.3s-0.5,0.9-0.7,1.3
		c-0.5,1-1.1,2-1.7,3c-0.3,0.4-0.5,0.9-0.8,1.3s-0.5,0.9-0.8,1.3c-7.8,12.1-18.1,22.4-30.2,30.3l-1.3,0.8l0,0
		c-0.4,0.3-0.8,0.5-1.3,0.8c-1,0.6-2,1.2-3,1.7c-0.4,0.3-0.9,0.5-1.3,0.7c-0.4,0.2-0.9,0.5-1.3,0.7c-12.8,6.7-26.9,10.4-41.3,11.1
		l-1.5,0.1h-1.5c-0.6,0-1.1,0-1.7,0s-1.1,0-1.7,0h-1.5l-1.5-0.1c-14.4-0.7-28.5-4.4-41.3-11.1c-0.4-0.2-0.9-0.5-1.3-0.7
		s-0.9-0.5-1.3-0.7c-1-0.5-2-1.1-3-1.7c-0.4-0.2-0.9-0.5-1.3-0.8l-1.3-0.8c-12.1-7.8-22.4-18.1-30.2-30.3c-0.3-0.4-0.5-0.9-0.8-1.3
		s-0.5-0.8-0.8-1.3c-0.6-1-1.2-2-1.7-3c-0.2-0.4-0.5-0.9-0.7-1.3c-0.2-0.4-0.5-0.9-0.7-1.3c-6.6-12.8-10.4-26.9-11-41.3l-0.1-1.5
		c0-0.5,0-1,0-1.5c0-0.6,0-1.1,0-1.7s0-1.2,0-1.8s0-1,0-1.5s0-1,0-1.5c0.7-14.4,4.5-28.5,11.1-41.3c0.2-0.4,0.5-0.9,0.7-1.3
		s0.5-0.9,0.7-1.3c0.6-1,1.1-2,1.7-3c0.3-0.4,0.5-0.9,0.8-1.3l0.8-1.3c7.8-12.1,18.1-22.4,30.2-30.2l1.3-0.8l1.3-0.8
		c1-0.6,2-1.2,3-1.7c0.4-0.2,0.9-0.5,1.3-0.7l1.3-0.7c12.8-6.6,26.9-10.4,41.3-11.1l1.5-0.1h1.5c0.6,0,1.1,0,1.7,0s1.1,0,1.7,0h1.5
		l1.5,0.1c14.4,0.7,28.5,4.4,41.3,11.1l1.3,0.7l1.3,0.7c1,0.6,2,1.1,3,1.7l1.3,0.8l1.3,0.8c12.1,7.8,22.4,18.1,30.2,30.2l0.8,1.3
		c0.3,0.4,0.5,0.9,0.8,1.3c0.6,1,1.2,2,1.7,3c0.3,0.4,0.5,0.9,0.7,1.3c0.2,0.4,0.5,0.9,0.7,1.3c6.6,12.8,10.4,26.9,11.1,41.3
		c0,0.5,0,1,0,1.5s0,1,0,1.5s0,1.2,0,1.8s0,1.1,0,1.7s0,1,0,1.5l-0.1,1.5C208.5,170.7,204.7,184.8,198.1,197.6L198.1,197.6z
		 M22.8,203.3c-0.6-1-1.2-2-1.7-3c-0.2-0.4-0.5-0.9-0.7-1.3l-1,0.6c-1.1,0.6-1.5,2.1-0.9,3.2c0,0,0,0,0,0l0.9,1.5
		c0.6,1.2,2.1,1.6,3.2,1c0,0,0,0,0.1,0l1-0.6C23.3,204.2,23,203.7,22.8,203.3z M21.8,99.3c-0.1-0.1-0.3-0.1-0.4-0.1
		c-0.3,0-0.6,0.2-0.8,0.4l-0.9,1.5c-0.1,0.2-0.1,0.4-0.1,0.7c0.1,0.2,0.2,0.4,0.4,0.5l1,0.5c0.6-1,1.1-2,1.7-3L21.8,99.3z
		 M60.1,239.4c-1-0.5-2-1.1-3-1.7c-0.4-0.2-0.9-0.5-1.3-0.8l-0.6,1c-0.6,1.1-0.3,2.6,0.9,3.2l1.5,0.9c1.1,0.7,2.6,0.3,3.2-0.9
		c0,0,0,0,0,0l0.6-1C61,239.9,60.6,239.7,60.1,239.4z M22.6,98c-1.1-0.6-2.6-0.3-3.2,0.9l-0.9,1.5c-0.7,1.1-0.3,2.6,0.8,3.2
		c0,0,0,0,0,0l1,0.6c0.2-0.4,0.5-0.9,0.7-1.3c0.6-1,1.1-2,1.7-3c0.3-0.4,0.5-0.9,0.8-1.3L22.6,98z M22.8,203.3c-0.6-1-1.2-2-1.7-3
		c-0.2-0.4-0.5-0.9-0.7-1.3l-1,0.6c-1.1,0.6-1.5,2.1-0.9,3.2c0,0,0,0,0,0l0.9,1.5c0.6,1.1,2.1,1.6,3.2,0.9c0,0,0,0,0,0l1-0.6
		C23.3,204.2,23,203.7,22.8,203.3L22.8,203.3z M60.2,239.4c-1-0.5-2-1.1-3-1.7c-0.4-0.2-0.9-0.5-1.3-0.8l-0.6,1
		c-0.6,1.1-0.3,2.6,0.9,3.2l1.5,0.9c1.1,0.7,2.6,0.3,3.2-0.9c0,0,0,0,0,0l0.6-1C61,239.9,60.6,239.7,60.2,239.4L60.2,239.4z
		 M22.8,203.3l-0.9,0.5c-0.4,0.2-0.9,0.1-1.2-0.3c0,0,0,0,0,0l-0.9-1.5c-0.2-0.4-0.1-0.9,0.3-1.2c0,0,0,0,0,0l0.9-0.5
		c-0.2-0.4-0.5-0.9-0.7-1.3l-1,0.6c-1.1,0.6-1.5,2.1-0.9,3.2c0,0,0,0,0,0l0.9,1.5c0.6,1.1,2.1,1.6,3.2,0.9c0,0,0,0,0,0l1-0.6
		C23.3,204.2,23,203.7,22.8,203.3L22.8,203.3z M22.6,98c-1.1-0.6-2.6-0.3-3.2,0.9l-0.9,1.5c-0.7,1.1-0.3,2.6,0.8,3.2c0,0,0,0,0,0
		l1,0.6c0.2-0.4,0.5-0.9,0.7-1.3c0.6-1,1.1-2,1.7-3c0.3-0.4,0.5-0.9,0.8-1.3L22.6,98z"/>
</g>
<g>
	<path class="st0" d="M8.4,153.3c0,0.5,0,1,0,1.5H7.3c-1.3,0-2.4-1.1-2.4-2.4v-1.7c0-1.3,1.1-2.4,2.4-2.4h1.1c0,0.5,0,1,0,1.5
		s0,1,0,1.5v0.3C8.4,152.2,8.4,152.7,8.4,153.3z"/>
</g>
<g>
	<path class="st0" d="M35.2,150.7v1.7c0,1.3-1.1,2.4-2.4,2.4H18.5c0-0.5,0-1,0-1.5s0-1.1,0-1.7v-0.3c0-0.5,0-1,0-1.5s0-1,0-1.5h14.4
		C34.2,148.4,35.2,149.4,35.2,150.7z"/>
</g>
<g>
	<path class="st0" d="M32.9,146.9H18.6c0,0.5,0,1-0.1,1.5c0,0.5,0,1,0,1.5h14.4c0.5,0,0.9,0.4,0.9,0.9v1.7c0,0.5-0.4,0.9-0.9,0.9
		H18.4c0,0.5,0,1,0,1.5s0,1,0.1,1.5h14.3c2.1,0,3.9-1.7,3.9-3.9v-1.8C36.7,148.6,35,146.9,32.9,146.9z M8.4,153.3H7.4
		c-0.5,0-0.9-0.4-0.9-0.9v-1.7c0-0.5,0.4-0.9,0.9-0.9h1.1c0-0.5,0-1,0-1.5s0-1,0-1.5H7.3c-2.1,0-3.9,1.7-3.9,3.9v1.7
		c0,2.1,1.7,3.9,3.9,3.9h1.3l-0.1-1.5C8.5,154.3,8.4,153.8,8.4,153.3z"/>
</g>
<g>
	<path class="st0" d="M23.6,204.6l-1,0.6c-1.1,0.6-2.6,0.3-3.2-0.9l-0.9-1.5c-0.7-1.1-0.3-2.6,0.8-3.2c0,0,0,0,0,0l1-0.6
		c0.2,0.4,0.5,0.9,0.7,1.3c0.5,1,1.1,2,1.7,3C23,203.7,23.3,204.2,23.6,204.6z"/>
</g>
<g>
	<path class="st0" d="M44.7,192.4l-12.2,7l-0.3,0.1c-0.3-0.4-0.5-0.8-0.8-1.3c-0.6-1-1.2-2-1.7-3c-0.2-0.4-0.5-0.9-0.7-1.3l0.2-0.1
		l12.2-7.1c1.1-0.7,2.6-0.3,3.2,0.9c0,0,0,0,0,0l0.9,1.5C46.2,190.2,45.8,191.7,44.7,192.4C44.7,192.4,44.7,192.4,44.7,192.4z"/>
</g>
<g>
	<path class="st0" d="M23.6,204.6c-0.3-0.4-0.5-0.8-0.8-1.3l-0.9,0.5c-0.4,0.2-0.9,0.1-1.2-0.3c0,0,0,0,0,0l-0.9-1.5
		c-0.2-0.4-0.1-0.9,0.3-1.2c0,0,0,0,0,0l0.9-0.5c-0.2-0.4-0.5-0.9-0.7-1.3c-0.2-0.4-0.5-0.9-0.7-1.3l-1,0.6
		c-1.9,1.1-2.5,3.4-1.4,5.3c0,0,0,0,0,0l0.9,1.5c0,0.1,0.1,0.2,0.1,0.2l0.1,0.2c0.7,0.9,1.9,1.5,3.1,1.5c0.7,0,1.3-0.2,1.9-0.5
		l1-0.6C24.1,205.4,23.8,205,23.6,204.6z M47.4,190c0-0.6-0.2-1.1-0.5-1.6l-0.9-1.5c-1.1-1.8-3.4-2.5-5.3-1.4c0,0,0,0,0,0l-12.2,7
		l-0.2,0.1c0.2,0.5,0.5,0.9,0.7,1.3s0.5,0.9,0.7,1.3l0.2-0.1l12.2-7.1c0.1-0.1,0.3-0.1,0.4-0.1c0.3,0,0.6,0.2,0.8,0.4l0.9,1.5
		c0.2,0.4,0.1,0.9-0.3,1.2l-12.3,7.1l-0.2,0.1c0.2,0.4,0.5,0.9,0.8,1.3s0.5,0.9,0.8,1.3l12.4-7.1c0.9-0.5,1.5-1.4,1.8-2.4
		C47.3,190.9,47.4,190.5,47.4,190L47.4,190z"/>
</g>
<g>
	<path class="st0" d="M61.5,240.2l-0.6,1c-0.7,1.1-2.1,1.5-3.2,0.9c0,0,0,0,0,0l-1.5-0.9c-1.1-0.7-1.5-2.1-0.9-3.2l0.6-1
		c0.4,0.3,0.9,0.5,1.3,0.8c1,0.6,2,1.2,3,1.7C60.6,239.7,61,239.9,61.5,240.2z"/>
</g>
<g>
	<path class="st0" d="M73.7,219l-6.9,12l-0.2,0.4l-1.3-0.7c-1-0.5-2-1.1-3-1.7l-1.3-0.8l0.2-0.4l6.9-12c0.6-1.1,2.1-1.5,3.2-0.9
		c0,0,0,0,0,0l1.5,0.9C73.9,216.4,74.3,217.8,73.7,219C73.7,219,73.7,219,73.7,219z"/>
</g>
<g>
	<path class="st0" d="M75.5,217.5c-0.1-1.3-0.8-2.4-1.9-3.1l-1.5-0.9c-1.8-1.1-4.2-0.4-5.3,1.4c0,0,0,0,0,0l-6.9,12l-0.2,0.4
		c0.4,0.3,0.8,0.5,1.3,0.8l1.3,0.8l0.2-0.4l7-12.1c0.2-0.4,0.8-0.6,1.2-0.3c0,0,0,0,0,0l1.5,0.9c0.4,0.2,0.6,0.8,0.3,1.2
		c0,0,0,0,0,0l-7,12.1l-0.2,0.4l1.3,0.7c0.4,0.2,0.9,0.5,1.3,0.7l7.2-12.4C75.3,219.1,75.5,218.3,75.5,217.5z M61.5,240.1
		c-0.4-0.2-0.9-0.5-1.3-0.7l-0.5,0.9c-0.1,0.2-0.3,0.4-0.5,0.4c-0.2,0.1-0.5,0-0.7-0.1l-1.5-0.9c-0.2-0.1-0.3-0.3-0.4-0.5
		c-0.1-0.2,0-0.5,0.1-0.7l0.5-0.9c-0.4-0.2-0.9-0.5-1.3-0.8l-1.3-0.8l-0.6,1c-0.5,0.9-0.6,1.9-0.4,2.9c0.1,0.3,0.2,0.6,0.4,0.9
		l0.2,0.3c0.3,0.4,0.6,0.7,0.9,0.9c0.1,0.1,0.2,0.1,0.3,0.2l1.5,0.9c0.9,0.5,1.9,0.7,2.9,0.4c1-0.3,1.8-0.9,2.4-1.8l0.6-1
		C62.4,240.6,61.9,240.4,61.5,240.1L61.5,240.1z"/>
</g>
<g>
	<path class="st0" d="M112.1,227.6V242h-1.5h-1.7h-1.7h-1.5v-14.4c0-1.3,1.1-2.4,2.4-2.4h1.7C111,225.2,112.1,226.3,112.1,227.6
		C112.1,227.6,112.1,227.6,112.1,227.6z"/>
</g>
<g>
	<path class="st0" d="M112.1,252v1.1c0,1.3-1.1,2.4-2.4,2.4H108c-1.3,0-2.4-1.1-2.4-2.4V252h1.5c0.6,0,1.1,0,1.7,0s1.1,0,1.7,0
		H112.1z"/>
</g>
<g>
	<path class="st0" d="M112.1,252h-1.5v1.1c0,0.5-0.4,0.9-0.9,0.9H108c-0.5,0-0.9-0.4-0.9-0.9V252h-1.5l-1.5-0.1v1.1
		c0,2.1,1.7,3.9,3.9,3.9h1.7c2.1,0,3.9-1.7,3.9-3.9v-1.1L112.1,252z M109.7,223.7H108c-2.1,0-3.9,1.7-3.9,3.9v14.3l1.5,0.1h1.5
		v-14.4c0-0.5,0.4-0.9,0.9-0.9h1.7c0.5,0,0.9,0.4,0.9,0.9V242h1.5l1.5-0.1v-14.5C113.5,225.4,111.8,223.7,109.7,223.7z"/>
</g>
<g>
	<path class="st0" d="M156.8,228.2c-0.4,0.3-0.8,0.5-1.3,0.8c-1,0.6-2,1.2-3,1.7c-0.4,0.3-0.9,0.5-1.3,0.7L151,231l-6.9-12
		c-0.7-1.1-0.3-2.6,0.9-3.2c0,0,0,0,0,0l1.5-0.9c1.1-0.7,2.6-0.3,3.2,0.8c0,0,0,0,0,0l7,12L156.8,228.2z"/>
</g>
<g>
	<path class="st0" d="M161.5,241.1l-1.5,0.9c-1.1,0.7-2.6,0.3-3.2-0.9c0,0,0,0,0,0l-0.6-1c0.4-0.2,0.9-0.5,1.3-0.7
		c1-0.5,2-1.1,3-1.7c0.4-0.2,0.9-0.5,1.3-0.8l0,0l0.6,1C163.1,239,162.7,240.4,161.5,241.1C161.5,241.1,161.5,241.1,161.5,241.1z"/>
</g>
<g>
	<path class="st0" d="M163.7,237.2l-0.6-1l-1.3,0.8l0,0c-0.4,0.3-0.8,0.5-1.3,0.8l0.5,0.9c0.1,0.2,0.2,0.4,0.1,0.7
		c-0.1,0.2-0.2,0.4-0.4,0.5l-1.5,0.9c-0.2,0.1-0.4,0.2-0.7,0.1c-0.2-0.1-0.4-0.2-0.5-0.4l-0.5-0.9c-0.4,0.3-0.9,0.5-1.3,0.7
		c-0.4,0.2-0.9,0.5-1.3,0.7l0.6,1c0.7,1.2,2,1.9,3.4,1.9c0.7,0,1.3-0.2,1.9-0.5l1.5-0.9C164.1,241.4,164.8,239,163.7,237.2
		C163.7,237.2,163.7,237.2,163.7,237.2z M157.9,227.1l-6.9-12c-1.1-1.8-3.4-2.5-5.3-1.4l-1.5,0.9c-0.9,0.5-1.5,1.4-1.8,2.4
		c-0.1,0.2-0.1,0.5-0.1,0.7c-0.1,0.8,0.1,1.5,0.5,2.2l7.2,12.4c0.5-0.2,0.9-0.5,1.3-0.7s0.9-0.5,1.3-0.7l-0.2-0.4l-7-12.1
		c-0.1-0.2-0.2-0.4-0.1-0.7c0.1-0.2,0.2-0.4,0.4-0.5l1.5-0.9c0.1-0.1,0.3-0.1,0.4-0.1c0.3,0,0.6,0.2,0.8,0.4l7,12.1l0.2,0.4
		c0.4-0.2,0.9-0.5,1.3-0.8s0.9-0.5,1.3-0.8L157.9,227.1z"/>
</g>
<g>
	<path class="st0" d="M188.7,194c-0.2,0.4-0.5,0.9-0.7,1.3c-0.5,1-1.1,2-1.7,3c-0.2,0.4-0.5,0.9-0.8,1.3l-0.3-0.1l-12.2-7
		c-1.1-0.6-1.5-2.1-0.9-3.2c0,0,0,0,0,0l0.9-1.5c0.6-1.1,2.1-1.5,3.2-0.9c0,0,0,0,0,0l12.2,7.1L188.7,194z"/>
</g>
<g>
	<path class="st0" d="M199.2,202.8l-0.9,1.5c-0.7,1.1-2.1,1.5-3.2,0.9l-1-0.6c0.3-0.4,0.5-0.8,0.8-1.3c0.6-1,1.2-2,1.7-3
		c0.3-0.4,0.5-0.9,0.7-1.3l1,0.6C199.5,200.2,199.9,201.6,199.2,202.8z"/>
</g>
<g>
	<path class="st0" d="M189.2,192.5l-12.2-7c-1.8-1.1-4.2-0.4-5.3,1.4c0,0,0,0,0,0l-0.9,1.5c-0.3,0.5-0.5,1.1-0.5,1.6
		c0,0.4,0,0.9,0.1,1.3c0.3,1,0.9,1.8,1.8,2.4l12.4,7.1c0.3-0.4,0.5-0.8,0.8-1.3s0.5-0.9,0.8-1.3l-0.2-0.1l-12.2-7
		c-0.2-0.1-0.4-0.3-0.4-0.5c-0.1-0.2,0-0.5,0.1-0.7l0.9-1.5c0.2-0.3,0.4-0.4,0.8-0.4c0.2,0,0.3,0,0.4,0.1l12.2,7l0.2,0.1
		c0.3-0.4,0.5-0.9,0.7-1.3c0.2-0.4,0.5-0.9,0.7-1.3L189.2,192.5z M199.1,198.2l-1-0.6c-0.2,0.5-0.5,0.9-0.7,1.3s-0.5,0.9-0.7,1.3
		l1,0.5c0.4,0.2,0.6,0.8,0.3,1.2l-0.9,1.5c-0.1,0.2-0.3,0.3-0.5,0.4c-0.2,0.1-0.5,0-0.7-0.1l-0.9-0.5c-0.3,0.4-0.5,0.9-0.8,1.3
		s-0.5,0.9-0.8,1.3l1,0.6c0.6,0.3,1.3,0.5,1.9,0.5c0.3,0,0.7,0,1-0.1c1-0.3,1.8-0.9,2.4-1.8l0.9-1.5
		C201.6,201.7,201,199.3,199.1,198.2z"/>
</g>
<g>
	<path class="st0" d="M199.3,151.3v0.3c0,0.6,0,1.1,0,1.7s0,1,0,1.5h-14.4c-1.3,0-2.4-1.1-2.4-2.4v-1.7c0-1.3,1.1-2.4,2.4-2.4h14.4
		c0,0.5,0,0.9,0,1.4v0.1C199.3,150.3,199.3,150.8,199.3,151.3z"/>
</g>
<g>
	<path class="st0" d="M212.7,150.7v1.7c0,1.3-1.1,2.4-2.4,2.4h-1.1c0-0.5,0-1,0-1.5c0-0.6,0-1.1,0-1.7v-0.3c0-0.5,0-1,0-1.5v-0.2
		c0-0.4,0-0.9,0-1.3h1.1C211.7,148.4,212.7,149.4,212.7,150.7z"/>
</g>
<g>
	<path class="st0" d="M184.9,149.9h14.4v-0.1c0-0.5,0-0.9,0-1.4s0-1-0.1-1.5h-14.3c-2.1,0-3.9,1.7-3.9,3.9v1.7
		c0,2.1,1.7,3.9,3.9,3.9h14.3c0-0.5,0-1,0.1-1.5s0-1,0-1.5h-14.4c-0.5,0-0.9-0.4-0.9-0.9v-1.7C184,150.2,184.4,149.9,184.9,149.9z
		 M210.4,146.9h-1.2c0,0.5,0,1,0,1.5s0,0.9,0,1.3v0.2h1.1c0.5,0,0.9,0.4,0.9,0.9v1.7c0,0.5-0.4,0.9-0.9,0.9h-1.1c0,0.5,0,1,0,1.5
		l-0.1,1.5h1.2c2.1,0,3.9-1.7,3.9-3.9v-1.7C214.2,148.6,212.5,146.9,210.4,146.9z"/>
</g>
<g>
	<path class="st0" d="M188.7,109.2l-12.4,7.2c-1.1,0.7-2.6,0.3-3.2-0.9c0,0,0,0,0,0l-0.9-1.5c-0.7-1.1-0.3-2.6,0.8-3.2c0,0,0,0,0,0
		l12.4-7.2c0.3,0.4,0.5,0.8,0.8,1.3c0.6,1,1.2,2,1.7,3C188.3,108.3,188.5,108.7,188.7,109.2z"/>
</g>
<g>
	<path class="st0" d="M198.4,103.6l-0.8,0.4l-0.2,0.1c-0.2-0.4-0.5-0.9-0.7-1.3c-0.6-1-1.1-2-1.7-3c-0.2-0.4-0.5-0.9-0.8-1.3
		l0.3-0.1l0.7-0.4c1.1-0.6,2.6-0.3,3.2,0.9l0.9,1.5C199.9,101.5,199.5,103,198.4,103.6C198.4,103.6,198.4,103.6,198.4,103.6z"/>
</g>
<g>
	<path class="st0" d="M189.2,110.1c-0.1-0.3-0.3-0.6-0.5-0.9s-0.5-0.9-0.7-1.3l-12.5,7.2c-0.2,0.1-0.4,0.2-0.7,0.1
		c-0.2-0.1-0.4-0.2-0.5-0.4l-0.9-1.5c-0.1-0.2-0.2-0.4-0.1-0.7c0.1-0.2,0.2-0.4,0.4-0.5l12.5-7.2c-0.3-0.4-0.5-0.9-0.8-1.3
		s-0.5-0.9-0.8-1.3l-12.4,7.1c-0.9,0.5-1.5,1.4-1.8,2.4c-0.1,0.2-0.1,0.5-0.1,0.7c-0.1,0.8,0.1,1.5,0.5,2.2l0.9,1.5
		c0.7,1.2,2,1.9,3.4,1.9c0.7,0,1.3-0.2,1.9-0.5l12.4-7.1C189.4,110.4,189.3,110.2,189.2,110.1z M200.5,99.6l-0.9-1.5
		c-0.5-0.9-1.4-1.5-2.4-1.8c-1-0.3-2-0.1-2.9,0.4l-0.8,0.4l-0.2,0.1l0.8,1.3c0.3,0.4,0.5,0.9,0.8,1.3l0.2-0.1l0.7-0.4
		c0.1-0.1,0.3-0.1,0.4-0.1c0.3,0,0.6,0.2,0.8,0.4l0.9,1.5c0.1,0.2,0.1,0.4,0.1,0.7c-0.1,0.2-0.2,0.4-0.4,0.5l-0.7,0.4l0,0l-0.2,0.1
		c0.3,0.4,0.5,0.9,0.7,1.3c0.2,0.4,0.5,0.9,0.7,1.3l0.2-0.1l0.8-0.5c0.9-0.5,1.5-1.4,1.8-2.4C201.2,101.6,201,100.5,200.5,99.6z"/>
</g>
<g>
	<path class="st0" d="M156.8,75l-7.2,12.4c-0.7,1.1-2.1,1.5-3.2,0.9c0,0,0,0,0,0l-1.5-0.9c-1.1-0.6-1.5-2.1-0.9-3.2c0,0,0,0,0,0
		l7.2-12.4c0.4,0.2,0.9,0.5,1.3,0.7c1,0.6,2,1.1,3,1.7L156.8,75z"/>
</g>
<g>
	<path class="st0" d="M162.4,65.3l-0.3,0.6l-0.2,0.4l-1.3-0.8c-1-0.6-2-1.2-3-1.7l-1.3-0.7l0.2-0.4l0.3-0.6c0.6-1.1,2.1-1.5,3.2-0.9
		c0,0,0,0,0,0l1.5,0.9C162.7,62.7,163.1,64.2,162.4,65.3C162.4,65.3,162.4,65.3,162.4,65.3z"/>
</g>
<g>
	<path class="st0" d="M157.9,75.6c-0.3-0.2-0.7-0.5-1-0.7l-1.3-0.8l-7.2,12.5c-0.2,0.4-0.8,0.6-1.2,0.3l-1.5-0.9
		c-0.4-0.2-0.6-0.8-0.3-1.2c0,0,0,0,0,0l7.2-12.5c-0.4-0.2-0.9-0.5-1.3-0.7s-0.9-0.5-1.3-0.7l-7.1,12.4c-0.3,0.5-0.5,1.1-0.5,1.6
		c-0.1,1.5,0.6,2.9,1.9,3.6l1.5,0.9c1.8,1.1,4.2,0.4,5.3-1.4c0,0,0,0,0,0l7.1-12.4L157.9,75.6z M162.3,60.8l-1.5-0.9
		c-1.9-1.1-4.2-0.4-5.3,1.4c0,0,0,0,0,0l-0.3,0.6l-0.2,0.4l1.3,0.7l1.3,0.7l0.2-0.4l0.3-0.5c0.2-0.3,0.4-0.4,0.8-0.4
		c0.2,0,0.3,0,0.4,0.1l1.5,0.9c0.4,0.2,0.6,0.8,0.3,1.2c0,0,0,0,0,0l-0.3,0.6l-0.2,0.4l1.3,0.8l1.3,0.8l0.2-0.4l0.4-0.6
		C164.8,64.2,164.1,61.8,162.3,60.8L162.3,60.8z"/>
</g>
<g>
	<path class="st0" d="M112.1,50.1v1.1h-1.5c-0.6,0-1.1,0-1.7,0s-1.1,0-1.7,0h-1.5v-1.1c0-1.3,1.1-2.4,2.4-2.4h1.7
		C111,47.7,112.1,48.8,112.1,50.1L112.1,50.1z"/>
</g>
<g>
	<path class="st0" d="M112.1,61.2v14.4c0,1.3-1.1,2.4-2.4,2.4H108c-1.3,0-2.4-1.1-2.4-2.4V61.2h1.5h1.7h1.7H112.1z"/>
</g>
<g>
	<path class="st0" d="M109.7,46.2H108c-2.1,0-3.9,1.7-3.9,3.9v1.2l1.5-0.1h1.5v-1.1c0-0.5,0.4-0.9,0.9-0.9h1.7
		c0.5,0,0.9,0.4,0.9,0.9v1h1.5l1.5,0.1V50C113.6,47.9,111.8,46.2,109.7,46.2z M112.1,61.2h-1.5v14.4c0,0.5-0.4,0.9-0.9,0.9H108
		c-0.5,0-0.9-0.4-0.9-0.9V61.2h-1.5c-0.5,0-1,0-1.5,0.1v14.3c0,2.1,1.7,3.9,3.9,3.9h1.7c2.1,0,3.9-1.7,3.9-3.9V61.3
		C113.1,61.3,112.6,61.2,112.1,61.2z"/>
</g>
<g>
	<path class="st0" d="M61.5,63.1c-0.4,0.2-0.9,0.5-1.3,0.7c-1,0.6-2,1.1-3,1.7l-1.3,0.8l-0.2-0.4l-0.3-0.6c-0.6-1.1-0.3-2.6,0.9-3.2
		l1.5-0.9c1.1-0.7,2.6-0.3,3.2,0.8c0,0,0,0,0,0l0.3,0.6L61.5,63.1z"/>
</g>
<g>
	<path class="st0" d="M72.8,87.4l-1.5,0.9c-1.1,0.7-2.6,0.3-3.2-0.9c0,0,0,0,0,0L60.9,75c0.4-0.3,0.8-0.5,1.3-0.8c1-0.6,2-1.2,3-1.7
		l1.3-0.7l7.2,12.4C74.3,85.3,73.9,86.7,72.8,87.4C72.8,87.4,72.8,87.4,72.8,87.4z"/>
</g>
<g>
	<path class="st0" d="M62.6,61.9l-0.3-0.6c-1.1-1.9-3.4-2.5-5.3-1.4c0,0,0,0,0,0l-1.5,0.9c-0.9,0.5-1.5,1.4-1.8,2.4
		c-0.3,1-0.1,2,0.4,2.9l0.4,0.6l0.2,0.4l1.3-0.8l1.3-0.8L57,65.1l-0.3-0.6c-0.1-0.2-0.1-0.4-0.1-0.7c0.1-0.2,0.2-0.4,0.4-0.5
		l1.5-0.9c0.1-0.1,0.3-0.1,0.4-0.1c0.3,0,0.6,0.2,0.8,0.4l0.3,0.5l0.2,0.4c0.4-0.2,0.9-0.5,1.3-0.7l1.3-0.7L62.6,61.9z M75.5,85.1
		c0-0.6-0.2-1.1-0.5-1.6L67.9,71l-1.3,0.7l-1.3,0.7l7.2,12.5c0.2,0.4,0.1,0.9-0.3,1.2c0,0,0,0,0,0L70.6,87c-0.4,0.2-0.9,0.1-1.2-0.3
		l-7.2-12.5c-0.4,0.3-0.9,0.5-1.3,0.8s-0.7,0.4-1,0.6l-0.2,0.2l7.1,12.4c0.7,1.2,2,1.9,3.4,1.9c0.7,0,1.3-0.2,1.9-0.5l1.5-0.9
		C74.8,88,75.6,86.5,75.5,85.1L75.5,85.1z"/>
</g>
<g>
	<path class="st0" d="M23.6,98.6c-0.3,0.4-0.5,0.8-0.8,1.3c-0.6,1-1.2,2-1.7,3c-0.2,0.4-0.5,0.9-0.7,1.3l-0.2-0.1l-0.8-0.4
		c-1.1-0.6-1.5-2.1-0.9-3.2c0,0,0,0,0,0l0.9-1.5c0.7-1.1,2.1-1.5,3.2-0.9l0.7,0.4L23.6,98.6z"/>
</g>
<g>
	<path class="st0" d="M45.5,114l-0.9,1.5c-0.7,1.1-2.1,1.5-3.2,0.9c0,0,0,0,0,0L29,109.2c0.2-0.4,0.5-0.9,0.7-1.3c0.6-1,1.1-2,1.7-3
		c0.3-0.4,0.5-0.9,0.8-1.3l12.4,7.2C45.8,111.4,46.2,112.8,45.5,114C45.6,114,45.5,114,45.5,114z"/>
</g>
<g>
	<path class="st0" d="M47.3,112.6c-0.1-1.3-0.8-2.4-1.9-3.1L33,102.4c-0.3,0.4-0.5,0.8-0.8,1.3s-0.5,0.8-0.8,1.3l12.5,7.2
		c0.4,0.2,0.6,0.8,0.3,1.2l-0.9,1.5c-0.2,0.4-0.8,0.6-1.2,0.3c0,0,0,0,0,0l-12.5-7.2c-0.2,0.4-0.5,0.9-0.7,1.3s-0.3,0.6-0.5,0.9
		c-0.1,0.1-0.1,0.3-0.2,0.4l12.4,7.1c1.8,1.1,4.2,0.4,5.3-1.4c0,0,0,0,0,0l0.9-1.5C47.2,114.1,47.4,113.3,47.3,112.6z M24.1,97.2
		l-0.8-0.5c-1.7-1-3.8-0.5-5,1l-0.1,0.2c-0.1,0.1-0.1,0.1-0.1,0.2l-0.9,1.5c-1.1,1.8-0.4,4.2,1.4,5.3c0,0,0,0,0,0l0.8,0.5l0.2,0.1
		c0.2-0.4,0.5-0.9,0.7-1.3s0.5-0.9,0.7-1.3l-0.2-0.1l-0.7-0.4c-0.2-0.1-0.4-0.3-0.4-0.5c-0.1-0.2,0-0.5,0.1-0.7l0.9-1.5
		c0.2-0.3,0.4-0.4,0.8-0.4c0.2,0,0.3,0,0.4,0.1l0.7,0.4l0,0l0.2,0.1c0.3-0.4,0.5-0.9,0.8-1.3l0.8-1.3L24.1,97.2z"/>
</g>
<g>
	<path class="st1" d="M159.1,158.6c-0.1-3.2-1.2-6.3-3.1-8.9c-1.2-1.6-2.5-3.1-4.1-4.4c-1.4-1.2-2.8-2.2-4.4-3.1
		c-0.8-0.5-1.5-0.9-2.3-1.3c-1.9-1-3.8-1.8-5.8-2.6c-1.8-0.7-3.6-1.3-5.6-1.8c-4.3-1.2-8.7-2-13.2-2.4c0,0.3-0.1,0.6-0.1,0.9l-1,4
		l0.5,0.1c1.7,0.2,3.4,0.4,5,0.7l0.9,0.2l1.5,0.3l0.3,0l1.4,0.3l1.6,0.4l0,0h0.2c0.4,0.1,0.7,0.2,1.1,0.3l0.2,0l1,0.3h0.1l0.3,0.1
		h0.1c0.4,0.1,0.9,0.2,1.3,0.4l0.5,0.1l0.3,0.1l1.2,0.4c0.6,0.2,1.3,0.5,1.9,0.7l0.6,0.2c0.6,0.2,1.2,0.5,1.8,0.8s1.3,0.6,1.9,0.9
		c0.4,0.2,0.7,0.4,1,0.6l0.3,0.2c0.6,0.3,1.1,0.7,1.6,1c0.5,0.3,1,0.7,1.5,1.1l0.5,0.4c0.2,0.1,0.3,0.2,0.5,0.4s0.5,0.4,0.7,0.6
		c0.1,0.1,0.1,0.1,0.2,0.2c0.2,0.2,0.5,0.4,0.7,0.6s0.4,0.4,0.5,0.6l0.1,0.1c0.2,0.2,0.4,0.4,0.6,0.6l0.2,0.2
		c0.2,0.2,0.3,0.4,0.5,0.6c0.2,0.3,0,0,0,0l0.4,0.6l0.2,0.3l0,0c0.2,0.3,0.4,0.6,0.5,0.9c0.1,0.2,0.2,0.5,0.3,0.7s0.2,0.5,0.3,0.7
		s0.1,0.3,0.1,0.4c0.1,0.3,0.2,0.7,0.2,1c0,0.1,0,0.2,0.1,0.4v0.2c0,0.2,0.1,0.5,0.1,0.8s0,0.4,0,0.6s0,0.5,0,0.7
		c0,0.4-0.1,0.7-0.1,1.1c0,0,0,0.1,0,0.1c0,0.1,0,0.2-0.1,0.3c-0.1,0.3-0.2,0.6-0.3,1c-0.3,0.8-0.6,1.6-1.1,2.3
		c-0.1,0.1-0.1,0.2-0.2,0.3c-0.1,0.1-0.1,0.2-0.2,0.3l0,0c-0.3,0.4-0.6,0.8-0.9,1.2c-0.1,0.1-0.1,0.2-0.2,0.2s-0.3,0.3-0.4,0.5
		c-0.3,0.3-0.6,0.6-0.9,0.9l-0.5,0.4l-0.5,0.4l-0.5,0.4c-0.2,0.1-0.4,0.3-0.5,0.4c-0.9,0.7-1.9,1.4-2.9,1.9l0,0
		c-0.2,0.1-0.5,0.3-0.8,0.4l0,0l-0.8,0.4l-0.8,0.4c-0.3,0.1-0.6,0.3-0.9,0.4c-0.6,0.3-1.1,0.5-1.8,0.8l-0.9,0.4
		c-0.6,0.2-1.3,0.5-1.9,0.7c-0.3,0.1-0.6,0.2-1,0.3l-0.2,0.1l-1,0.3l-0.8,0.2l-1,0.3l-0.6,0.2l-1.4,0.4l-0.2,0.1l-1.1,0.3
		c-0.7,0.2-1.4,0.3-2.1,0.5l-0.9,0.2c-0.5,0.1-1,0.2-1.5,0.3c-0.7,0.1-1.4,0.2-2,0.3s-1.3,0.2-1.9,0.2l-0.9,0.1
		c-0.8,0.1-1.6,0.2-2.5,0.2l-1,0.1h-0.5c-0.6,0-1.2,0.1-1.8,0.1s-0.9,0-1.4,0s-0.9,0-1.4,0s-1.1,0-1.7,0c-24.3,0-44-9.1-44-20.4
		c0-0.2,0-0.4,0-0.6v-0.4c0-0.2,0-0.4,0.1-0.6l0.1-0.3c0-0.1,0-0.2,0.1-0.3c0-0.2,0.1-0.3,0.1-0.5c0-0.1,0-0.2,0.1-0.3
		c0-0.1,0.1-0.2,0.1-0.4c0-0.1,0.1-0.2,0.1-0.3c0-0.1,0.1-0.3,0.1-0.4c0.1-0.2,0.2-0.5,0.3-0.7c0.2-0.3,0.3-0.6,0.5-0.9
		c0.2-0.3,0.4-0.6,0.6-0.9c0.1-0.2,0.1-0.2,0,0c0.2-0.3,0.4-0.5,0.6-0.8s0.2-0.3,0.4-0.4l0.3-0.3l0.1-0.1l0.4-0.4
		c0.2-0.2,0.5-0.4,0.7-0.6c0.1-0.1,0.1-0.1,0.2-0.2c0.2-0.2,0.5-0.4,0.7-0.6l0.5-0.4l1-0.7l0.5-0.4l0.5-0.4c0.5-0.3,1.1-0.7,1.6-1
		l0.3-0.2c0.3-0.2,0.7-0.4,1-0.6c1.2-0.6,2.4-1.2,3.7-1.7l0.6-0.2c1.2-0.5,2.5-0.9,3.8-1.3c0.4-0.1,0.9-0.3,1.3-0.4h0.1l0.3-0.1h0.1
		l1-0.3l0.2,0c0.4-0.1,0.7-0.2,1.1-0.3h0.2l1.6-0.4l1.4-0.3l0.3,0l1.5-0.3l0.9-0.2c1.6-0.3,3.3-0.5,5-0.7l0.5-0.1l-1-4
		c-0.1-0.3-0.1-0.6-0.1-0.9c-22.7,2.4-38.2,12.1-38.5,24.5c0,0.1,0,0.2,0,0.4c0,14.5,21.1,25.4,49,25.4s49-10.9,49-25.4
		C159.1,158.8,159.1,158.7,159.1,158.6z"/>
</g>
<g>
	<path class="st0" d="M93.4,26.5v10.6c0,1.3-1.1,2.4-2.4,2.4h-1.7c-1.3,0-2.4-1.1-2.4-2.4V26.5c0-1.3,1.1-2.4,2.4-2.4h1.7
		C92.4,24.2,93.4,25.2,93.4,26.5z"/>
	<path class="st0" d="M91,41h-1.7c-2.1,0-3.9-1.7-3.9-3.9V26.5c0-2.1,1.7-3.9,3.9-3.9H91c2.1,0,3.9,1.7,3.9,3.9v10.6
		C94.9,39.3,93.2,41,91,41z M89.3,25.7c-0.5,0-0.9,0.4-0.9,0.9v10.6c0,0.5,0.4,0.9,0.9,0.9H91c0.5,0,0.9-0.4,0.9-0.9V26.5
		c0-0.5-0.4-0.9-0.9-0.9H89.3z"/>
</g>
<g>
	<path class="st0" d="M130.8,26.5v10.6c0,1.3-1.1,2.4-2.4,2.4h-1.7c-1.3,0-2.4-1.1-2.4-2.4V26.5c0-1.3,1.1-2.4,2.4-2.4h1.7
		C129.7,24.2,130.8,25.2,130.8,26.5z"/>
	<path class="st0" d="M128.4,41h-1.7c-2.1,0-3.9-1.7-3.9-3.9V26.5c0-2.1,1.7-3.9,3.9-3.9h1.7c2.1,0,3.9,1.7,3.9,3.9v10.6
		C132.2,39.3,130.5,41,128.4,41z M126.7,25.7c-0.5,0-0.9,0.4-0.9,0.9v10.6c0,0.5,0.4,0.9,0.9,0.9h1.7c0.5,0,0.9-0.4,0.9-0.9V26.5
		c0-0.5-0.4-0.9-0.9-0.9H126.7z"/>
</g>
<g>
	<path class="st0" d="M142.5,25H75.2c-1.3,0-2.4-1.1-2.4-2.4v-1.7c0-1.3,1.1-2.4,2.4-2.4h67.2c1.3,0,2.4,1.1,2.4,2.4v1.7
		C144.8,23.9,143.8,25,142.5,25z"/>
	<path class="st0" d="M142.5,26.5H75.2c-2.1,0-3.9-1.7-3.9-3.9v-1.7c0-2.1,1.7-3.9,3.9-3.9h67.2c2.1,0,3.9,1.7,3.9,3.9v1.7
		C146.3,24.8,144.6,26.5,142.5,26.5z M75.2,20.1c-0.5,0-0.9,0.4-0.9,0.9v1.7c0,0.5,0.4,0.9,0.9,0.9h67.2c0.5,0,0.9-0.4,0.9-0.9v-1.7
		c0-0.5-0.4-0.9-0.9-0.9H75.2z"/>
</g>
<g>
	<path class="st0" d="M79.3,7.1v12.3c0,1.3-1.1,2.4-2.4,2.4h-1.7c-1.3,0-2.4-1.1-2.4-2.4V7.1c0-1.3,1.1-2.4,2.4-2.4H77
		C78.3,4.7,79.3,5.8,79.3,7.1z"/>
	<path class="st0" d="M77,23.3h-1.7c-2.1,0-3.9-1.7-3.9-3.9V7.1c0-2.1,1.7-3.9,3.9-3.9H77c2.1,0,3.9,1.7,3.9,3.9v12.3
		C80.8,21.5,79.1,23.3,77,23.3z M75.2,6.2c-0.5,0-0.9,0.4-0.9,0.9v12.3c0,0.5,0.4,0.9,0.9,0.9H77c0.5,0,0.9-0.4,0.9-0.9V7.1
		c0-0.5-0.4-0.9-0.9-0.9H75.2z"/>
</g>
<g>
	<path class="st0" d="M144.8,7.1v12.3c0,1.3-1.1,2.4-2.4,2.4h-1.7c-1.3,0-2.4-1.1-2.4-2.4V7.1c0-1.3,1.1-2.4,2.4-2.4h1.7
		C143.8,4.7,144.8,5.8,144.8,7.1z"/>
	<path class="st0" d="M142.5,23.3h-1.7c-2.1,0-3.9-1.7-3.9-3.9V7.1c0-2.1,1.7-3.9,3.9-3.9h1.7c2.1,0,3.9,1.7,3.9,3.9v12.3
		C146.3,21.5,144.6,23.3,142.5,23.3z M140.8,6.2c-0.5,0-0.9,0.4-0.9,0.9v12.3c0,0.5,0.4,0.9,0.9,0.9h1.7c0.5,0,0.9-0.4,0.9-0.9V7.1
		c0-0.5-0.4-0.9-0.9-0.9H140.8z"/>
</g>
<g>
	<path class="st0" d="M142.5,8H75.2c-1.3,0-2.4-1.1-2.4-2.4V3.9c0-1.3,1.1-2.4,2.4-2.4h67.2c1.3,0,2.4,1.1,2.4,2.4v1.7
		C144.8,6.9,143.8,8,142.5,8z"/>
	<path class="st0" d="M142.5,9.5H75.2c-2.1,0-3.9-1.7-3.9-3.9V3.9c0-2.1,1.7-3.9,3.9-3.9h67.2c2.1,0,3.9,1.7,3.9,3.9v1.7
		C146.3,7.7,144.6,9.5,142.5,9.5z M75.2,3c-0.5,0-0.9,0.4-0.9,0.9v1.7c0,0.5,0.4,0.9,0.9,0.9h67.2c0.5,0,0.9-0.4,0.9-0.9V3.9
		c0-0.5-0.4-0.9-0.9-0.9H75.2z"/>
</g>
<g>
	<path class="st0" d="M14.2,68l13.9-13.9c1.8-1.8,4.8-1.8,6.6,0l2.9,2.9c1.8,1.8,1.8,4.8,0,6.6L23.8,77.5c-1.8,1.8-4.8,1.8-6.6,0
		l-2.9-2.9C12.4,72.8,12.4,69.8,14.2,68z"/>
	<path class="st0" d="M20.5,80.4c-1.6,0-3.2-0.6-4.4-1.8l-2.9-2.9c-1.2-1.2-1.8-2.7-1.8-4.4c0-1.6,0.6-3.2,1.8-4.4L27,53.1
		c1.2-1.2,2.7-1.8,4.4-1.8c1.6,0,3.2,0.6,4.4,1.8l2.9,2.9c1.2,1.2,1.8,2.7,1.8,4.4c0,1.6-0.6,3.2-1.8,4.4L24.8,78.6
		C23.7,79.8,22.1,80.4,20.5,80.4z M31.4,54.3c-0.8,0-1.6,0.3-2.2,0.9L15.3,69.1c-1.2,1.2-1.2,3.2,0,4.5l2.9,2.9
		c1.2,1.2,3.2,1.2,4.5,0l13.9-13.9c1.2-1.2,1.2-3.2,0-4.5l-2.9-2.9C33,54.6,32.2,54.3,31.4,54.3z"/>
</g>
<g>
	<path class="st0" d="M154.1,159c0,0.2,0,0.5,0,0.7c0,0.4-0.1,0.7-0.1,1.1c0,0,0,0.1,0,0.1c0,0.1,0,0.2-0.1,0.3
		c-0.1,0.3-0.2,0.6-0.3,1c-0.3,0.8-0.6,1.6-1.1,2.3c-0.1,0.1-0.1,0.2-0.2,0.3c-0.1,0.1-0.1,0.2-0.2,0.3l0,0
		c-0.3,0.4-0.6,0.8-0.9,1.2c-0.1,0.1-0.1,0.2-0.2,0.2s-0.3,0.3-0.4,0.5c-0.3,0.3-0.6,0.6-0.9,0.9l-0.5,0.4l-0.5,0.4l-0.5,0.4
		l-0.5,0.4c-0.9,0.7-1.9,1.4-2.9,1.9l0,0c-0.2,0.1-0.5,0.3-0.8,0.4l0,0l-0.8,0.4l-0.8,0.4c-0.3,0.1-0.6,0.3-0.9,0.4
		c-0.6,0.3-1.1,0.5-1.8,0.8l-0.9,0.4c-0.6,0.2-1.3,0.5-1.9,0.7c-0.3,0.1-0.6,0.2-1,0.3l-0.2,0.1l-1,0.3l-0.8,0.2l-1,0.3l-0.6,0.2
		l-1.4,0.4l-0.2,0.1l-1.1,0.3c-0.7,0.2-1.4,0.3-2.1,0.5l-0.9,0.2c-0.5,0.1-1,0.2-1.5,0.3c-0.7,0.1-1.4,0.2-2,0.3s-1.3,0.2-1.9,0.2
		l-0.9,0.1c-0.8,0.1-1.7,0.2-2.5,0.2l-1,0.1h-0.5c-0.6,0-1.2,0.1-1.8,0.1s-0.9,0-1.4,0s-0.9,0-1.4,0s-1.1,0-1.7,0
		c-24.3,0-44-9.1-44-20.4c0-0.2,0-0.4,0-0.6v-0.4c0-0.2,0-0.4,0.1-0.6l0.1-0.3c0-0.1,0-0.2,0.1-0.3c0-0.2,0.1-0.3,0.1-0.5
		c0-0.1,0-0.2,0.1-0.3c0-0.1,0.1-0.2,0.1-0.4c0-0.1,0.1-0.2,0.1-0.3c0-0.1,0.1-0.3,0.1-0.4c0.1-0.2,0.2-0.5,0.3-0.7s0.3-0.6,0.5-0.9
		s0.4-0.6,0.6-0.9c0.1-0.2,0.1-0.2,0,0c0.2-0.3,0.4-0.5,0.6-0.8s0.2-0.3,0.4-0.4l0.3-0.3l0.1-0.1l0.4-0.4c0.2-0.2,0.5-0.4,0.7-0.6
		c0.1-0.1,0.1-0.1,0.2-0.2c0.2-0.2,0.5-0.4,0.7-0.6l0.5-0.4l1-0.7l0.5-0.4l0.5-0.4c0.5-0.3,1.1-0.7,1.6-1l0.3-0.2
		c0.3-0.2,0.7-0.4,1-0.6c1.2-0.6,2.4-1.2,3.7-1.7l0.6-0.2c1.2-0.5,2.5-0.9,3.8-1.3c0.4-0.1,0.9-0.3,1.3-0.4h0.1l0.3-0.1h0.1l1-0.3
		l0.2,0l1.1-0.3h0.2l1.6-0.4l1.4-0.3l0.3,0l1.5-0.3l0.9-0.2c1.6-0.3,3.3-0.5,5-0.7l0.5-0.1l1.2,4.9l3.4,13.4
		c0.7,2.7,3.4,4.3,6.1,3.6c1.8-0.4,3.2-1.8,3.6-3.6l3.4-13.4l1.2-4.9l0.5,0.1c1.7,0.2,3.4,0.4,5,0.7l0.9,0.2l1.5,0.3l0.3,0l1.4,0.3
		l1.6,0.4l0,0h0.2l1.1,0.3l0.2,0l1,0.3h0.1l0.3,0.1h0.1c0.4,0.1,0.9,0.2,1.3,0.4l0.5,0.1l0.3,0.1l1.2,0.4c0.6,0.2,1.3,0.5,1.9,0.7
		l0.6,0.2c0.6,0.2,1.2,0.5,1.8,0.8s1.3,0.6,1.9,0.9c0.4,0.2,0.7,0.4,1,0.6l0.3,0.2c0.6,0.3,1.1,0.7,1.6,1c0.5,0.3,1,0.7,1.5,1.1
		l0.5,0.4c0.2,0.1,0.3,0.2,0.5,0.4s0.5,0.4,0.7,0.6c0.1,0.1,0.1,0.1,0.2,0.2c0.2,0.2,0.5,0.4,0.7,0.6s0.4,0.4,0.5,0.6l0.1,0.1
		c0.2,0.2,0.4,0.4,0.6,0.6l0.2,0.2c0.2,0.2,0.3,0.4,0.5,0.6c0.2,0.3,0,0,0,0l0.4,0.6l0.2,0.3l0,0c0.2,0.3,0.3,0.6,0.5,0.9
		c0.1,0.2,0.2,0.5,0.3,0.7s0.2,0.5,0.3,0.7s0.1,0.3,0.1,0.4c0.1,0.3,0.2,0.7,0.2,1c0,0.1,0,0.2,0.1,0.4v0.2c0,0.2,0.1,0.5,0.1,0.8
		S154.1,158.8,154.1,159z"/>
</g>
<g>
	<path class="st0" d="M159.1,158.6c-0.1-3.2-1.2-6.3-3.1-8.9c-1.2-1.6-2.5-3.1-4.1-4.4c-1.4-1.2-2.8-2.2-4.4-3.1
		c-0.8-0.5-1.5-0.9-2.3-1.3c-1.9-1-3.8-1.8-5.8-2.6c-1.8-0.7-3.6-1.3-5.6-1.8c-4.3-1.2-8.7-2-13.2-2.4c0,0.3-0.1,0.6-0.1,0.9l-1,4
		l-1.2,4.9c6.3,0.5,12.5,1.9,18.4,4.1c2,0.8,4,1.7,5.9,2.8l0,0c3.4,2.1,5.6,4.4,6.3,6.6l0,0c0.1,0.5,0.2,1,0.2,1.5
		c-0.1,1.4-0.6,2.8-1.6,3.8c-0.5,0.6-1,1.2-1.6,1.7c-1.3,1.2-2.8,2.2-4.4,3.1c-6.7,3.8-17.5,6.8-31.5,6.8c-24.2,0-39-9-39-15.4
		c0-6.1,12.3-13.3,30.8-15l-1.2-4.9l-1-4c-0.1-0.3-0.1-0.6-0.1-0.9c-22.7,2.4-38.2,12.1-38.5,24.5c0,0.1,0,0.2,0,0.4
		c0,14.5,21.1,25.4,49,25.4s49-10.9,49-25.4C159.1,158.8,159.1,158.7,159.1,158.6z"/>
</g>
<g>
	<path class="st1" d="M8.5,146.9v0.9c0,0.2,0,0.4,0,0.6s0,0.6,0,0.9s0,0.4,0,0.6c0,0.4,0,0.8,0,1.2c0-0.4,0-0.8,0-1.2s0-1,0-1.5
		S8.5,147.4,8.5,146.9L8.5,146.9z M32.9,155.8H18.6c0-0.3,0-0.6,0-0.9s0-0.4,0-0.6v-0.9c0-0.2,0-0.4,0-0.6c0-0.4,0-0.8,0-1.1
		c0,0.6,0,1.1,0,1.7s0,1,0,1.5s0,1,0.1,1.5H33c2.1,0,3.9-1.7,3.9-3.9v-0.6c0,2.1-1.7,3.9-3.9,3.9C32.9,155.8,32.9,155.8,32.9,155.8z
		 M24.1,97.2c-0.2,0.3-0.4,0.6-0.5,0.9l-0.3,0.4c-0.2,0.3-0.4,0.6-0.5,0.9l-0.2,0.4l0,0c-0.5,0.8-1,1.7-1.5,2.6l-0.2,0.4
		c-0.2,0.3-0.3,0.6-0.5,0.9l-0.2,0.4c-0.2,0.3-0.3,0.6-0.5,0.9c-0.1,0.1-0.1,0.3-0.2,0.4l0.2,0.1c0.2-0.4,0.5-0.9,0.7-1.3
		s0.5-0.9,0.7-1.3c0.6-1,1.1-2,1.7-3c0.3-0.4,0.5-0.9,0.8-1.3l0.8-1.3L24.1,97.2z M47.3,190c0,0.2,0,0.5-0.1,0.7
		c-0.3,1-0.9,1.8-1.8,2.4L33,200.2c-0.2-0.3-0.4-0.6-0.5-0.9c-0.1-0.1-0.2-0.3-0.3-0.4s-0.4-0.6-0.5-0.9l-0.2-0.4
		c-0.5-0.8-1-1.7-1.5-2.6c-0.1-0.1-0.2-0.3-0.2-0.4l-0.5-0.9l-0.2-0.4c-0.2-0.3-0.3-0.6-0.5-0.9l-0.2,0.1c0.2,0.5,0.5,0.9,0.7,1.3
		s0.5,0.9,0.7,1.3c0.5,1,1.1,2,1.7,3c0.2,0.4,0.5,0.9,0.8,1.3s0.5,0.9,0.8,1.3l12.4-7.1c0.9-0.5,1.5-1.4,1.8-2.4
		C47.3,190.9,47.4,190.5,47.3,190L47.3,190z M47.3,112.5c0,0.6-0.2,1.1-0.5,1.6l-0.9,1.5c-1,1.9-3.4,2.5-5.2,1.5c0,0,0,0,0,0
		l-12.2-7c-0.1,0.1-0.1,0.3-0.2,0.4l12.4,7.1c1.8,1.1,4.2,0.4,5.3-1.4c0,0,0,0,0,0l0.9-1.5C47.2,114.2,47.4,113.4,47.3,112.5
		L47.3,112.5z M62.6,61.9l-1.1,0.6l-0.2,0.1l-1.1,0.6L60,63.4c-0.9,0.5-1.9,1-2.8,1.6L57,65.1l-1,0.6l-0.2,0.1l-1,0.6l-0.2,0.1
		l0.2,0.4l1.3-0.8l1.3-0.8c1-0.6,2-1.2,3-1.7c0.4-0.2,0.9-0.5,1.3-0.7l1.3-0.7L62.6,61.9z M75.5,85.1c-0.1,1.3-0.8,2.5-1.9,3.1
		L72.1,89c-0.6,0.3-1.3,0.5-1.9,0.5c-1.4,0-2.7-0.7-3.4-1.9l-6.9-12l-0.2,0.2l7.1,12.4c0.7,1.2,2,1.9,3.4,1.9c0.7,0,1.3-0.2,1.9-0.5
		l1.5-0.9C74.8,88,75.6,86.5,75.5,85.1L75.5,85.1z M75.5,217.5c0,0.6-0.2,1.1-0.5,1.6l-7.2,12.4c-0.4-0.2-0.7-0.4-1.1-0.6l-0.2-0.1
		c-0.4-0.2-0.7-0.4-1.1-0.6l-0.2-0.1c-0.9-0.5-1.9-1-2.8-1.6l-0.2-0.1l-1-0.6l-0.2-0.1c-0.4-0.2-0.7-0.4-1-0.7l-0.2,0.4
		c0.4,0.3,0.8,0.5,1.3,0.8l1.3,0.8c1,0.6,2,1.2,3,1.7l1.3,0.7c0.4,0.2,0.9,0.5,1.3,0.7l7.2-12.4C75.4,219.1,75.6,218.3,75.5,217.5
		L75.5,217.5z M109.8,78.9H108c-2.1,0-3.9-1.7-3.9-3.9v0.6c0,2.1,1.7,3.9,3.9,3.9h1.7c2.1,0,3.9-1.7,3.9-3.9V75
		C113.6,77.2,111.9,78.9,109.8,78.9C109.7,78.9,109.7,78.9,109.8,78.9L109.8,78.9z M112.1,50.6h-1.5c-0.6,0-1.1,0-1.7,0
		s-1.1,0-1.7,0h-1.5l-1.5,0.1v0.6l1.5-0.1h1.5c0.6,0,1.1,0,1.7,0s1.1,0,1.7,0h1.5l1.5,0.1v-0.6L112.1,50.6z M110.1,124
		c-2.2,0-4-1.6-4.2-3.8v-0.1c0-0.1,0-0.3,0-0.4c0-2.4,1.9-4.3,4.3-4.3c0.4,0,0.8,0.1,1.2,0.2c-0.2-0.2-0.3-0.3-0.5-0.5
		c-1.6-1.4-3.7-2.2-5.8-2.2h-0.5c-4.7,0.2-8.3,4.1-8.3,8.8c0,0.3,0,0.6,0,0.9c0.2,1.9,0.9,3.6,2.2,5c0.8,0.9,1.8,1.6,2.8,2.1
		c0.9,0.4,2,0.7,3,0.8c0.2,0,0.5,0,0.7,0c1.5,0,2.9-0.4,4.2-1.1c0.5-0.3,0.9-0.6,1.4-0.9c0.3-0.3,0.6-0.6,0.9-0.9
		c1.4-1.6,2.2-3.6,2.3-5.7C113,123.3,111.6,124.1,110.1,124L110.1,124z M112.1,241.4h-1.5h-1.7h-1.7h-1.5l-1.5-0.1v0.6l1.5,0.1h1.5
		h1.7h1.7h1.5l1.5-0.1v-0.6L112.1,241.4z M157.9,75.6l-6.9,12c-1.1,1.8-3.4,2.5-5.3,1.4c0,0,0,0,0,0l-1.5-0.9
		c-1.1-0.6-1.8-1.8-1.9-3.1c-0.1,1.5,0.6,2.9,1.9,3.6l1.5,0.9c1.8,1.1,4.2,0.4,5.3-1.4c0,0,0,0,0,0l7.1-12.4L157.9,75.6z M157.9,227
		c-0.3,0.2-0.7,0.5-1,0.7l-0.2,0.1c-0.3,0.2-0.7,0.4-1,0.6l-0.2,0.1c-0.9,0.5-1.8,1.1-2.8,1.6l-0.2,0.1c-0.4,0.2-0.7,0.4-1.1,0.6
		l-0.2,0.1c-0.4,0.2-0.7,0.4-1.1,0.6l-7.3-12.4c-0.3-0.5-0.5-1.1-0.5-1.6c-0.1,0.8,0.1,1.5,0.5,2.2l7.2,12.4
		c0.5-0.2,0.9-0.5,1.3-0.7s0.9-0.5,1.3-0.7c1-0.5,2-1.1,3-1.7c0.4-0.2,0.9-0.5,1.3-0.8s0.9-0.5,1.3-0.8L157.9,227z M163.1,66.5
		l-1-0.6l-0.2-0.1l-1-0.6l-0.2-0.1c-0.9-0.5-1.8-1.1-2.8-1.6l-0.2-0.1l-1.1-0.6l-0.2-0.1l-1.1-0.6l-0.2,0.4l1.3,0.7l1.3,0.7
		c1,0.6,2,1.1,3,1.7l1.3,0.8l1.3,0.8l0.2-0.4L163.1,66.5z M189.2,110.1l-12.2,7c-0.6,0.3-1.3,0.5-1.9,0.5c-1.4,0-2.7-0.7-3.4-1.9
		l-0.9-1.5c-0.3-0.5-0.5-1.1-0.5-1.6c-0.1,0.8,0.1,1.5,0.5,2.2l0.9,1.5c0.7,1.2,2,1.9,3.4,1.9c0.7,0,1.3-0.2,1.9-0.5l12.4-7.1
		C189.4,110.4,189.3,110.2,189.2,110.1L189.2,110.1z M189.2,192.5c-0.1,0.3-0.3,0.6-0.5,0.9l-0.2,0.4l-0.5,0.9
		c-0.1,0.1-0.1,0.3-0.2,0.4c-0.5,0.9-1,1.7-1.5,2.6c-0.1,0.1-0.2,0.3-0.2,0.4c-0.2,0.3-0.4,0.6-0.5,0.9s-0.2,0.3-0.3,0.4
		c-0.2,0.3-0.4,0.6-0.5,0.9l-12.4-7.1c-0.9-0.5-1.5-1.4-1.8-2.4c-0.1-0.2-0.1-0.5-0.1-0.7c0,0.4,0,0.9,0.1,1.3
		c0.3,1,0.9,1.8,1.8,2.4l12.4,7.1c0.3-0.4,0.5-0.8,0.8-1.3s0.5-0.9,0.8-1.3c0.6-1,1.2-2,1.7-3c0.3-0.4,0.5-0.9,0.7-1.3
		c0.2-0.4,0.5-0.9,0.7-1.3L189.2,192.5z M198.1,105c-0.2-0.3-0.3-0.6-0.5-0.9l-0.2-0.4c-0.2-0.3-0.3-0.6-0.5-0.9l0,0l-0.2-0.4
		c-0.5-0.9-1-1.7-1.5-2.6c-0.1-0.1-0.2-0.3-0.2-0.4c-0.2-0.3-0.3-0.6-0.5-0.9c-0.1-0.1-0.2-0.3-0.3-0.4c-0.2-0.3-0.4-0.6-0.5-0.9
		l-0.2,0.1l0.8,1.3c0.3,0.4,0.5,0.9,0.8,1.3c0.6,1,1.2,2,1.7,3c0.3,0.4,0.5,0.9,0.7,1.3c0.2,0.4,0.5,0.9,0.7,1.3l0.2-0.1
		C198.2,105.2,198.2,105.2,198.1,105L198.1,105z M199.3,152.8c0,0.2,0,0.4,0,0.6v0.9c0,0.2,0,0.4,0,0.6s0,0.6,0,0.9h-14.4
		c-2.1,0-3.9-1.7-3.9-3.9v0.6c0,2.1,1.7,3.9,3.9,3.9h14.3c0-0.5,0-1,0.1-1.5s0-1,0-1.5s0-1.1,0-1.7
		C199.3,152,199.3,152.4,199.3,152.8L199.3,152.8z M209.3,149c0,0.2,0,0.4,0,0.5v-0.3C209.3,149.2,209.3,149.1,209.3,149L209.3,149z
		 M209.3,147.8v-0.9l0,0c0,0.5,0,1,0,1.5v0.7c0-0.2,0-0.5,0-0.7S209.2,148,209.3,147.8L209.3,147.8z M209.3,149.9c0-0.1,0-0.1,0-0.2
		V149.9c0,0.4,0,0.8,0,1.2C209.3,150.6,209.3,150.2,209.3,149.9L209.3,149.9z"/>
</g>
<g>
	<path class="st1" d="M159.8,132.4c-0.1-0.8-0.5-1.5-1-2.1c-0.9-1.2-2.4-1.9-3.9-1.9h-16.7c-0.4,0-0.8,0-1.1,0.1
		c-2.3,0.5-3.9,2.6-3.9,5c0,0.3,0,0.7,0.1,1v0.1c0,0.2,0.1,0.4,0.2,0.7l0.2,0.7c2,0.5,3.8,1.1,5.6,1.8c2,0.7,3.9,1.6,5.8,2.5
		c0.9,0.5,1.8,1,2.6,1.5c1.5,0.9,3,2,4.4,3.1c1.5,1.3,2.9,2.8,4,4.4l0.3-1.2l0.4-1.6l2.9-11.4l0,0c0-0.1,0.1-0.2,0.1-0.4l0-0.2
		C159.9,133.8,160,133.1,159.8,132.4z M159.1,158.6c-0.2,14.4-21.2,25.2-49,25.2s-48.8-10.8-49-25.2c0,0.1,0,0.2,0,0.4
		c0,14.5,21.1,25.4,49,25.4s49-10.9,49-25.4C159.1,158.8,159.1,158.7,159.1,158.6z"/>
</g>
<g>
	<path class="st1" d="M209.3,149.9v-0.3c0-0.2,0-0.4,0-0.5v-0.7c0-0.5,0-1,0-1.5l0,0c0-0.2,0-0.4,0-0.6
		c-0.7-14.3-4.4-28.2-10.9-40.9l-0.2,0.1c-0.2-0.4-0.5-0.9-0.7-1.3s-0.5-0.9-0.7-1.3c-0.6-1-1.1-2-1.7-3c-0.2-0.4-0.5-0.9-0.8-1.3
		l-0.8-1.3l0.2-0.2l-0.2-0.4c-7.8-12-18-22.3-30-30.1l-0.2,0.4l-1.3-0.8l-1.3-0.8c-1-0.6-2-1.2-3-1.7l-1.3-0.7l-1.3-0.7l0.2-0.4
		l-0.2-0.1c-12.8-6.6-26.9-10.4-41.3-11.1v0.6l-1.5-0.1h-1.5c-0.6,0-1.1,0-1.7,0s-1.1,0-1.7,0h-1.5l-1.5,0.1v-0.6
		c-14.4,0.7-28.5,4.4-41.3,11.1l-0.2,0.1l0.2,0.4l-1.3,0.7c-0.4,0.2-0.9,0.5-1.3,0.7c-1,0.6-2,1.1-3,1.7l-1.3,0.8l-1.3,0.8l-0.2-0.4
		c-12,7.8-22.2,18.1-30,30.1l-0.2,0.4l0.2,0.1l-0.8,1.3c-0.3,0.4-0.5,0.8-0.8,1.3c-0.6,1-1.2,2-1.7,3c-0.2,0.4-0.5,0.9-0.7,1.3
		c-0.2,0.4-0.5,0.9-0.7,1.3l-0.2-0.1C12.9,118.1,9.2,132,8.6,146.3c0,0.2,0,0.4,0,0.6l0,0c0,0.5,0,1,0,1.5s0,1,0,1.5s0,0.8,0,1.2
		v0.3c0,0.5,0,1,0,1.4s0,1,0,1.5l0.1,1.5c0.6,14.4,4.4,28.5,11,41.3c0.2,0.5,0.5,0.9,0.7,1.3s0.5,0.9,0.7,1.3c0.5,1,1.1,2,1.7,3
		c0.3,0.4,0.5,0.9,0.8,1.3s0.5,0.9,0.8,1.3c7.8,12.1,18.1,22.4,30.3,30.2l1.3,0.8c0.4,0.3,0.9,0.5,1.3,0.8c1,0.6,2,1.2,3,1.7
		c0.4,0.3,0.9,0.5,1.3,0.7c0.4,0.2,0.9,0.5,1.3,0.7c12.8,6.7,26.9,10.4,41.3,11.1l1.5,0.1h1.5c0.6,0,1.1,0,1.7,0s1.1,0,1.7,0h1.5
		l1.5-0.1c14.4-0.7,28.5-4.4,41.3-11.1c0.4-0.2,0.9-0.5,1.3-0.7s0.9-0.5,1.3-0.7c1-0.5,2-1.1,3-1.7c0.4-0.2,0.9-0.5,1.3-0.8l0,0
		l1.3-0.8c12.1-7.8,22.4-18.1,30.2-30.3c0.3-0.4,0.5-0.9,0.8-1.3s0.5-0.8,0.8-1.3c0.6-1,1.2-2,1.7-3c0.3-0.4,0.5-0.9,0.7-1.3
		s0.5-0.9,0.7-1.3c6.6-12.8,10.4-26.9,11.1-41.3l0.1-1.5c0-0.5,0-1,0-1.5c0-0.5,0-1,0-1.4V151C209.3,150.6,209.3,150.2,209.3,149.9z
		 M28.3,110c0.2-0.5,0.5-0.9,0.7-1.3s0.5-0.9,0.7-1.3c0.6-1,1.1-2,1.7-3c0.3-0.4,0.5-0.9,0.8-1.3s0.5-0.9,0.8-1.3l12.4,7.1
		c1.3,0.7,2,2.2,1.9,3.6c0.1,0.8-0.1,1.5-0.5,2.2l-0.9,1.5c-1.1,1.8-3.4,2.5-5.3,1.4c0,0,0,0,0,0l-12.4-7.1c0.1-0.1,0.1-0.3,0.2-0.4
		L28.3,110z M18.6,156.3c0-0.5,0-1-0.1-1.5s0-1,0-1.5s0-1.1,0-1.7V151c0-0.6,0-1.2,0-1.8s0-1,0-1.5s0-1,0.1-1.5h14.3
		c2.1,0,3.9,1.7,3.9,3.9v2.3c0,2.1-1.7,3.9-3.9,3.9H18.6z M47.3,191.3c-0.3,1-0.9,1.8-1.8,2.4l-12.4,7.1c-0.3-0.4-0.5-0.8-0.8-1.3
		s-0.5-0.8-0.8-1.3c-0.6-1-1.2-2-1.7-3c-0.2-0.4-0.5-0.9-0.7-1.3c-0.2-0.4-0.5-0.9-0.7-1.3l0.2-0.1c-0.1-0.1-0.2-0.3-0.2-0.4
		l12.4-7.2c1.8-1.1,4.2-0.4,5.3,1.4c0,0,0,0,0,0l0.9,1.5c0.4,0.7,0.6,1.4,0.5,2.2C47.4,190.5,47.4,190.9,47.3,191.3L47.3,191.3z
		 M142.8,82.8l7.1-12.4c0.5,0.2,0.9,0.4,1.3,0.7s0.9,0.5,1.3,0.7c1,0.6,2,1.1,3,1.7l1.3,0.8c0.4,0.3,0.9,0.5,1.3,0.8l-0.2,0.4
		l0.2,0.1l-7.2,12.4c-1.1,1.8-3.4,2.5-5.3,1.4c0,0,0,0,0,0l-1.5-0.9c-1.3-0.7-2-2.2-1.9-3.6C142.2,84.3,142.4,83.5,142.8,82.8
		L142.8,82.8z M104.2,60.7c0.5,0,1-0.1,1.5-0.1h1.5h1.7h1.7h1.5c0.5,0,1,0,1.5,0.1v14.9c0,2.1-1.7,3.9-3.9,3.9H108
		c-2.1,0-3.9-1.7-3.9-3.9L104.2,60.7z M96.9,118.3c1.3-3.1,4.3-5.1,7.6-5.3h0.5c2.1,0,4.2,0.8,5.8,2.2c0.2,0.2,0.4,0.3,0.5,0.5
		c1.8,0.5,3.1,2.2,3.1,4.1c0,0.1,0,0.3,0,0.4c-0.1,0.7-0.3,1.3-0.6,1.8c-0.1,2.1-0.9,4.1-2.3,5.7c-0.3,0.3-0.6,0.6-0.9,0.9
		c-0.4,0.3-0.9,0.6-1.4,0.9c-1.3,0.7-2.7,1.1-4.2,1.1c-0.2,0-0.5,0-0.7,0c-1-0.1-2.1-0.3-3-0.8c-1.1-0.5-2-1.2-2.8-2.1
		c-1.2-1.4-2-3.1-2.2-5c0-0.3,0-0.6,0-0.9C96.2,120.6,96.4,119.4,96.9,118.3L96.9,118.3z M59.6,75.2c0.4-0.3,0.8-0.6,1.3-0.8
		s0.8-0.5,1.3-0.8c1-0.6,2-1.2,3-1.7l1.3-0.7l1.3-0.7l7.1,12.4c0.4,0.7,0.6,1.4,0.5,2.2c0.1,1.5-0.6,2.9-1.9,3.6L72,89.5
		c-0.6,0.3-1.3,0.5-1.9,0.5c-1.4,0-2.7-0.7-3.4-1.9l-7.1-12.4l0.2-0.2L59.6,75.2z M74.9,219.8l-7.1,12.4c-0.5-0.2-0.9-0.5-1.3-0.7
		l-1.3-0.7c-1-0.5-2-1.1-3-1.7l-1.3-0.8c-0.4-0.3-0.9-0.5-1.3-0.8l0.2-0.4l-0.2-0.1l7.1-12.4c1.1-1.9,3.4-2.5,5.3-1.4c0,0,0,0,0,0
		l1.5,0.9c1.3,0.7,2,2.2,1.9,3.6C75.5,218.3,75.3,219.1,74.9,219.8L74.9,219.8z M113.6,241.9l-1.5,0.1h-1.5h-1.7h-1.7h-1.5l-1.5-0.1
		V227c0-2.1,1.7-3.9,3.9-3.9h1.7c2.1,0,3.9,1.7,3.9,3.9L113.6,241.9z M158.1,227.4c-0.4,0.3-0.8,0.5-1.3,0.8s-0.8,0.5-1.3,0.8
		c-1,0.6-2,1.2-3,1.7c-0.4,0.3-0.9,0.5-1.3,0.7c-0.4,0.2-0.9,0.5-1.3,0.7l-7.2-12.4c-0.4-0.7-0.6-1.4-0.5-2.2c0-0.4,0-0.9,0.1-1.3
		c0.3-1,0.9-1.8,1.8-2.4l1.5-0.9c1.9-1.1,4.2-0.4,5.3,1.4l7.1,12.4c-0.1,0-0.2,0.1-0.2,0.1L158.1,227.4z M159.8,134.5l0,0.2
		c0,0.1,0,0.2-0.1,0.4l0,0l-2.9,11.4l-0.4,1.6l-0.3,1.2c1.9,2.7,3,5.9,3,9.1c0,0.1,0,0.1,0,0.2c0,0.1,0,0.2,0,0.4
		c0,14.5-21.1,25.4-49,25.4s-49-10.9-49-25.4c0-0.1,0-0.2,0-0.4c0.3-12.4,15.8-22.1,38.5-24.5c0,0.3,0.1,0.6,0.1,0.9l1,4l1.2,4.9
		l3.4,13.4c0.7,2.7,3.4,4.3,6.1,3.6c1.8-0.4,3.2-1.8,3.6-3.6l3.4-13.4l1.2-4.9l1-4c0.1-0.3,0.1-0.6,0.1-0.9
		c4.5,0.5,8.9,1.3,13.2,2.4l-0.1-0.6l-0.2-0.7c-0.1-0.2-0.1-0.4-0.2-0.7v-0.1c-0.1-0.3-0.1-0.7-0.1-1c-0.1-2.4,1.6-4.5,3.9-5
		c0.4-0.1,0.7-0.1,1.1-0.1H155c1.5,0,3,0.7,3.9,1.9C159.9,131.5,160.2,133,159.8,134.5L159.8,134.5z M170.5,111.3
		c0.3-1,0.9-1.8,1.8-2.4l12.4-7.1c0.3,0.4,0.5,0.8,0.8,1.3s0.5,0.8,0.8,1.3c0.6,1,1.2,2,1.7,3c0.3,0.4,0.5,0.9,0.7,1.3
		c0.2,0.4,0.5,0.9,0.7,1.3l-0.2,0.1c0.1,0.1,0.2,0.3,0.2,0.4l-12.4,7.1c-0.6,0.3-1.3,0.5-1.9,0.5c-1.4,0-2.7-0.7-3.4-1.9l-0.9-1.5
		c-0.4-0.7-0.6-1.4-0.5-2.2C170.4,112.1,170.4,111.7,170.5,111.3z M189.4,192.6c-0.2,0.5-0.5,0.9-0.7,1.3s-0.5,0.9-0.7,1.3
		c-0.5,1-1.1,2-1.7,3c-0.2,0.4-0.5,0.9-0.8,1.3s-0.5,0.9-0.8,1.3l-12.4-7.1c-0.9-0.5-1.5-1.4-1.8-2.4c-0.1-0.4-0.1-0.9-0.1-1.3
		c-0.1-0.8,0.1-1.5,0.5-2.2l0.9-1.5c1.1-1.8,3.4-2.5,5.3-1.4c0,0,0,0,0,0l12.4,7.2c-0.1,0.1-0.1,0.3-0.2,0.4L189.4,192.6z
		 M199.3,151.6c0,0.6,0,1.1,0,1.7s0,1,0,1.5s0,1-0.1,1.5h-14.4c-2.1,0-3.9-1.7-3.9-3.9v-2.3c0-2.1,1.7-3.9,3.9-3.9h14.3
		c0,0.5,0,1,0.1,1.5c0,0.5,0,1,0,1.5v0.4c0,0.4,0,0.9,0,1.3L199.3,151.6z"/>
</g>
<g>
	<path class="st0" d="M117.8,118.9v0.2c0,0.1,0,0.2-0.1,0.3l0,0l-1,4.1l-1.6,7.1l-0.9,3.8l-0.3,1.3l-3.9,16.7l-3.9-16.7l-0.3-1.3
		l-0.9-3.8l-0.3-1.4l-1.2-5.3l-0.1-0.5v-0.1l-0.9-3.6c0,0,0-0.1,0-0.1c0-0.1-0.1-0.3-0.1-0.5v-0.2h3.8l0,0c0.1,2.1,1.8,3.8,3.9,3.8
		c1.4,0,2.7-0.8,3.4-2c0.3-0.6,0.5-1.2,0.6-1.8L117.8,118.9z"/>
</g>
<g>
	<path class="st0" d="M108.7,125.8c-1.7-1-3.5-1.8-5.4-2.5v0.1l0.1,0.5l0.3,0.1c1.7,0.7,3.4,1.5,5.1,2.4L108.7,125.8z M108.7,125.8
		c-1.7-1-3.5-1.8-5.4-2.5v0.1l0.1,0.5l0.3,0.1c1.7,0.7,3.4,1.5,5.1,2.4L108.7,125.8z M108.7,125.8c-1.7-1-3.5-1.8-5.4-2.5v0.1
		l0.1,0.5l0.3,0.1c1.7,0.7,3.4,1.5,5.1,2.4L108.7,125.8z M108.7,125.8c-1.7-1-3.5-1.8-5.4-2.5v0.1l0.1,0.5l0.3,0.1
		c1.7,0.7,3.4,1.5,5.1,2.4L108.7,125.8z M109.2,128.1c-1.2,0.7-2.5,1.1-3.9,1.1c-0.2,0-0.4,0-0.6,0l0.3,1.4c1.6,0.8,3.3,1.2,5,1.2
		L109.2,128.1z M122.4,117.9L122.4,117.9c-0.1-0.8-0.4-1.5-0.9-2.1c-0.8-1.2-2.2-1.9-3.6-1.9h-15.5c-0.4,0-0.7,0-1,0.1
		c-1,0.3-2,0.9-2.6,1.8c-0.4,0.6-0.7,1.3-0.9,2l0,0c-0.1,0.4-0.1,0.8-0.1,1.2c0,0.3,0,0.7,0.1,1v0.1c0,0.2,0.1,0.3,0.1,0.5
		s0,0.1,0,0.1l0.2,0.7l0.1,0.6l0.2,0.8l0,0l0.8,3.4l0.3,1.5l0.9,3.7l0.5,2.1l0,0l2.3,9.8l2.3,9.8l0.1,0.4c0.3,1.6,1.4,2.9,2.9,3.5
		l0,0c0.5,0.2,1,0.3,1.6,0.3c2.2,0,4.2-1.5,4.6-3.7l0.7-3l0,0l1.7-7.1l0-0.2l1.1-4.7l0.8-3.3l0.1-0.4l0.3-1.2l0.4-1.6l2.1-9.2
		l0.5-2.2l0,0v-0.1l0,0c0-0.1,0.1-0.2,0.1-0.2l0-0.2C122.5,119.4,122.5,118.6,122.4,117.9L122.4,117.9z M111.1,127.3l-0.1,0.5
		l-0.9,4l-0.8-3.6l-0.2-1l-0.2-0.7l-0.1-0.6l-0.5-1.9h3.7l-0.6,2.5l-0.2,0.8L111.1,127.3z M110.1,114.2c0.4,0,0.7,0.1,1.1,0.2
		c1.7,0.6,2.9,2.3,2.9,4.1c0,0.1,0,0.3,0,0.4c-0.1,0.6-0.3,1.3-0.6,1.8c-0.7,1.2-2,2-3.4,2c-2.1-0.1-3.8-1.7-3.9-3.8l0,0
		c0-0.1,0-0.3,0-0.4C106.1,116.3,107.8,114.3,110.1,114.2L110.1,114.2z M108.7,125.8c-1.7-1-3.5-1.8-5.4-2.5v0.1l0.1,0.5l0.3,0.1
		c1.7,0.7,3.4,1.5,5.1,2.4L108.7,125.8z M108.7,125.8c-1.7-1-3.5-1.8-5.4-2.5v0.1l0.1,0.5l0.3,0.1c1.7,0.7,3.4,1.5,5.1,2.4
		L108.7,125.8z M108.7,125.8c-1.7-1-3.5-1.8-5.4-2.5v0.1l0.1,0.5l0.3,0.1c1.7,0.7,3.4,1.5,5.1,2.4L108.7,125.8z M108.7,125.8
		c-1.7-1-3.5-1.8-5.4-2.5v0.1l0.1,0.5l0.3,0.1c1.7,0.7,3.4,1.5,5.1,2.4L108.7,125.8z"/>
</g>
<g>
	<path class="st2" d="M117,113.9c-1.4-2.5-4-4.1-6.9-4.2c-1.9,0-3.7,0.7-5.2,2c-0.7,0.6-1.3,1.4-1.8,2.2c-0.8,1.4-1.2,3-1.2,4.6
		c0,0.3,0,0.6,0,0.9c0.1,1.4,0.6,2.8,1.4,4c0.1,0.2,0.3,0.4,0.4,0.6c1.3,1.7,3.1,2.9,5.2,3.2c0.4,0.1,0.7,0.1,1.1,0.1h0.4
		c0.2,0,0.4,0,0.6-0.1c2.3-0.3,4.4-1.7,5.6-3.7C118.6,120.5,118.7,116.8,117,113.9L117,113.9z M113.5,120.7c-0.7,1.2-2,2-3.4,2
		c-2.1-0.1-3.8-1.7-3.9-3.8l0,0c0-0.1,0-0.3,0-0.4c-0.1-2.3,1.7-4.2,4-4.3c0,0,0,0,0,0c0.4,0,0.7,0.1,1.1,0.2
		c1.7,0.6,2.9,2.3,2.9,4.1c0,0.1,0,0.3,0,0.4C114,119.6,113.8,120.2,113.5,120.7L113.5,120.7z"/>
</g>
<g>
	<path class="st0" d="M122.4,117.9c-0.3-7-5.7-12.7-12.3-12.7c-6.3,0-11.5,5.2-12.2,11.8c0,0.3-0.1,0.5-0.1,0.8l0,0
		c0,0.2,0,0.4,0,0.7c0,0.5,0,0.9,0.1,1.4c0,0.3,0.1,0.6,0.1,0.9c0.1,0.7,0.3,1.5,0.5,2.2l0,0c0.7,2.1,1.8,4,3.4,5.5
		c0.9,0.9,2,1.6,3.1,2.2c3.2,1.6,6.9,1.6,10.1,0c3.2-1.6,5.6-4.4,6.6-7.8c0.2-0.7,0.4-1.4,0.5-2.2c0,0,0-0.1,0-0.1l0,0
		c0.1-0.7,0.1-1.3,0.1-2C122.4,118.3,122.4,118.1,122.4,117.9z M113.4,120.7c-0.7,1.2-2,2-3.4,2c-2.1-0.1-3.8-1.7-3.9-3.8l0,0
		c0-0.1,0-0.3,0-0.4c-0.1-2.3,1.7-4.2,4-4.3c0,0,0,0,0,0c0.4,0,0.7,0.1,1.1,0.2c1.7,0.6,2.9,2.3,2.9,4.1c0,0.1,0,0.3,0,0.4
		C114,119.6,113.8,120.2,113.4,120.7z"/>
</g>
<g>
	<path class="st1" d="M114,118.5c0,0.1,0,0.3,0,0.4c-0.1,0.6-0.3,1.3-0.6,1.8c-0.7,1.2-2,2-3.4,2c-2.1-0.1-3.8-1.7-3.9-3.8l0,0
		c0-0.1,0-0.3,0-0.4c-0.1-2.3,1.7-4.2,4-4.3c0,0,0,0,0,0c0.4,0,0.7,0.1,1.1,0.2C113,115,114.1,116.7,114,118.5z"/>
</g>
</svg>
